<?xml version='1.0' encoding='UTF-8'?>
<svg xmlns="http://www.w3.org/2000/svg" viewBox="0 0 1200 680" width="1200" height="680" font-family="Consolas, 'Courier New', monospace">
    <style>
        .title { font: bold 32px 'Segoe UI', Ubuntu, sans-serif; fill: #60a5fa; }
        .subtitle { font: 16px 'Segoe UI', Ubuntu, sans-serif; fill: #2dd4bf; }
        .section-title { font: bold 16px 'Segoe UI', Ubuntu, sans-serif; }
        .label { fill: #a1a1aa; font-size: 14px; }
        .value { fill: #f4f4f5; font-size: 14px; }
        .box-title { fill: #a1a1aa; font-size: 13px; }
        .box-val { fill: #60a5fa; font: bold 24px 'Segoe UI', Ubuntu, sans-serif; }
        .box-sub { fill: #a1a1aa; font-size: 11px; }
        .ascii-text { fill: #f4f4f5; font: 14px Consolas, monospace; letter-spacing: 0px; }
        line { stroke: #27272a; stroke-dasharray: 4 4; }
    </style>

    <!-- Background -->
    <rect width="1190" height="670" x="5" y="5" fill="#09090b" rx="12" stroke="#27272a" stroke-width="2"/>
    
    <!-- Left Profile ASCII Art -->
    <text x="15" y="120" class="ascii-text">⠀⠀⠀⠀⠀⠀⠀⢀⣀⣀⣤⣤⣤⣤⣤⣄⣀⡀⠀⠀⠀⠀⠀⠀⠀⠀⠀⠀⠀⠀⠀⠀⠀⠀⠀⠀⠀⠀⠀⠀⠀⠀⠀⠀⠀⠀</text>
<text x="15" y="140" class="ascii-text">⠀⠀⠀⠀⣠⣶⣾⣿⣿⣿⣿⣿⣿⣿⣿⣿⣿⣿⡿⣶⣦⣄⠀⠀⠀⠀⠀⠀⠀⠀⠀⠀⠀⠀⠀⠀⠀⠀⠀⠀⠀⠀⠀⠀⠀⠀</text>
<text x="15" y="160" class="ascii-text">⠀⠀⣠⣾⣿⣿⣿⣿⣿⡿⠿⠿⠛⠛⠛⠛⠋⠉⠀⣠⣾⢿⢳⣆⠀⠀⠀⠀⠀⠀⠀⠀⠀⠀⠀⠀⠀⠀⠀⠀⠀⠀⠀⠀⠀⠀</text>
<text x="15" y="180" class="ascii-text">⠀⢠⣿⣿⣿⣿⣿⠟⠁⠀⠀⢀⣠⣴⡶⠶⠶⠶⠿⠋⠁⣾⠟⣿⠀⠀⠀⠀⠀⠀⠀⠀⠀⠀⠀⠀⠀⠀⠀⠀⠀⠀⠀⠀⠀⠀</text>
<text x="15" y="200" class="ascii-text">⢠⣾⣿⣿⣿⣿⣿⣷⣦⡀⠰⡽⡟⠉⠉⠻⠿⣆⠀⠀⠀⡧⠤⣼⡆⠀⠀⠀⠀⠀⠀⠀⠀⠀⠀⠀⠀⠀⠀⠀⠀⠀⠀⠀⠀⠀</text>
<text x="15" y="220" class="ascii-text">⣿⣿⣿⣿⣿⣿⣿⣿⣿⣷⡀⠀⠀⢀⠴⠒⠒⢌⠳⡀⠀⢣⡀⣼⣷⡀⠀⠀⠀⠀⠀⠀⠀⠀⠀⠀⠀⠀⠀⠀⠀⠀⠀⠀⠀⠀</text>
<text x="15" y="240" class="ascii-text">⠹⣿⡿⠟⠛⠛⠿⣿⣿⣿⡁⠀⠀⡎⠀⠀⠀⢀⡇⠁⠀⠀⠉⠳⢬⣷⣄⠀⠀⠀⠀⠀⠀⠀⣰⣾⣦⣀⣀⣀⠀⣀⡀⠀⠀⠀</text>
<text x="15" y="260" class="ascii-text">⢰⡇⢰⡾⠛⠛⠒⠦⣌⠻⢿⠦⠀⠘⣄⠀⠀⡻⡵⠒⠂⠀⠀⠀⠀⠀⠙⣷⠀⠀⠀⠀⠀⠀⠻⡟⠀⠀⠈⠉⠛⣿⣿⠀⠀⠀</text>
<text x="15" y="280" class="ascii-text">⠘⣧⠸⣄⠀⠀⠀⠀⠀⣤⠀⠀⠀⠀⠀⠈⠁⠀⠙⠤⠤⢤⣄⣀⡀⠀⣠⡿⠀⠀⠀⠀⠀⠀⠀⡇⠠⣠⠀⠀⣰⠏⠉⠀⠀⠀</text>
<text x="15" y="300" class="ascii-text">⠀⠘⠳⣤⣙⠒⠤⠤⠤⢛⣁⠀⠀⠀⠀⠀⠀⠸⠓⠒⢒⠭⠟⠀⢀⡾⠋⠀⠀⠀⠀⠀⠀⠀⠀⡷⠿⠖⠀⣰⠏⠀⠀⠀⠀⠀</text>
<text x="15" y="320" class="ascii-text">⠀⠀⠀⠀⠉⠙⠛⠛⠛⠉⠙⠷⣤⣀⠀⠀⠀⠀⠀⠀⠀⠀⠀⣰⠟⠁⠀⠀⠀⠀⢠⣤⢤⣤⣞⠑⣄⣀⠞⣻⣀⣀⣠⡴⢦⡄</text>
<text x="15" y="340" class="ascii-text">⠀⠀⠀⠀⠀⠀⠀⠀⠀⠀⠀⠀⠀⠉⠛⠦⣄⡀⠀⠀⠀⠀⣼⠃⠀⠀⠀⠀⠀⠀⠈⠛⠓⣿⣿⡟⠓⡿⢺⣭⣭⣉⢠⣶⠛⠉</text>
<text x="15" y="360" class="ascii-text">⠀⠀⠀⠀⠀⠀⠀⠀⠀⠀⠀⢀⣤⢶⣄⡀⠀⠙⢦⡀⠀⠀⣇⡀⠀⠀⠀⠀⠀⠀⠀⢀⣼⡟⢰⠁⠀⠑⢮⡞⠳⣽⡷⣌⣳⡄</text>
<text x="15" y="380" class="ascii-text">⠀⠀⠀⠀⠀⠀⠀⠀⠀⠀⠀⡾⢁⠞⣩⢧⡀⠀⢀⣿⢶⣟⠻⢿⣷⡦⢤⣤⣀⣀⡴⠟⡾⣀⡎⠀⠀⠀⠀⢱⣄⡜⣷⠈⠛⠁</text>
<text x="15" y="400" class="ascii-text">⠀⠀⠀⠀⠀⠀⠀⠀⠀⠀⢸⣇⠀⠘⠁⣼⡃⠀⣾⢭⣆⠱⡹⣌⢻⣷⡀⠀⠀⠀⣠⣤⡷⠻⡇⠀⠀⠀⠀⣼⠉⠉⠉⠀⠀⠀</text>
<text x="15" y="420" class="ascii-text">⠀⠀⠀⠀⠀⠀⠀⠀⠀⠀⠀⠙⠳⢤⣄⣀⣻⣄⡇⠀⡟⢹⠿⣿⠢⡹⣿⡛⠛⠛⠛⠉⠀⠀⣿⠒⣦⡔⠐⣯⠀⠀⠀⠀⠀⠀</text>
<text x="15" y="440" class="ascii-text">⠀⠀⠀⠀⠀⠀⠀⠀⠀⠀⠀⠀⠀⠀⠀⢹⡯⢿⡇⠀⢻⠈⠣⣹⣆⠑⡜⣷⡀⠀⠀⠀⠀⢀⡇⠀⣸⣇⠀⢹⡀⠀⠀⠀⠀⠀</text>


    <!-- Top Right: Header -->
    <text x="520" y="50" class="title">Divyansh Joshi</text>
    <text x="520" y="80" class="subtitle">AI Engineer • Full Stack Developer • Linux Enthusiast</text>
    <line x1="520" y1="100" x2="1170" y2="100"/>

    <!-- Section 1: Basic Info & Languages -->
    <text x="520" y="130" class="label">🐧 OS</text><text x="630" y="130" class="value">: Fedora Linux</text>
    <text x="520" y="155" class="label">🐚 Shell</text><text x="630" y="155" class="value">: zsh</text>
    <text x="520" y="180" class="label">💻 Editor</text><text x="630" y="180" class="value">: VS Code, Neovim</text>
    <text x="520" y="205" class="label">📍 Location</text><text x="630" y="205" class="value">: India 🇮🇳</text>
    <text x="520" y="230" class="label">🎓 Education</text><text x="630" y="230" class="value">: B.Tech CS @ VIT</text>
    <text x="520" y="255" class="label">🚀 Status</text><text x="630" y="255" class="value">: Building • Learning • Sharing</text>
    
    <!-- Languages -->
    <text x="880" y="130" class="section-title" fill="#f97316">&lt;/&gt; Languages</text>
    <text x="880" y="155" class="value">• Python</text>
    <text x="880" y="180" class="value">• C++</text>
    <text x="880" y="205" class="value">• JavaScript</text>
    <text x="880" y="230" class="value">• SQL</text>
    <text x="880" y="255" class="value">• Bash</text>

    <line x1="520" y1="275" x2="1170" y2="275"/>

    <!-- Section 2: Tech Stack & Interests -->
    <text x="520" y="300" class="section-title" fill="#3b82f6">🚀 Tech Stack</text>
    <text x="520" y="325" class="label">Frontend</text><text x="620" y="325" class="value">: React, HTML, CSS, Tailwind</text>
    <text x="520" y="350" class="label">Backend</text><text x="620" y="350" class="value">: FastAPI, Node.js</text>
    <text x="520" y="375" class="label">AI / ML</text><text x="620" y="375" class="value">: LangChain, LangGraph, OpenAI</text>
    <text x="520" y="400" class="label">Database</text><text x="620" y="400" class="value">: PostgreSQL, MongoDB, SQLite</text>
    <text x="520" y="425" class="label">Hardware</text><text x="620" y="425" class="value">: ESP32 Embedded Systems</text>
    <text x="520" y="450" class="label">DevOps</text><text x="620" y="450" class="value">: Docker, Linux, Proxmox, ZFS</text>

    <!-- Interests -->
    <text x="880" y="300" class="section-title" fill="#eab308">⭐ Interests</text>
    <text x="880" y="325" class="value">• AI Agents &amp; LLMs</text>
    <text x="880" y="350" class="value">• Zero-trust Networking</text>
    <text x="880" y="375" class="value">• DevOps &amp; Automation</text>
    <text x="880" y="400" class="value">• Open Source</text>
    <text x="880" y="425" class="value">• Linux &amp; System Tuning</text>
    <text x="880" y="450" class="value">• Highly Available Systems</text>

    <line x1="520" y1="475" x2="1170" y2="475"/>

    <!-- Section 3: Exploring & Hobbies -->
    <text x="520" y="500" class="section-title" fill="#ec4899">💡 Currently Exploring</text>
    <text x="520" y="525" class="value">Agentic AI • RAG • Kubernetes</text>
    <text x="520" y="550" class="value">System Architecture • Performance Tuning</text>

    <text x="880" y="500" class="section-title" fill="#a855f7">🎵 Hobbies</text>
    <text x="880" y="525" class="value">🎮 Gaming      🎧 Music</text>
    <text x="880" y="550" class="value">✈️ Travel      📚 Books</text>

    <line x1="20" y1="575" x2="1170" y2="575" stroke-dasharray="0"/>

    <!-- Bottom Section: Stats & Connect -->
    <text x="30" y="605" class="section-title" fill="#22c55e">💚 GitHub Stats</text>
    
    <!-- Repos -->
    <rect x="30" y="615" width="125" height="50" fill="#18181b" rx="6" stroke="#27272a" stroke-width="1"/>
    <text x="40" y="632" class="box-title">📦 Repositories</text>
    <text x="40" y="655" class="box-val" fill="#22c55e">53</text>
    <text x="95" y="655" class="box-sub">Public Repos</text>
    
    <!-- Commits -->
    <rect x="170" y="615" width="125" height="50" fill="#18181b" rx="6" stroke="#27272a" stroke-width="1"/>
    <text x="180" y="632" class="box-title">🔄 Commits</text>
    <text x="180" y="655" class="box-val" fill="#3b82f6">606</text>
    <text x="240" y="655" class="box-sub">Last Year</text>
    
    <!-- Stars -->
    <rect x="310" y="615" width="125" height="50" fill="#18181b" rx="6" stroke="#27272a" stroke-width="1"/>
    <text x="320" y="632" class="box-title">⭐ Stars</text>
    <text x="320" y="655" class="box-val" fill="#eab308">5</text>
    <text x="375" y="655" class="box-sub">Total Stars</text>
    
    <!-- Followers -->
    <rect x="450" y="615" width="125" height="50" fill="#18181b" rx="6" stroke="#27272a" stroke-width="1"/>
    <text x="460" y="632" class="box-title">👥 Followers</text>
    <text x="460" y="655" class="box-val" fill="#ec4899">2</text>
    <text x="505" y="655" class="box-sub">Total Followers</text>
    
    <!-- PRs -->
    <rect x="590" y="615" width="170" height="50" fill="#18181b" rx="6" stroke="#27272a" stroke-width="1"/>
    <text x="600" y="632" class="box-title">🚀 Pull Requests</text>
    <text x="600" y="655" class="box-val" fill="#f97316">0</text>
    <text x="650" y="655" class="box-sub">Total PRs</text>
    
    <!-- Connect -->
    <text x="790" y="605" class="section-title" fill="#2dd4bf">🤝 Let's Connect</text>
    <text x="790" y="630" class="label">✉️ Email</text><text x="875" y="630" class="value">: divyanshjoshidev@gmail.com</text>
    <text x="790" y="650" class="label">🔗 GitHub</text><text x="875" y="650" class="value">: github.com/oldregime</text>
</svg>
