<!-- Generated by readme-aura https://github.com/collectioneur/readme-aura -->
<svg width="850" height="220" viewBox="0 0 850 220" xmlns="http://www.w3.org/2000/svg"><defs><clipPath id="satori_bc-id"><path x="0" y="0" width="850" height="220" d="M16,0 h818 a16,16 0 0 1 16,16 v188 a16,16 0 0 1 -16,16 h-818 a16,16 0 0 1 -16,-16 v-188 a16,16 0 0 1 16,-16"/></clipPath></defs><mask id="satori_om-id"><rect x="1" y="1" width="848" height="218" fill="#fff"/><path width="850" height="220" fill="none" stroke="#000" stroke-width="2" d="M4.686,4.686 A16,16 0 0 1 16,0 h818 a16,16 0 0 1 16,16 v188 a16,16 0 0 1 -16,16 h-818 a16,16 0 0 1 -16,-16 v-188 A16,16 0 0 1 4.686,4.686"/></mask><path x="0" y="0" width="850" height="220" fill="#05070f" d="M16,0 h818 a16,16 0 0 1 16,16 v188 a16,16 0 0 1 -16,16 h-818 a16,16 0 0 1 -16,-16 v-188 a16,16 0 0 1 16,-16"/><path width="850" height="220" clip-path="url(#satori_bc-id)" fill="none" stroke="#00f0ff" stroke-width="2" d="M4.686,4.686 A16,16 0 0 1 16,0 h818 a16,16 0 0 1 16,16 v188 a16,16 0 0 1 -16,16 h-818 a16,16 0 0 1 -16,-16 v-188 A16,16 0 0 1 4.686,4.686"/><defs><clipPath id="satori_bc-id-0"><rect x="25" y="31" width="360" height="158"/></clipPath></defs><mask id="satori_om-id-0"><rect x="25" y="31" width="359" height="158" fill="#fff"/><path width="360" height="158" fill="none" stroke="#000" stroke-width="2" d="M385,31 A0,0 0 0 1 385,31 v158 A0,0 0 0 1 385,189"/></mask><path width="360" height="158" clip-path="url(#satori_bc-id-0)" fill="none" stroke="rgba(0,240,255,0.15)" stroke-width="2" d="M385,31 A0,0 0 0 1 385,31 v158 A0,0 0 0 1 385,189"/><mask id="satori_om-id-0-0"><rect x="25" y="31" width="335" height="16" fill="#fff"/></mask><g  ><path fill="#00f0ff" d="M32.8 39.4L32.8 41.0L26.3 43.9L26.3 42.1L30.7 40.3L30.7 40.2L26.3 38.4L26.3 36.6L32.8 39.4Z M40.6 44L38.7 44L38.7 36.9L40.5 36.9L40.6 38.3Q40.7 37.9 40.9 37.6L40.9 37.6Q41.2 37.2 41.7 37.0Q42.1 36.8 42.6 36.8L42.6 36.8Q43.3 36.8 43.8 37.3L43.8 37.3Q44.2 37.7 44.4 38.4L44.4 38.4Q44.6 38.0 44.8 37.7L44.8 37.7Q45.2 37.2 45.7 37.0Q46.1 36.8 46.7 36.8L46.7 36.8Q47.3 36.8 47.9 37.1Q48.4 37.4 48.7 37.9Q49.0 38.4 49.0 39.2L49.0 39.2L49.0 44L47.0 44L47.0 39.6Q47.0 39.0 46.7 38.7Q46.4 38.4 45.9 38.4L45.9 38.4Q45.6 38.4 45.3 38.5Q45.0 38.7 44.9 39.0Q44.8 39.3 44.8 39.6L44.8 39.6L44.8 44L42.9 44L42.9 39.5Q42.9 39.0 42.6 38.7Q42.3 38.4 41.8 38.4L41.8 38.4Q41.5 38.4 41.2 38.5Q40.9 38.7 40.8 39.0Q40.6 39.3 40.6 39.7L40.6 39.7L40.6 44ZM54.3 44.1L54.3 44.1Q53.2 44.1 52.4 43.7Q51.6 43.2 51.2 42.4Q50.8 41.6 50.8 40.5L50.8 40.5Q50.8 39.4 51.2 38.6Q51.6 37.7 52.4 37.3Q53.2 36.8 54.3 36.8L54.3 36.8Q55.3 36.8 56.1 37.3Q56.9 37.7 57.3 38.6Q57.7 39.4 57.7 40.5L57.7 40.5Q57.7 41.6 57.3 42.4Q56.9 43.2 56.1 43.7Q55.3 44.1 54.3 44.1ZM54.3 42.6L54.3 42.6Q54.8 42.6 55.1 42.4Q55.4 42.1 55.6 41.6Q55.8 41.1 55.8 40.5L55.8 40.5Q55.8 39.8 55.6 39.4Q55.4 38.9 55.1 38.6Q54.8 38.3 54.3 38.3L54.3 38.3Q53.7 38.3 53.4 38.6Q53.1 38.9 52.9 39.4Q52.7 39.8 52.7 40.5L52.7 40.5Q52.7 41.1 52.9 41.6Q53.1 42.1 53.4 42.4Q53.7 42.6 54.3 42.6ZM61.5 39.9L61.5 39.9L61.5 44L59.6 44L59.6 36.9L61.3 36.9L61.4 38.4Q61.6 37.7 62.1 37.3L62.1 37.3Q62.7 36.8 63.6 36.8L63.6 36.8Q64.3 36.8 64.9 37.1Q65.4 37.5 65.7 38.1Q66.0 38.7 66.0 39.5L66.0 39.5L66.0 44L64.1 44L64.1 39.8Q64.1 39.2 63.8 38.8Q63.4 38.4 62.8 38.4L62.8 38.4Q62.4 38.4 62.1 38.6Q61.8 38.8 61.6 39.1Q61.5 39.4 61.5 39.9ZM70.0 44L68.1 44L68.1 36.9L70.0 36.9L70.0 44ZM69.1 36.0L69.1 36.0Q68.7 36.0 68.4 35.7Q68.1 35.4 68.1 35.0L68.1 35.0Q68.1 34.6 68.4 34.3Q68.7 34.0 69.1 34.0L69.1 34.0Q69.5 34.0 69.8 34.3Q70.1 34.6 70.1 35.0L70.1 35.0Q70.1 35.4 69.8 35.7Q69.5 36.0 69.1 36.0ZM74.4 36.9L75.7 36.9L75.7 38.4L74.4 38.4L74.4 41.9Q74.4 42.3 74.5 42.4Q74.7 42.6 75.0 42.6L75.0 42.6Q75.1 42.6 75.3 42.6Q75.5 42.5 75.6 42.5L75.6 42.5L75.9 43.9Q75.6 44.0 75.3 44.1Q74.9 44.1 74.7 44.1L74.7 44.1Q73.6 44.1 73.0 43.6Q72.5 43.1 72.5 42.1L72.5 42.1L72.5 38.4L71.5 38.4L71.5 36.9L72.5 36.9L72.5 35.2L74.4 35.2L74.4 36.9ZM80.6 44.1L80.6 44.1Q79.5 44.1 78.8 43.7Q78.0 43.2 77.6 42.4Q77.1 41.6 77.1 40.5L77.1 40.5Q77.1 39.4 77.6 38.6Q78.0 37.7 78.8 37.3Q79.5 36.8 80.6 36.8L80.6 36.8Q81.7 36.8 82.5 37.3Q83.2 37.7 83.7 38.6Q84.1 39.4 84.1 40.5L84.1 40.5Q84.1 41.6 83.7 42.4Q83.2 43.2 82.5 43.7Q81.7 44.1 80.6 44.1ZM80.6 42.6L80.6 42.6Q81.1 42.6 81.5 42.4Q81.8 42.1 82.0 41.6Q82.1 41.1 82.1 40.5L82.1 40.5Q82.1 39.8 82.0 39.4Q81.8 38.9 81.5 38.6Q81.1 38.3 80.6 38.3L80.6 38.3Q80.1 38.3 79.8 38.6Q79.4 38.9 79.2 39.4Q79.1 39.8 79.1 40.5L79.1 40.5Q79.1 41.1 79.2 41.6Q79.4 42.1 79.8 42.4Q80.1 42.6 80.6 42.6ZM87.8 44L85.9 44L85.9 36.9L87.7 36.9L87.7 38.1L87.8 38.1Q88.0 37.5 88.5 37.1Q88.9 36.8 89.5 36.8L89.5 36.8Q89.7 36.8 89.8 36.8Q90.0 36.8 90.1 36.9L90.1 36.9L90.1 38.6Q90.0 38.5 89.8 38.5Q89.5 38.5 89.3 38.5L89.3 38.5Q88.9 38.5 88.5 38.7Q88.2 38.9 88.0 39.2Q87.8 39.5 87.8 40.0L87.8 40.0L87.8 44Z M95.3 39.3L99.7 39.3L99.7 40.9L95.3 40.9L95.3 39.3ZM101.9 39.3L106.2 39.3L106.2 40.9L101.9 40.9L101.9 39.3ZM110.6 36.9L112.0 36.9L112.0 38.4L110.6 38.4L110.6 41.9Q110.6 42.3 110.8 42.4Q110.9 42.6 111.3 42.6L111.3 42.6Q111.4 42.6 111.6 42.6Q111.8 42.5 111.9 42.5L111.9 42.5L112.2 43.9Q111.8 44.0 111.5 44.1Q111.2 44.1 110.9 44.1L110.9 44.1Q109.9 44.1 109.3 43.6Q108.7 43.1 108.7 42.1L108.7 42.1L108.7 38.4L107.7 38.4L107.7 36.9L108.7 36.9L108.7 35.2L110.6 35.2L110.6 36.9ZM116.9 44.1L116.9 44.1Q115.8 44.1 115.0 43.7Q114.2 43.3 113.8 42.4Q113.4 41.6 113.4 40.5L113.4 40.5Q113.4 39.4 113.8 38.6Q114.2 37.7 115.0 37.3Q115.8 36.8 116.8 36.8L116.8 36.8Q117.5 36.8 118.1 37.0Q118.7 37.3 119.2 37.7Q119.6 38.2 119.9 38.8Q120.1 39.5 120.1 40.4L120.1 40.4L120.1 40.9L115.3 40.9Q115.3 41.5 115.5 41.9L115.5 41.9Q115.7 42.3 116.1 42.5Q116.4 42.7 116.9 42.7L116.9 42.7Q117.3 42.7 117.5 42.6Q117.8 42.5 118.0 42.3Q118.2 42.1 118.3 41.9L118.3 41.9L120.0 42.2Q119.9 42.8 119.4 43.2Q119.0 43.7 118.4 43.9Q117.7 44.1 116.9 44.1ZM115.3 39.8L115.3 39.8L118.3 39.8Q118.3 39.4 118.2 39.1L118.2 39.1Q118.0 38.7 117.6 38.5Q117.3 38.2 116.8 38.2L116.8 38.2Q116.3 38.2 116.0 38.5Q115.6 38.7 115.5 39.1L115.5 39.1Q115.3 39.4 115.3 39.8ZM121.9 34.5L123.8 34.5L123.8 44L121.9 44L121.9 34.5ZM129.2 44.1L129.2 44.1Q128.1 44.1 127.3 43.7Q126.5 43.3 126.1 42.4Q125.7 41.6 125.7 40.5L125.7 40.5Q125.7 39.4 126.1 38.6Q126.5 37.7 127.3 37.3Q128.0 36.8 129.1 36.8L129.1 36.8Q129.8 36.8 130.4 37.0Q131.0 37.3 131.4 37.7Q131.9 38.2 132.1 38.8Q132.4 39.5 132.4 40.4L132.4 40.4L132.4 40.9L127.5 40.9Q127.6 41.5 127.8 41.9L127.8 41.9Q128.0 42.3 128.3 42.5Q128.7 42.7 129.2 42.7L129.2 42.7Q129.5 42.7 129.8 42.6Q130.1 42.5 130.3 42.3Q130.5 42.1 130.6 41.9L130.6 41.9L132.3 42.2Q132.1 42.8 131.7 43.2Q131.3 43.7 130.6 43.9Q130 44.1 129.2 44.1ZM127.6 39.8L127.6 39.8L130.6 39.8Q130.5 39.4 130.4 39.1L130.4 39.1Q130.2 38.7 129.9 38.5Q129.6 38.2 129.1 38.2L129.1 38.2Q128.6 38.2 128.3 38.5Q127.9 38.7 127.7 39.1L127.7 39.1Q127.6 39.4 127.6 39.8ZM136.1 44L134.2 44L134.2 36.9L136.0 36.9L136.0 38.3Q136.2 37.9 136.4 37.6L136.4 37.6Q136.7 37.2 137.2 37.0Q137.6 36.8 138.1 36.8L138.1 36.8Q138.8 36.8 139.3 37.3L139.3 37.3Q139.7 37.7 139.9 38.4L139.9 38.4Q140.1 38.0 140.3 37.7L140.3 37.7Q140.7 37.2 141.1 37.0Q141.6 36.8 142.2 36.8L142.2 36.8Q142.8 36.8 143.3 37.1Q143.9 37.4 144.2 37.9Q144.4 38.4 144.4 39.2L144.4 39.2L144.4 44L142.5 44L142.5 39.6Q142.5 39.0 142.2 38.7Q141.9 38.4 141.4 38.4L141.4 38.4Q141.1 38.4 140.8 38.5Q140.5 38.7 140.4 39.0Q140.2 39.3 140.2 39.6L140.2 39.6L140.2 44L138.4 44L138.4 39.5Q138.4 39.0 138.1 38.7Q137.8 38.4 137.3 38.4L137.3 38.4Q137.0 38.4 136.7 38.5Q136.4 38.7 136.3 39.0Q136.1 39.3 136.1 39.7L136.1 39.7L136.1 44ZM149.8 44.1L149.8 44.1Q148.7 44.1 147.9 43.7Q147.1 43.3 146.7 42.4Q146.3 41.6 146.3 40.5L146.3 40.5Q146.3 39.4 146.7 38.6Q147.1 37.7 147.9 37.3Q148.6 36.8 149.7 36.8L149.7 36.8Q150.4 36.8 151.0 37.0Q151.6 37.3 152.0 37.7Q152.5 38.2 152.8 38.8Q153.0 39.5 153.0 40.4L153.0 40.4L153.0 40.9L148.2 40.9Q148.2 41.5 148.4 41.9L148.4 41.9Q148.6 42.3 148.9 42.5Q149.3 42.7 149.8 42.7L149.8 42.7Q150.1 42.7 150.4 42.6Q150.7 42.5 150.9 42.3Q151.1 42.1 151.2 41.9L151.2 41.9L152.9 42.2Q152.7 42.8 152.3 43.2Q151.9 43.7 151.2 43.9Q150.6 44.1 149.8 44.1ZM148.2 39.8L148.2 39.8L151.2 39.8Q151.1 39.4 151.0 39.1L151.0 39.1Q150.9 38.7 150.5 38.5Q150.2 38.2 149.7 38.2L149.7 38.2Q149.2 38.2 148.9 38.5Q148.5 38.7 148.3 39.1L148.3 39.1Q148.2 39.4 148.2 39.8ZM157.0 36.9L158.3 36.9L158.3 38.4L157.0 38.4L157.0 41.9Q157.0 42.3 157.2 42.4Q157.3 42.6 157.7 42.6L157.7 42.6Q157.8 42.6 158.0 42.6Q158.2 42.5 158.3 42.5L158.3 42.5L158.5 43.9Q158.2 44.0 157.9 44.1Q157.6 44.1 157.3 44.1L157.3 44.1Q156.2 44.1 155.7 43.6Q155.1 43.1 155.1 42.1L155.1 42.1L155.1 38.4L154.1 38.4L154.1 36.9L155.1 36.9L155.1 35.2L157.0 35.2L157.0 36.9ZM162.0 44L160.1 44L160.1 36.9L161.9 36.9L161.9 38.1L162.0 38.1Q162.2 37.5 162.6 37.1Q163.1 36.8 163.7 36.8L163.7 36.8Q163.9 36.8 164.0 36.8Q164.2 36.8 164.3 36.9L164.3 36.9L164.3 38.6Q164.2 38.5 164.0 38.5Q163.7 38.5 163.5 38.5L163.5 38.5Q163.1 38.5 162.7 38.7Q162.4 38.9 162.2 39.2Q162.0 39.5 162.0 40.0L162.0 40.0L162.0 44ZM165.8 46.5L165.8 46.5L166.3 45.1L166.5 45.1Q166.9 45.2 167.2 45.2Q167.5 45.1 167.7 45.0Q167.8 44.8 167.9 44.4L167.9 44.4L167.9 44.0L165.3 36.9L167.3 36.9L168.5 40.6Q168.7 41.3 168.8 42.0L168.8 42.0Q168.9 42.2 168.9 42.5L168.9 42.5Q169.0 42.2 169.0 42.0L169.0 42.0Q169.2 41.3 169.4 40.6L169.4 40.6L170.7 36.9L172.7 36.9L169.7 44.8Q169.4 45.4 169.1 45.8Q168.8 46.2 168.3 46.5Q167.8 46.7 167.1 46.7L167.1 46.7Q166.7 46.7 166.4 46.7Q166.0 46.6 165.8 46.5Z "/></g><mask id="satori_om-id-0-1"><rect x="25" y="63" width="335" height="126" fill="#fff"/></mask><mask id="satori_om-id-0-1-0"><rect x="25" y="63" width="335" height="58" fill="#fff"/></mask><defs><clipPath id="satori_bc-id-0-1-0-0"><path x="25" y="63" width="163" height="58" d="M31,63 h151 a6,6 0 0 1 6,6 v46 a6,6 0 0 1 -6,6 h-151 a6,6 0 0 1 -6,-6 v-46 a6,6 0 0 1 6,-6"/></clipPath></defs><mask id="satori_om-id-0-1-0-0"><rect x="26" y="64" width="161" height="56" fill="#fff"/><path width="163" height="58" fill="none" stroke="#000" stroke-width="2" d="M26.756999999999998,64.757 A6,6 0 0 1 31,63 h151 a6,6 0 0 1 6,6 v46 a6,6 0 0 1 -6,6 h-151 a6,6 0 0 1 -6,-6 v-46 A6,6 0 0 1 26.756999999999998,64.757"/></mask><path x="25" y="63" width="163" height="58" fill="rgba(0,240,255,0.01)" d="M31,63 h151 a6,6 0 0 1 6,6 v46 a6,6 0 0 1 -6,6 h-151 a6,6 0 0 1 -6,-6 v-46 a6,6 0 0 1 6,-6"/><path width="163" height="58" clip-path="url(#satori_bc-id-0-1-0-0)" fill="none" stroke="rgba(0,240,255,0.08)" stroke-width="2" d="M26.756999999999998,64.757 A6,6 0 0 1 31,63 h151 a6,6 0 0 1 6,6 v46 a6,6 0 0 1 -6,6 h-151 a6,6 0 0 1 -6,-6 v-46 A6,6 0 0 1 26.756999999999998,64.757"/><mask id="satori_om-id-0-1-0-0-0"><rect x="40" y="74" width="133" height="12" fill="#fff"/></mask><g  ><path fill="#94a3b8" d="M43.8 84.1L43.8 84.1Q42.9 84.1 42.1 83.7Q41.3 83.2 40.9 82.4Q40.5 81.5 40.5 80.4L40.5 80.4Q40.5 79.2 40.9 78.3Q41.3 77.5 42.1 77.1Q42.9 76.6 43.8 76.6L43.8 76.6Q44.5 76.6 45.0 76.8Q45.5 77.0 45.9 77.3Q46.4 77.6 46.6 78.1Q46.9 78.6 47.0 79.2L47.0 79.2L45.5 79.2Q45.4 78.9 45.3 78.7Q45.1 78.4 44.9 78.3Q44.7 78.1 44.4 78.0Q44.2 78.0 43.9 78.0L43.9 78.0Q43.3 78.0 42.9 78.2Q42.4 78.5 42.2 79.1Q42.0 79.6 42.0 80.4L42.0 80.4Q42.0 81.2 42.2 81.7Q42.5 82.2 42.9 82.5Q43.3 82.8 43.9 82.8L43.9 82.8Q44.2 82.8 44.4 82.7Q44.7 82.6 44.9 82.4Q45.1 82.3 45.3 82.0Q45.4 81.8 45.5 81.5L45.5 81.5L47.0 81.5Q46.9 82.0 46.7 82.5Q46.4 82.9 46.0 83.3Q45.6 83.7 45.1 83.9Q44.5 84.1 43.8 84.1ZM51.3 84.1L51.3 84.1Q50.3 84.1 49.5 83.7Q48.8 83.2 48.3 82.4Q47.9 81.5 47.9 80.4L47.9 80.4Q47.9 79.2 48.3 78.3Q48.8 77.5 49.5 77.1Q50.3 76.6 51.3 76.6L51.3 76.6Q52.2 76.6 53.0 77.1Q53.8 77.5 54.2 78.3Q54.6 79.2 54.6 80.4L54.6 80.4Q54.6 81.5 54.2 82.4Q53.8 83.2 53.0 83.7Q52.2 84.1 51.3 84.1ZM51.3 82.8L51.3 82.8Q51.8 82.8 52.2 82.5Q52.7 82.2 52.9 81.7Q53.1 81.1 53.1 80.4L53.1 80.4Q53.1 79.6 52.9 79.0Q52.7 78.5 52.2 78.2Q51.8 78.0 51.3 78.0L51.3 78.0Q50.7 78.0 50.3 78.2Q49.8 78.5 49.6 79.0Q49.4 79.6 49.4 80.4L49.4 80.4Q49.4 81.1 49.6 81.7Q49.8 82.2 50.3 82.5Q50.7 82.8 51.3 82.8ZM57.2 84L55.8 84L55.8 76.7L58.0 76.7L59.2 80.1Q59.3 80.3 59.4 80.7Q59.5 81.0 59.6 81.5L59.6 81.5Q59.7 81.9 59.8 82.3L59.8 82.3Q59.9 81.9 59.9 81.5L59.9 81.5Q60.0 81.1 60.1 80.7Q60.2 80.3 60.3 80.1L60.3 80.1L61.5 76.7L63.8 76.7L63.8 84L62.3 84L62.3 80.6Q62.3 80.3 62.3 80.0Q62.3 79.6 62.3 79.2Q62.3 78.8 62.3 78.4L62.3 78.4Q62.3 78.2 62.3 78.0L62.3 78.0Q62.3 78.2 62.2 78.4L62.2 78.4Q62.1 78.9 62.0 79.3Q61.9 79.7 61.8 80.0Q61.7 80.3 61.6 80.6L61.6 80.6L60.4 84L59.1 84L57.9 80.6Q57.8 80.3 57.7 80.0Q57.6 79.7 57.5 79.3Q57.4 78.9 57.3 78.4L57.3 78.4Q57.2 78.2 57.2 78.1L57.2 78.1Q57.2 78.2 57.2 78.4L57.2 78.4Q57.2 78.8 57.2 79.2Q57.2 79.6 57.2 80.0Q57.2 80.3 57.2 80.6L57.2 80.6L57.2 84ZM66.6 84L65.1 84L65.1 76.7L67.9 76.7Q68.7 76.7 69.3 77.0Q69.9 77.4 70.2 77.9Q70.5 78.5 70.5 79.2L70.5 79.2Q70.5 79.9 70.2 80.5Q69.9 81.0 69.3 81.3Q68.7 81.6 67.9 81.6L67.9 81.6L66.6 81.6L66.6 84ZM66.6 78.0L66.6 80.4L67.6 80.4Q68.1 80.4 68.4 80.3Q68.7 80.1 68.8 79.8Q69.0 79.5 69.0 79.2Q69.0 78.8 68.8 78.5Q68.7 78.3 68.4 78.1Q68.1 78.0 67.6 78.0L67.6 78.0L66.6 78.0ZM71.6 76.7L73.0 76.7L73.0 84L71.6 84L71.6 76.7ZM79.0 84L74.4 84L74.4 76.7L75.9 76.7L75.9 82.8L79.0 82.8L79.0 84ZM81.2 84L79.6 84L82.1 76.7L84.0 76.7L86.6 84L84.9 84L84.4 82.3L81.8 82.3L81.2 84ZM82.2 81.1L84.0 81.1L83.8 80.5Q83.6 79.8 83.3 79L83.3 79Q83.2 78.5 83.0 77.9L83.0 77.9Q82.9 78.5 82.8 79.0L82.8 79.0Q82.6 79.8 82.4 80.5L82.4 80.5L82.2 81.1ZM89.4 78.0L87.2 78.0L87.2 76.7L93.1 76.7L93.1 78.0L90.9 78.0L90.9 84L89.4 84L89.4 78.0ZM94.2 76.7L95.6 76.7L95.6 84L94.2 84L94.2 76.7ZM100.2 84.1L100.2 84.1Q99.2 84.1 98.4 83.7Q97.7 83.2 97.2 82.4Q96.8 81.5 96.8 80.4L96.8 80.4Q96.8 79.2 97.2 78.3Q97.7 77.5 98.4 77.1Q99.2 76.6 100.2 76.6L100.2 76.6Q101.1 76.6 101.9 77.1Q102.7 77.5 103.1 78.3Q103.6 79.2 103.6 80.4L103.6 80.4Q103.6 81.5 103.1 82.4Q102.7 83.2 101.9 83.7Q101.1 84.1 100.2 84.1ZM100.2 82.8L100.2 82.8Q100.7 82.8 101.1 82.5Q101.6 82.2 101.8 81.7Q102.0 81.1 102.0 80.4L102.0 80.4Q102.0 79.6 101.8 79.0Q101.6 78.5 101.1 78.2Q100.7 78.0 100.2 78.0L100.2 78.0Q99.6 78.0 99.2 78.2Q98.8 78.5 98.5 79.0Q98.3 79.6 98.3 80.4L98.3 80.4Q98.3 81.1 98.5 81.7Q98.8 82.2 99.2 82.5Q99.6 82.8 100.2 82.8ZM106.2 84L104.7 84L104.7 76.7L106.3 76.7L108.6 80.4Q108.8 80.7 109.0 81.0Q109.2 81.4 109.4 81.8L109.4 81.8Q109.5 82.0 109.5 82.2L109.5 82.2Q109.5 82.0 109.5 81.8L109.5 81.8Q109.5 81.3 109.5 80.9Q109.5 80.5 109.5 80.2L109.5 80.2L109.5 76.7L111.0 76.7L111.0 84L109.3 84L107.2 80.7Q107.0 80.3 106.8 79.9Q106.6 79.6 106.4 79.1L106.4 79.1Q106.3 78.9 106.1 78.6L106.1 78.6Q106.1 78.9 106.1 79.1L106.1 79.1Q106.2 79.6 106.2 80.0Q106.2 80.4 106.2 80.7L106.2 80.7L106.2 84ZM115.0 84.1L115.0 84.1Q114.1 84.1 113.4 83.8Q112.8 83.6 112.4 83.0Q112.1 82.5 112.1 81.7L112.1 81.7L113.5 81.7Q113.5 82.1 113.7 82.4Q113.9 82.6 114.2 82.7Q114.5 82.8 114.9 82.8L114.9 82.8Q115.3 82.8 115.6 82.7Q115.9 82.6 116.1 82.4Q116.3 82.2 116.3 81.9L116.3 81.9Q116.3 81.7 116.1 81.5Q116.0 81.3 115.7 81.2Q115.4 81.1 115.0 81.0L115.0 81.0L114.2 80.8Q113.3 80.6 112.8 80.1Q112.2 79.6 112.2 78.8L112.2 78.8Q112.2 78.2 112.6 77.7Q113.0 77.2 113.6 76.9Q114.2 76.6 115.0 76.6L115.0 76.6Q115.8 76.6 116.4 76.9Q117.0 77.2 117.3 77.7Q117.7 78.2 117.7 78.8L117.7 78.8L116.2 78.8Q116.2 78.4 115.9 78.1Q115.5 77.9 115.0 77.9L115.0 77.9Q114.6 77.9 114.3 78.0Q114.1 78.1 113.9 78.3Q113.8 78.5 113.8 78.7L113.8 78.7Q113.8 79.0 113.9 79.2Q114.1 79.3 114.4 79.5Q114.6 79.6 114.9 79.6L114.9 79.6L115.6 79.8Q116.1 79.9 116.5 80.1Q116.8 80.3 117.1 80.5Q117.4 80.8 117.6 81.1Q117.8 81.5 117.8 81.9L117.8 81.9Q117.8 82.6 117.4 83.1Q117.1 83.6 116.5 83.8Q115.8 84.1 115.0 84.1Z "/></g><mask id="satori_om-id-0-1-0-0-1"><rect x="40" y="88" width="133" height="22" fill="#fff"/></mask><g  ><path fill="#fff" d="M43.7 91.9L46.6 91.9L46.6 105L43.9 105L43.9 94.3L43.8 94.3L40.8 96.4L40.8 93.9L43.7 91.9ZM53.3 105.2L53.3 105.2Q51.9 105.2 50.9 104.7Q49.8 104.2 49.2 103.3Q48.6 102.4 48.6 101.3L48.6 101.3L51.2 101.3Q51.2 101.8 51.5 102.2Q51.8 102.6 52.3 102.8Q52.7 103.0 53.3 103.0L53.3 103.0Q53.9 103.0 54.4 102.8Q55.0 102.5 55.2 101.9Q55.5 101.4 55.5 100.7L55.5 100.7Q55.5 100.0 55.2 99.5Q54.9 98.9 54.4 98.6Q53.9 98.3 53.2 98.3L53.2 98.3Q52.6 98.3 52.1 98.6Q51.6 98.8 51.3 99.2L51.3 99.2L48.9 98.8L49.5 91.9L57.4 91.9L57.4 94.1L51.7 94.1L51.4 97.4L51.4 97.4Q51.8 97.0 52.5 96.7Q53.2 96.3 54.0 96.3L54.0 96.3Q54.9 96.3 55.7 96.7Q56.4 97.0 57.0 97.6Q57.5 98.1 57.8 98.9Q58.1 99.7 58.1 100.6L58.1 100.6Q58.1 102.0 57.5 103.0Q56.9 104.0 55.8 104.6Q54.7 105.2 53.3 105.2ZM66.1 102.7L59.8 102.7L59.8 100.6L65.3 91.9L68.7 91.9L68.7 100.5L70.3 100.5L70.3 102.7L68.7 102.7L68.7 105L66.1 105L66.1 102.7ZM62.6 100.5L66.2 100.5L66.2 94.9L66.1 94.9L62.6 100.4L62.6 100.5ZM75.5 105L72.7 105L78.1 94.2L78.1 94.1L71.8 94.1L71.8 91.9L80.9 91.9L80.9 94.2L75.5 105Z "/></g><defs><clipPath id="satori_bc-id-0-1-0-1"><path x="198" y="63" width="162" height="58" d="M204,63 h150 a6,6 0 0 1 6,6 v46 a6,6 0 0 1 -6,6 h-150 a6,6 0 0 1 -6,-6 v-46 a6,6 0 0 1 6,-6"/></clipPath></defs><mask id="satori_om-id-0-1-0-1"><rect x="199" y="64" width="160" height="56" fill="#fff"/><path width="162" height="58" fill="none" stroke="#000" stroke-width="2" d="M199.757,64.757 A6,6 0 0 1 204,63 h150 a6,6 0 0 1 6,6 v46 a6,6 0 0 1 -6,6 h-150 a6,6 0 0 1 -6,-6 v-46 A6,6 0 0 1 199.757,64.757"/></mask><path x="198" y="63" width="162" height="58" fill="rgba(0,240,255,0.01)" d="M204,63 h150 a6,6 0 0 1 6,6 v46 a6,6 0 0 1 -6,6 h-150 a6,6 0 0 1 -6,-6 v-46 a6,6 0 0 1 6,-6"/><path width="162" height="58" clip-path="url(#satori_bc-id-0-1-0-1)" fill="none" stroke="rgba(0,240,255,0.08)" stroke-width="2" d="M199.757,64.757 A6,6 0 0 1 204,63 h150 a6,6 0 0 1 6,6 v46 a6,6 0 0 1 -6,6 h-150 a6,6 0 0 1 -6,-6 v-46 A6,6 0 0 1 199.757,64.757"/><mask id="satori_om-id-0-1-0-1-0"><rect x="213" y="74" width="132" height="12" fill="#fff"/></mask><g  ><path fill="#94a3b8" d="M216.7 84.1L216.7 84.1Q215.8 84.1 215.1 83.8Q214.4 83.4 214.0 82.8Q213.7 82.2 213.7 81.4L213.7 81.4L213.7 76.7L215.1 76.7L215.1 81.3Q215.1 81.7 215.3 82.1Q215.5 82.4 215.9 82.6Q216.2 82.8 216.7 82.8L216.7 82.8Q217.1 82.8 217.5 82.6Q217.8 82.4 218.0 82.1Q218.2 81.7 218.2 81.3L218.2 81.3L218.2 76.7L219.7 76.7L219.7 81.4Q219.7 82.2 219.3 82.8Q218.9 83.4 218.2 83.8Q217.6 84.1 216.7 84.1ZM222.5 84L221.0 84L221.0 76.7L223.8 76.7Q224.6 76.7 225.2 77.0Q225.8 77.4 226.1 77.9Q226.4 78.5 226.4 79.2L226.4 79.2Q226.4 79.9 226.1 80.5Q225.8 81.0 225.2 81.3Q224.6 81.6 223.8 81.6L223.8 81.6L222.5 81.6L222.5 84ZM222.5 78.0L222.5 80.4L223.5 80.4Q224.0 80.4 224.3 80.3Q224.6 80.1 224.7 79.8Q224.9 79.5 224.9 79.2Q224.9 78.8 224.7 78.5Q224.6 78.3 224.3 78.1Q224.0 78.0 223.5 78.0L223.5 78.0L222.5 78.0ZM231.5 84L229.6 84L227.0 76.7L228.7 76.7L229.9 80.2Q230.1 80.9 230.3 81.7L230.3 81.7Q230.4 82.2 230.6 82.8L230.6 82.8Q230.7 82.2 230.9 81.7L230.9 81.7Q231.1 80.9 231.3 80.2L231.3 80.2L232.4 76.7L234.0 76.7L231.5 84ZM238.1 84.1L238.1 84.1Q237.2 84.1 236.4 83.7Q235.6 83.2 235.2 82.4Q234.7 81.5 234.7 80.4L234.7 80.4Q234.7 79.2 235.2 78.3Q235.6 77.5 236.4 77.1Q237.2 76.6 238.1 76.6L238.1 76.6Q239.1 76.6 239.9 77.1Q240.6 77.5 241.1 78.3Q241.5 79.2 241.5 80.4L241.5 80.4Q241.5 81.5 241.1 82.4Q240.6 83.2 239.9 83.7Q239.1 84.1 238.1 84.1ZM238.1 82.8L238.1 82.8Q238.7 82.8 239.1 82.5Q239.5 82.2 239.8 81.7Q240.0 81.1 240.0 80.4L240.0 80.4Q240.0 79.6 239.8 79.0Q239.5 78.5 239.1 78.2Q238.7 78.0 238.1 78.0L238.1 78.0Q237.6 78.0 237.1 78.2Q236.7 78.5 236.5 79.0Q236.2 79.6 236.2 80.4L236.2 80.4Q236.2 81.1 236.5 81.7Q236.7 82.2 237.1 82.5Q237.6 82.8 238.1 82.8ZM244.6 78.0L242.3 78.0L242.3 76.7L248.3 76.7L248.3 78.0L246.1 78.0L246.1 84L244.6 84L244.6 78.0ZM254.2 84L249.3 84L249.3 76.7L254.2 76.7L254.2 78.0L250.8 78.0L250.8 79.7L253.9 79.7L253.9 80.9L250.8 80.9L250.8 82.8L254.2 82.8L254.2 84ZM258.0 84.1L258.0 84.1Q257.2 84.1 256.5 83.8Q255.9 83.6 255.5 83.0Q255.2 82.5 255.1 81.7L255.1 81.7L256.6 81.7Q256.6 82.1 256.8 82.4Q257.0 82.6 257.3 82.7Q257.6 82.8 258.0 82.8L258.0 82.8Q258.4 82.8 258.7 82.7Q259.0 82.6 259.2 82.4Q259.4 82.2 259.4 81.9L259.4 81.9Q259.4 81.7 259.2 81.5Q259.1 81.3 258.8 81.2Q258.5 81.1 258.1 81.0L258.1 81.0L257.3 80.8Q256.4 80.6 255.9 80.1Q255.3 79.6 255.3 78.8L255.3 78.8Q255.3 78.2 255.7 77.7Q256.0 77.2 256.7 76.9Q257.3 76.6 258.1 76.6L258.1 76.6Q258.9 76.6 259.5 76.9Q260.1 77.2 260.4 77.7Q260.7 78.2 260.8 78.8L260.8 78.8L259.3 78.8Q259.3 78.4 258.9 78.1Q258.6 77.9 258.0 77.9L258.0 77.9Q257.7 77.9 257.4 78.0Q257.1 78.1 257.0 78.3Q256.9 78.5 256.9 78.7L256.9 78.7Q256.9 79.0 257.0 79.2Q257.2 79.3 257.4 79.5Q257.7 79.6 258.0 79.6L258.0 79.6L258.7 79.8Q259.1 79.9 259.5 80.1Q259.9 80.3 260.2 80.5Q260.5 80.8 260.7 81.1Q260.9 81.5 260.9 81.9L260.9 81.9Q260.9 82.6 260.5 83.1Q260.2 83.6 259.6 83.8Q258.9 84.1 258.0 84.1Z "/></g><mask id="satori_om-id-0-1-0-1-1"><rect x="213" y="88" width="132" height="22" fill="#fff"/></mask><g  ><path fill="#fbbf24" d="M216.7 91.9L219.6 91.9L219.6 105L216.9 105L216.9 94.3L216.8 94.3L213.8 96.4L213.8 93.9L216.7 91.9ZM231.1 105L221.9 105L221.9 103.1L226.5 98.7Q227.1 98.1 227.5 97.7Q227.9 97.2 228.1 96.7Q228.3 96.3 228.3 95.8L228.3 95.8Q228.3 95.2 228.1 94.8Q227.8 94.3 227.4 94.1Q226.9 93.9 226.3 93.9L226.3 93.9Q225.7 93.9 225.2 94.1Q224.8 94.4 224.5 94.8Q224.3 95.3 224.3 95.9L224.3 95.9L221.7 95.9Q221.7 94.6 222.3 93.7Q222.9 92.8 223.9 92.2Q225.0 91.7 226.3 91.7L226.3 91.7Q227.7 91.7 228.8 92.2Q229.8 92.7 230.4 93.6Q230.9 94.5 230.9 95.6L230.9 95.6Q230.9 96.3 230.7 97.0Q230.4 97.7 229.6 98.6Q228.9 99.5 227.6 100.7L227.6 100.7L225.6 102.7L225.6 102.8L231.1 102.8L231.1 105ZM238.0 105.2L238.0 105.2Q236.5 105.2 235.4 104.7Q234.2 104.2 233.6 103.4Q232.9 102.5 232.9 101.5L232.9 101.5Q232.9 100.7 233.3 100.0Q233.7 99.3 234.3 98.8Q234.9 98.4 235.7 98.2L235.7 98.2L235.7 98.2Q234.7 97.9 234.0 97.1Q233.4 96.3 233.4 95.2L233.4 95.2Q233.4 94.2 234.0 93.4Q234.6 92.6 235.6 92.2Q236.6 91.7 238.0 91.7L238.0 91.7Q239.3 91.7 240.3 92.2Q241.3 92.6 241.9 93.4Q242.5 94.2 242.5 95.2L242.5 95.2Q242.5 96.3 241.9 97.1Q241.2 97.9 240.2 98.2L240.2 98.2L240.2 98.2Q241.0 98.4 241.6 98.8Q242.2 99.3 242.6 100.0Q243.0 100.7 243.0 101.5L243.0 101.5Q243.0 102.5 242.3 103.4Q241.7 104.2 240.6 104.7Q239.4 105.2 238.0 105.2ZM238.0 103.2L238.0 103.2Q238.6 103.2 239.1 102.9Q239.6 102.7 239.9 102.3Q240.2 101.8 240.2 101.3L240.2 101.3Q240.2 100.7 239.9 100.2Q239.6 99.8 239.1 99.5Q238.6 99.3 238.0 99.3L238.0 99.3Q237.3 99.3 236.8 99.5Q236.3 99.8 236.0 100.2Q235.7 100.7 235.7 101.3L235.7 101.3Q235.7 101.8 236.0 102.3Q236.3 102.7 236.8 102.9Q237.3 103.2 238.0 103.2ZM238.0 97.3L238.0 97.3Q238.5 97.3 238.9 97.1Q239.4 96.9 239.6 96.5Q239.9 96.1 239.9 95.5L239.9 95.5Q239.9 95.0 239.6 94.6Q239.4 94.2 239.0 94.0Q238.5 93.8 238.0 93.8L238.0 93.8Q237.4 93.8 236.9 94.0Q236.5 94.2 236.3 94.6Q236.0 95.0 236.0 95.5L236.0 95.5Q236.0 96.1 236.3 96.5Q236.5 96.9 237.0 97.1Q237.4 97.3 238.0 97.3Z "/></g><mask id="satori_om-id-0-1-1"><rect x="25" y="131" width="335" height="58" fill="#fff"/></mask><defs><clipPath id="satori_bc-id-0-1-1-0"><path x="25" y="131" width="163" height="58" d="M31,131 h151 a6,6 0 0 1 6,6 v46 a6,6 0 0 1 -6,6 h-151 a6,6 0 0 1 -6,-6 v-46 a6,6 0 0 1 6,-6"/></clipPath></defs><mask id="satori_om-id-0-1-1-0"><rect x="26" y="132" width="161" height="56" fill="#fff"/><path width="163" height="58" fill="none" stroke="#000" stroke-width="2" d="M26.756999999999998,132.757 A6,6 0 0 1 31,131 h151 a6,6 0 0 1 6,6 v46 a6,6 0 0 1 -6,6 h-151 a6,6 0 0 1 -6,-6 v-46 A6,6 0 0 1 26.756999999999998,132.757"/></mask><path x="25" y="131" width="163" height="58" fill="rgba(0,240,255,0.01)" d="M31,131 h151 a6,6 0 0 1 6,6 v46 a6,6 0 0 1 -6,6 h-151 a6,6 0 0 1 -6,-6 v-46 a6,6 0 0 1 6,-6"/><path width="163" height="58" clip-path="url(#satori_bc-id-0-1-1-0)" fill="none" stroke="rgba(0,240,255,0.08)" stroke-width="2" d="M26.756999999999998,132.757 A6,6 0 0 1 31,131 h151 a6,6 0 0 1 6,6 v46 a6,6 0 0 1 -6,6 h-151 a6,6 0 0 1 -6,-6 v-46 A6,6 0 0 1 26.756999999999998,132.757"/><mask id="satori_om-id-0-1-1-0-0"><rect x="40" y="142" width="133" height="12" fill="#fff"/></mask><g  ><path fill="#94a3b8" d="M42.1 152L40.7 152L40.7 144.7L45.4 144.7L45.4 146.0L42.1 146.0L42.1 148.0L45.1 148.0L45.1 149.2L42.1 149.2L42.1 152ZM49.7 152.1L49.7 152.1Q48.8 152.1 48.0 151.7Q47.2 151.2 46.8 150.4Q46.3 149.5 46.3 148.4L46.3 148.4Q46.3 147.2 46.8 146.3Q47.2 145.5 48.0 145.1Q48.8 144.6 49.7 144.6L49.7 144.6Q50.7 144.6 51.5 145.1Q52.2 145.5 52.7 146.3Q53.1 147.2 53.1 148.4L53.1 148.4Q53.1 149.5 52.7 150.4Q52.2 151.2 51.5 151.7Q50.7 152.1 49.7 152.1ZM49.7 150.8L49.7 150.8Q50.3 150.8 50.7 150.5Q51.1 150.2 51.4 149.7Q51.6 149.1 51.6 148.4L51.6 148.4Q51.6 147.6 51.4 147.0Q51.1 146.5 50.7 146.2Q50.3 146.0 49.7 146.0L49.7 146.0Q49.2 146.0 48.7 146.2Q48.3 146.5 48.1 147.0Q47.8 147.6 47.8 148.4L47.8 148.4Q47.8 149.1 48.1 149.7Q48.3 150.2 48.7 150.5Q49.2 150.8 49.7 150.8ZM55.7 152L54.2 152L54.2 144.7L57.1 144.7Q57.9 144.7 58.5 145.0Q59.1 145.3 59.4 145.8Q59.7 146.4 59.7 147.1Q59.7 147.8 59.4 148.3Q59.1 148.9 58.5 149.1L58.5 149.1Q58.4 149.1 58.4 149.2L58.4 149.2L59.9 152L58.3 152L56.9 149.4L55.7 149.4L55.7 152ZM55.7 146.0L55.7 148.2L56.8 148.2Q57.3 148.2 57.5 148.1Q57.8 147.9 58.0 147.7Q58.1 147.5 58.1 147.1L58.1 147.1Q58.1 146.7 58.0 146.5Q57.8 146.2 57.5 146.1Q57.3 146.0 56.8 146.0L56.8 146.0L55.7 146.0ZM62.3 152L60.8 152L60.8 144.7L62.3 144.7L62.3 146.7L62.3 148.4Q62.3 148.3 62.3 148.3L62.3 148.3Q62.6 147.9 62.8 147.6Q63.1 147.2 63.4 146.8L63.4 146.8L65.2 144.7L67.0 144.7L64.3 147.9L67.1 152L65.3 152L63.3 148.9L62.3 149.9L62.3 152ZM70.7 152.1L70.7 152.1Q69.8 152.1 69.1 151.8Q68.5 151.6 68.1 151.0Q67.8 150.5 67.7 149.7L67.7 149.7L69.2 149.7Q69.2 150.1 69.4 150.4Q69.6 150.6 69.9 150.7Q70.2 150.8 70.6 150.8L70.6 150.8Q71.0 150.8 71.3 150.7Q71.6 150.6 71.8 150.4Q72.0 150.2 72.0 149.9L72.0 149.9Q72.0 149.7 71.8 149.5Q71.7 149.3 71.4 149.2Q71.1 149.1 70.7 149.0L70.7 149.0L69.9 148.8Q69.0 148.6 68.5 148.1Q67.9 147.6 67.9 146.8L67.9 146.8Q67.9 146.2 68.3 145.7Q68.7 145.2 69.3 144.9Q69.9 144.6 70.7 144.6L70.7 144.6Q71.5 144.6 72.1 144.9Q72.7 145.2 73.0 145.7Q73.4 146.2 73.4 146.8L73.4 146.8L71.9 146.8Q71.9 146.4 71.6 146.1Q71.2 145.9 70.7 145.9L70.7 145.9Q70.3 145.9 70.0 146.0Q69.8 146.1 69.6 146.3Q69.5 146.5 69.5 146.7L69.5 146.7Q69.5 147.0 69.6 147.2Q69.8 147.3 70.1 147.5Q70.3 147.6 70.6 147.6L70.6 147.6L71.3 147.8Q71.8 147.9 72.1 148.1Q72.5 148.3 72.8 148.5Q73.1 148.8 73.3 149.1Q73.5 149.5 73.5 149.9L73.5 149.9Q73.5 150.6 73.1 151.1Q72.8 151.6 72.2 151.8Q71.5 152.1 70.7 152.1ZM73.9 152L78.6 152L78.6 153.1L73.9 153.1L73.9 152ZM82.0 152.1L82.0 152.1Q81.1 152.1 80.4 151.8Q79.8 151.6 79.4 151.0Q79.1 150.5 79.1 149.7L79.1 149.7L80.5 149.7Q80.5 150.1 80.7 150.4Q80.9 150.6 81.2 150.7Q81.6 150.8 82.0 150.8L82.0 150.8Q82.4 150.8 82.6 150.7Q82.9 150.6 83.1 150.4Q83.3 150.2 83.3 149.9L83.3 149.9Q83.3 149.7 83.1 149.5Q83.0 149.3 82.7 149.2Q82.4 149.1 82.0 149.0L82.0 149.0L81.2 148.8Q80.3 148.6 79.8 148.1Q79.3 147.6 79.3 146.8L79.3 146.8Q79.3 146.2 79.6 145.7Q80.0 145.2 80.6 144.9Q81.2 144.6 82.0 144.6L82.0 144.6Q82.8 144.6 83.4 144.9Q84.0 145.2 84.3 145.7Q84.7 146.2 84.7 146.8L84.7 146.8L83.2 146.8Q83.2 146.4 82.9 146.1Q82.5 145.9 82.0 145.9L82.0 145.9Q81.6 145.9 81.3 146.0Q81.1 146.1 80.9 146.3Q80.8 146.5 80.8 146.7L80.8 146.7Q80.8 147.0 80.9 147.2Q81.1 147.3 81.4 147.5Q81.6 147.6 81.9 147.6L81.9 147.6L82.6 147.8Q83.1 147.9 83.5 148.1Q83.9 148.3 84.2 148.5Q84.4 148.8 84.6 149.1Q84.8 149.5 84.8 149.9L84.8 149.9Q84.8 150.6 84.4 151.1Q84.1 151.6 83.5 151.8Q82.9 152.1 82.0 152.1ZM87.3 152L85.8 152L85.8 144.7L88.7 144.7Q89.5 144.7 90.1 145.0Q90.7 145.4 91.0 145.9Q91.3 146.5 91.3 147.2L91.3 147.2Q91.3 147.9 91.0 148.5Q90.7 149.0 90.1 149.3Q89.5 149.6 88.7 149.6L88.7 149.6L87.3 149.6L87.3 152ZM87.3 146.0L87.3 148.4L88.4 148.4Q88.9 148.4 89.2 148.3Q89.5 148.1 89.6 147.8Q89.8 147.5 89.8 147.2Q89.8 146.8 89.6 146.5Q89.5 146.3 89.2 146.1Q88.9 146.0 88.4 146.0L88.4 146.0L87.3 146.0ZM93.6 152L91.9 152L94.4 144.7L96.3 144.7L98.9 152L97.2 152L96.7 150.3L94.1 150.3L93.6 152ZM94.5 149.1L96.3 149.1L96.1 148.5Q95.9 147.8 95.6 147L95.6 147Q95.5 146.5 95.4 145.9L95.4 145.9Q95.2 146.5 95.1 147.0L95.1 147.0Q94.9 147.8 94.7 148.5L94.7 148.5L94.5 149.1ZM103.0 152L101.3 152L99.4 144.7L101.0 144.7L101.8 148.3Q101.9 148.8 102.0 149.3Q102.1 149.8 102.2 150.3L102.2 150.3Q102.2 150.4 102.2 150.5L102.2 150.5Q102.3 150.4 102.3 150.3L102.3 150.3Q102.4 149.8 102.5 149.3Q102.5 148.8 102.7 148.3L102.7 148.3L103.5 144.7L105.1 144.7L106.0 148.3Q106.1 148.8 106.2 149.3Q106.3 149.8 106.4 150.3L106.4 150.3Q106.4 150.4 106.4 150.5L106.4 150.5Q106.4 150.4 106.4 150.3L106.4 150.3Q106.5 149.8 106.6 149.3Q106.7 148.8 106.8 148.3L106.8 148.3L107.6 144.7L109.3 144.7L107.3 152L105.6 152L104.6 148.3Q104.5 147.7 104.4 146.9L104.4 146.9Q104.4 146.7 104.3 146.5L104.3 146.5Q104.3 146.7 104.3 146.9L104.3 146.9Q104.2 147.6 104.0 148.3L104.0 148.3L103.0 152ZM111.7 152L110.2 152L110.2 144.7L111.8 144.7L114.1 148.4Q114.3 148.7 114.5 149.0Q114.7 149.4 114.9 149.8L114.9 149.8Q115.0 150.0 115.0 150.2L115.0 150.2Q115.0 150.0 115.0 149.8L115.0 149.8Q115.0 149.3 115.0 148.9Q115.0 148.5 115.0 148.2L115.0 148.2L115.0 144.7L116.5 144.7L116.5 152L114.8 152L112.7 148.7Q112.5 148.3 112.3 147.9Q112.1 147.6 111.9 147.1L111.9 147.1Q111.8 146.9 111.6 146.6L111.6 146.6Q111.6 146.9 111.6 147.1L111.6 147.1Q111.7 147.6 111.7 148.0Q111.7 148.4 111.7 148.7L111.7 148.7L111.7 152ZM122.7 152L117.8 152L117.8 144.7L122.7 144.7L122.7 146.0L119.3 146.0L119.3 147.7L122.4 147.7L122.4 148.9L119.3 148.9L119.3 150.8L122.7 150.8L122.7 152ZM126.4 152L126.4 152L123.9 152L123.9 144.7L126.5 144.7Q127.5 144.7 128.3 145.2Q129.1 145.6 129.5 146.4Q130.0 147.2 130.0 148.4L130.0 148.4Q130.0 149.5 129.5 150.3Q129.1 151.1 128.3 151.6Q127.5 152 126.4 152ZM125.4 146.0L125.4 150.7L126.4 150.7Q127.1 150.7 127.5 150.5Q128.0 150.2 128.2 149.7Q128.5 149.2 128.5 148.4L128.5 148.4Q128.5 147.5 128.2 147.0Q128.0 146.5 127.5 146.3Q127.1 146.0 126.4 146.0L126.4 146.0L125.4 146.0Z "/></g><mask id="satori_om-id-0-1-1-0-1"><rect x="40" y="156" width="133" height="22" fill="#fff"/></mask><g  ><path fill="#38bdf8" d="M45.8 173.2L45.8 173.2Q44.4 173.2 43.3 172.7Q42.2 172.2 41.5 171.3Q40.9 170.5 40.9 169.3L40.9 169.3L43.6 169.3Q43.6 169.8 43.9 170.2Q44.2 170.5 44.7 170.8Q45.2 171.0 45.8 171.0L45.8 171.0Q46.5 171.0 46.9 170.7Q47.4 170.5 47.7 170.1Q48.0 169.7 48.0 169.2L48.0 169.2Q48.0 168.6 47.7 168.2Q47.4 167.8 46.9 167.6Q46.3 167.3 45.6 167.3L45.6 167.3L44.3 167.3L44.3 165.3L45.6 165.3Q46.2 165.3 46.7 165.1Q47.2 164.9 47.4 164.5Q47.7 164.1 47.7 163.6L47.7 163.6Q47.7 163.1 47.5 162.7Q47.2 162.3 46.8 162.1Q46.4 161.9 45.8 161.9L45.8 161.9Q45.2 161.9 44.8 162.1Q44.3 162.3 44.0 162.7Q43.7 163.0 43.7 163.5L43.7 163.5L41.1 163.5Q41.1 162.4 41.8 161.6Q42.4 160.7 43.4 160.2Q44.5 159.7 45.8 159.7L45.8 159.7Q47.2 159.7 48.2 160.2Q49.2 160.7 49.8 161.5Q50.3 162.4 50.3 163.4L50.3 163.4Q50.3 164.5 49.6 165.2Q49.0 166.0 47.9 166.2L47.9 166.2L47.9 166.3Q48.8 166.4 49.5 166.8Q50.1 167.2 50.5 167.9Q50.8 168.5 50.8 169.3L50.8 169.3Q50.8 170.4 50.2 171.3Q49.5 172.2 48.4 172.7Q47.3 173.2 45.8 173.2ZM58.8 170.7L52.5 170.7L52.5 168.6L58.0 159.9L61.3 159.9L61.3 168.5L63.0 168.5L63.0 170.7L61.3 170.7L61.3 173L58.8 173L58.8 170.7ZM55.2 168.5L58.8 168.5L58.8 162.9L58.7 162.9L55.2 168.4L55.2 168.5Z "/></g><defs><clipPath id="satori_bc-id-0-1-1-1"><path x="198" y="131" width="162" height="58" d="M204,131 h150 a6,6 0 0 1 6,6 v46 a6,6 0 0 1 -6,6 h-150 a6,6 0 0 1 -6,-6 v-46 a6,6 0 0 1 6,-6"/></clipPath></defs><mask id="satori_om-id-0-1-1-1"><rect x="199" y="132" width="160" height="56" fill="#fff"/><path width="162" height="58" fill="none" stroke="#000" stroke-width="2" d="M199.757,132.757 A6,6 0 0 1 204,131 h150 a6,6 0 0 1 6,6 v46 a6,6 0 0 1 -6,6 h-150 a6,6 0 0 1 -6,-6 v-46 A6,6 0 0 1 199.757,132.757"/></mask><path x="198" y="131" width="162" height="58" fill="rgba(0,240,255,0.01)" d="M204,131 h150 a6,6 0 0 1 6,6 v46 a6,6 0 0 1 -6,6 h-150 a6,6 0 0 1 -6,-6 v-46 a6,6 0 0 1 6,-6"/><path width="162" height="58" clip-path="url(#satori_bc-id-0-1-1-1)" fill="none" stroke="rgba(0,240,255,0.08)" stroke-width="2" d="M199.757,132.757 A6,6 0 0 1 204,131 h150 a6,6 0 0 1 6,6 v46 a6,6 0 0 1 -6,6 h-150 a6,6 0 0 1 -6,-6 v-46 A6,6 0 0 1 199.757,132.757"/><mask id="satori_om-id-0-1-1-1-0"><rect x="213" y="142" width="132" height="12" fill="#fff"/></mask><g  ><path fill="#94a3b8" d="M215.6 146.0L213.4 146.0L213.4 144.7L219.3 144.7L219.3 146.0L217.1 146.0L217.1 152L215.6 152L215.6 146.0ZM221.6 152L219.9 152L222.4 144.7L224.4 144.7L226.9 152L225.2 152L224.7 150.3L222.1 150.3L221.6 152ZM222.5 149.1L224.3 149.1L224.1 148.5Q223.9 147.8 223.7 147L223.7 147Q223.5 146.5 223.4 145.9L223.4 145.9Q223.2 146.5 223.1 147.0L223.1 147.0Q222.9 147.8 222.7 148.5L222.7 148.5L222.5 149.1ZM229.3 152L227.8 152L227.8 144.7L230.6 144.7Q231.5 144.7 232.0 145.0Q232.6 145.3 232.9 145.8Q233.2 146.4 233.2 147.1Q233.2 147.8 232.9 148.3Q232.6 148.9 232.0 149.1L232.0 149.1Q232.0 149.1 232.0 149.2L232.0 149.2L233.5 152L231.8 152L230.5 149.4L229.3 149.4L229.3 152ZM229.3 146.0L229.3 148.2L230.4 148.2Q230.8 148.2 231.1 148.1Q231.4 147.9 231.6 147.7Q231.7 147.5 231.7 147.1L231.7 147.1Q231.7 146.7 231.6 146.5Q231.4 146.2 231.1 146.1Q230.8 146.0 230.4 146.0L230.4 146.0L229.3 146.0ZM237.6 152.1L237.6 152.1Q236.6 152.1 235.8 151.6Q235.0 151.2 234.6 150.4Q234.2 149.5 234.2 148.4L234.2 148.4Q234.2 147.2 234.6 146.4Q235.1 145.5 235.8 145.1Q236.6 144.6 237.6 144.6L237.6 144.6Q238.2 144.6 238.7 144.8Q239.2 145.0 239.6 145.3Q240.1 145.6 240.3 146.1Q240.6 146.5 240.7 147.1L240.7 147.1L239.1 147.1Q239.1 146.8 238.9 146.6Q238.8 146.4 238.6 146.2Q238.4 146.1 238.1 146.0Q237.9 146.0 237.6 146.0L237.6 146.0Q237.0 146.0 236.6 146.2Q236.2 146.5 235.9 147.0Q235.7 147.6 235.7 148.4Q235.7 149.1 235.9 149.7Q236.2 150.2 236.6 150.5Q237.0 150.8 237.6 150.8L237.6 150.8Q238.1 150.8 238.5 150.6Q238.9 150.4 239.1 150.0L239.1 150.0Q239.3 149.7 239.3 149.3L239.3 149.3L237.7 149.3L237.7 148.1L240.7 148.1L240.7 149.0Q240.7 150.0 240.3 150.7Q239.9 151.4 239.2 151.7Q238.5 152.1 237.6 152.1ZM246.8 152L241.9 152L241.9 144.7L246.7 144.7L246.7 146.0L243.4 146.0L243.4 147.7L246.5 147.7L246.5 148.9L243.4 148.9L243.4 150.8L246.8 150.8L246.8 152ZM249.9 146.0L247.7 146.0L247.7 144.7L253.6 144.7L253.6 146.0L251.4 146.0L251.4 152L249.9 152L249.9 146.0ZM254.0 152L258.7 152L258.7 153.1L254.0 153.1L254.0 152ZM260.9 152L259.4 152L259.4 144.7L262.2 144.7Q263.0 144.7 263.6 145.0Q264.2 145.3 264.5 145.8Q264.8 146.4 264.8 147.1Q264.8 147.8 264.5 148.3Q264.2 148.9 263.6 149.1L263.6 149.1Q263.6 149.1 263.5 149.2L263.5 149.2L265.1 152L263.4 152L262.0 149.4L260.9 149.4L260.9 152ZM260.9 146.0L260.9 148.2L261.9 148.2Q262.4 148.2 262.7 148.1Q263.0 147.9 263.1 147.7Q263.3 147.5 263.3 147.1L263.3 147.1Q263.3 146.7 263.1 146.5Q263.0 146.2 262.7 146.1Q262.4 146.0 261.9 146.0L261.9 146.0L260.9 146.0ZM270.8 152L265.9 152L265.9 144.7L270.8 144.7L270.8 146.0L267.4 146.0L267.4 147.7L270.6 147.7L270.6 148.9L267.4 148.9L267.4 150.8L270.8 150.8L270.8 152ZM273.5 152L272.0 152L272.0 144.7L274.9 144.7Q275.7 144.7 276.3 145.0Q276.9 145.4 277.2 145.9Q277.5 146.5 277.5 147.2L277.5 147.2Q277.5 147.9 277.2 148.5Q276.8 149.0 276.3 149.3Q275.7 149.6 274.8 149.6L274.8 149.6L273.5 149.6L273.5 152ZM273.5 146.0L273.5 148.4L274.6 148.4Q275.0 148.4 275.3 148.3Q275.6 148.1 275.8 147.8Q275.9 147.5 275.9 147.2Q275.9 146.8 275.8 146.5Q275.6 146.3 275.3 146.1Q275.0 146.0 274.6 146.0L274.6 146.0L273.5 146.0ZM281.7 152.1L281.7 152.1Q280.7 152.1 280.0 151.7Q279.2 151.2 278.7 150.4Q278.3 149.5 278.3 148.4L278.3 148.4Q278.3 147.2 278.7 146.3Q279.2 145.5 280.0 145.1Q280.7 144.6 281.7 144.6L281.7 144.6Q282.7 144.6 283.4 145.1Q284.2 145.5 284.6 146.3Q285.1 147.2 285.1 148.4L285.1 148.4Q285.1 149.5 284.6 150.4Q284.2 151.2 283.4 151.7Q282.7 152.1 281.7 152.1ZM281.7 150.8L281.7 150.8Q282.3 150.8 282.7 150.5Q283.1 150.2 283.3 149.7Q283.6 149.1 283.6 148.4L283.6 148.4Q283.6 147.6 283.3 147.0Q283.1 146.5 282.7 146.2Q282.3 146.0 281.7 146.0L281.7 146.0Q281.1 146.0 280.7 146.2Q280.3 146.5 280.1 147.0Q279.8 147.6 279.8 148.4L279.8 148.4Q279.8 149.1 280.1 149.7Q280.3 150.2 280.7 150.5Q281.1 150.8 281.7 150.8ZM288.9 152.1L288.9 152.1Q288 152.1 287.4 151.8Q286.7 151.6 286.3 151.0Q286.0 150.5 286.0 149.7L286.0 149.7L287.4 149.7Q287.4 150.1 287.6 150.4Q287.8 150.6 288.1 150.7Q288.5 150.8 288.9 150.8L288.9 150.8Q289.3 150.8 289.6 150.7Q289.9 150.6 290.0 150.4Q290.2 150.2 290.2 149.9L290.2 149.9Q290.2 149.7 290.0 149.5Q289.9 149.3 289.6 149.2Q289.3 149.1 288.9 149.0L288.9 149.0L288.1 148.8Q287.2 148.6 286.7 148.1Q286.2 147.6 286.2 146.8L286.2 146.8Q286.2 146.2 286.5 145.7Q286.9 145.2 287.5 144.9Q288.1 144.6 288.9 144.6L288.9 144.6Q289.7 144.6 290.3 144.9Q290.9 145.2 291.2 145.7Q291.6 146.2 291.6 146.8L291.6 146.8L290.1 146.8Q290.1 146.4 289.8 146.1Q289.4 145.9 288.9 145.9L288.9 145.9Q288.5 145.9 288.2 146.0Q288.0 146.1 287.8 146.3Q287.7 146.5 287.7 146.7L287.7 146.7Q287.7 147.0 287.8 147.2Q288.0 147.3 288.3 147.5Q288.5 147.6 288.8 147.6L288.8 147.6L289.5 147.8Q290.0 147.9 290.4 148.1Q290.8 148.3 291.1 148.5Q291.4 148.8 291.5 149.1Q291.7 149.5 291.7 149.9L291.7 149.9Q291.7 150.6 291.3 151.1Q291.0 151.6 290.4 151.8Q289.8 152.1 288.9 152.1Z "/></g><mask id="satori_om-id-0-1-1-1-1"><rect x="213" y="156" width="132" height="22" fill="#fff"/></mask><g  ><path fill="#34d399" d="M223.4 173L214.1 173L214.1 171.1L218.7 166.7Q219.3 166.1 219.7 165.7Q220.1 165.2 220.4 164.7Q220.6 164.3 220.6 163.8L220.6 163.8Q220.6 163.2 220.3 162.8Q220.0 162.3 219.6 162.1Q219.1 161.9 218.5 161.9L218.5 161.9Q217.9 161.9 217.5 162.1Q217.0 162.4 216.8 162.8Q216.5 163.3 216.5 163.9L216.5 163.9L214.0 163.9Q214.0 162.6 214.6 161.7Q215.1 160.8 216.2 160.2Q217.2 159.7 218.6 159.7L218.6 159.7Q220.0 159.7 221.0 160.2Q222.0 160.7 222.6 161.6Q223.2 162.5 223.2 163.6L223.2 163.6Q223.2 164.3 222.9 165.0Q222.6 165.7 221.9 166.6Q221.1 167.5 219.8 168.7L219.8 168.7L217.8 170.7L217.8 170.8L223.4 170.8L223.4 173ZM229.9 173.2L229.9 173.2Q228.5 173.2 227.5 172.7Q226.4 172.2 225.8 171.3Q225.2 170.4 225.2 169.3L225.2 169.3L227.8 169.3Q227.8 169.8 228.1 170.2Q228.4 170.6 228.8 170.8Q229.3 171.0 229.9 171.0L229.9 171.0Q230.5 171.0 231.0 170.8Q231.5 170.5 231.8 169.9Q232.1 169.4 232.1 168.7L232.1 168.7Q232.1 168.0 231.8 167.5Q231.5 166.9 231.0 166.6Q230.5 166.3 229.8 166.3L229.8 166.3Q229.2 166.3 228.7 166.6Q228.1 166.8 227.8 167.2L227.8 167.2L225.4 166.8L226.1 159.9L234.0 159.9L234.0 162.1L228.3 162.1L228.0 165.4L228.0 165.4Q228.4 165.0 229.1 164.7Q229.8 164.3 230.6 164.3L230.6 164.3Q231.5 164.3 232.2 164.7Q233.0 165.0 233.5 165.6Q234.1 166.1 234.4 166.9Q234.7 167.7 234.7 168.6L234.7 168.6Q234.7 170.0 234.1 171.0Q233.5 172.0 232.4 172.6Q231.3 173.2 229.9 173.2Z "/></g><mask id="satori_om-id-1"><rect x="385" y="65" width="440" height="90" fill="#fff"/></mask><mask id="satori_om-id-1-0"><rect x="409" y="65" width="416" height="16" fill="#fff"/></mask><g  ><path fill="#00f0ff" d="M416.8 73.4L416.8 75.0L410.3 77.9L410.3 76.1L414.7 74.3L414.7 74.2L410.3 72.4L410.3 70.6L416.8 73.4Z M425.9 78.1L425.9 78.1Q424.8 78.1 424.0 77.7Q423.3 77.2 422.8 76.4Q422.4 75.6 422.4 74.5L422.4 74.5Q422.4 73.4 422.8 72.6Q423.3 71.7 424.0 71.3Q424.8 70.8 425.9 70.8L425.9 70.8Q426.5 70.8 427.0 71.0Q427.6 71.1 428.0 71.4Q428.4 71.8 428.7 72.2Q428.9 72.6 429.0 73.2L429.0 73.2L427.3 73.5Q427.2 73.2 427.1 73.0Q427.0 72.8 426.8 72.6Q426.6 72.5 426.4 72.4Q426.2 72.3 425.9 72.3L425.9 72.3Q425.4 72.3 425.1 72.6Q424.7 72.9 424.5 73.3Q424.4 73.8 424.4 74.5L424.4 74.5Q424.4 75.1 424.5 75.6Q424.7 76.1 425.1 76.4Q425.4 76.6 425.9 76.6L425.9 76.6Q426.2 76.6 426.4 76.6Q426.6 76.5 426.8 76.3Q427.0 76.1 427.1 75.9Q427.2 75.7 427.3 75.4L427.3 75.4L429.1 75.7Q429.0 76.3 428.7 76.7Q428.4 77.2 428.0 77.5Q427.6 77.8 427.1 78.0Q426.5 78.1 425.9 78.1ZM432.8 78.1L432.8 78.1Q432.2 78.1 431.6 77.9Q431.1 77.7 430.8 77.2Q430.5 76.7 430.5 76.0L430.5 76.0Q430.5 75.4 430.7 75.0Q430.9 74.6 431.3 74.4Q431.7 74.1 432.2 74.0Q432.6 73.9 433.2 73.8L433.2 73.8Q433.8 73.8 434.2 73.7Q434.5 73.7 434.7 73.5Q434.9 73.4 434.9 73.2L434.9 73.2L434.9 73.2Q434.9 72.9 434.8 72.7Q434.6 72.4 434.4 72.3Q434.1 72.2 433.8 72.2L433.8 72.2Q433.4 72.2 433.1 72.3Q432.9 72.4 432.7 72.6Q432.5 72.8 432.4 73.0L432.4 73.0L430.7 72.8Q430.9 72.1 431.3 71.7Q431.7 71.3 432.4 71.0Q433.0 70.8 433.8 70.8L433.8 70.8Q434.3 70.8 434.9 71.0Q435.4 71.1 435.9 71.4Q436.3 71.7 436.5 72.1Q436.8 72.6 436.8 73.2L436.8 73.2L436.8 78L435.0 78L435.0 77.0L434.9 77.0Q434.7 77.3 434.5 77.6Q434.2 77.8 433.8 78.0Q433.4 78.1 432.8 78.1ZM433.4 76.8L433.4 76.8Q433.8 76.8 434.2 76.6Q434.5 76.4 434.7 76.1Q434.9 75.8 434.9 75.5L434.9 75.5L434.9 74.7Q434.8 74.8 434.6 74.8Q434.5 74.9 434.3 74.9Q434.0 74.9 433.8 75.0Q433.6 75.0 433.5 75.0L433.5 75.0Q433.1 75.1 432.9 75.2Q432.6 75.3 432.5 75.5Q432.3 75.7 432.3 76.0L432.3 76.0Q432.3 76.2 432.5 76.4Q432.6 76.6 432.8 76.7Q433.1 76.8 433.4 76.8ZM441.1 70.9L442.4 70.9L442.4 72.4L441.1 72.4L441.1 75.9Q441.1 76.3 441.3 76.4Q441.4 76.6 441.8 76.6L441.8 76.6Q441.9 76.6 442.1 76.6Q442.3 76.5 442.4 76.5L442.4 76.5L442.6 77.9Q442.3 78.0 442.0 78.1Q441.7 78.1 441.4 78.1L441.4 78.1Q440.3 78.1 439.8 77.6Q439.2 77.1 439.2 76.1L439.2 76.1L439.2 72.4L438.2 72.4L438.2 70.9L439.2 70.9L439.2 69.2L441.1 69.2L441.1 70.9Z M450.2 68.1L451.8 68.1L448.8 79.4L447.1 79.4L450.2 68.1ZM457.5 78L455.3 78L452.7 70.9L454.7 70.9L455.9 74.6Q456.1 75.3 456.3 76.0L456.3 76.0Q456.3 76.3 456.4 76.5L456.4 76.5Q456.5 76.3 456.5 76.0L456.5 76.0Q456.7 75.3 456.9 74.6L456.9 74.6L458.1 70.9L460.1 70.9L457.5 78ZM463.6 78.1L463.6 78.1Q462.9 78.1 462.4 77.9Q461.8 77.7 461.5 77.2Q461.2 76.7 461.2 76.0L461.2 76.0Q461.2 75.4 461.4 75.0Q461.6 74.6 462.0 74.4Q462.4 74.1 462.9 74.0Q463.4 73.9 463.9 73.8L463.9 73.8Q464.5 73.8 464.9 73.7Q465.3 73.7 465.4 73.5Q465.6 73.4 465.6 73.2L465.6 73.2L465.6 73.2Q465.6 72.9 465.5 72.7Q465.4 72.4 465.1 72.3Q464.9 72.2 464.5 72.2L464.5 72.2Q464.1 72.2 463.9 72.3Q463.6 72.4 463.4 72.6Q463.2 72.8 463.2 73.0L463.2 73.0L461.4 72.8Q461.6 72.1 462.0 71.7Q462.4 71.3 463.1 71.0Q463.7 70.8 464.5 70.8L464.5 70.8Q465.1 70.8 465.6 71.0Q466.2 71.1 466.6 71.4Q467.0 71.7 467.3 72.1Q467.5 72.6 467.5 73.2L467.5 73.2L467.5 78L465.7 78L465.7 77.0L465.6 77.0Q465.5 77.3 465.2 77.6Q464.9 77.8 464.5 78.0Q464.1 78.1 463.6 78.1ZM464.1 76.8L464.1 76.8Q464.6 76.8 464.9 76.6Q465.2 76.4 465.4 76.1Q465.6 75.8 465.6 75.5L465.6 75.5L465.6 74.7Q465.5 74.8 465.4 74.8Q465.2 74.9 465.0 74.9Q464.8 74.9 464.6 75.0Q464.4 75.0 464.2 75.0L464.2 75.0Q463.9 75.1 463.6 75.2Q463.3 75.3 463.2 75.5Q463.0 75.7 463.0 76.0L463.0 76.0Q463.0 76.2 463.2 76.4Q463.3 76.6 463.6 76.7Q463.8 76.8 464.1 76.8ZM471.5 78L469.6 78L469.6 70.9L471.5 70.9L471.5 72.1L471.6 72.1Q471.8 71.5 472.2 71.1Q472.7 70.8 473.3 70.8L473.3 70.8Q473.4 70.8 473.6 70.8Q473.8 70.8 473.9 70.9L473.9 70.9L473.9 72.6Q473.8 72.5 473.5 72.5Q473.3 72.5 473.1 72.5L473.1 72.5Q472.6 72.5 472.3 72.7Q471.9 72.9 471.7 73.2Q471.5 73.5 471.5 74.0L471.5 74.0L471.5 78ZM477.8 68.1L479.5 68.1L476.4 79.4L474.8 79.4L477.8 68.1ZM481.0 68.5L482.9 68.5L482.9 78L481.0 78L481.0 68.5ZM488.2 78.1L488.2 78.1Q487.1 78.1 486.3 77.7Q485.5 77.2 485.1 76.4Q484.7 75.6 484.7 74.5L484.7 74.5Q484.7 73.4 485.1 72.6Q485.5 71.7 486.3 71.3Q487.1 70.8 488.2 70.8L488.2 70.8Q489.2 70.8 490.0 71.3Q490.8 71.7 491.2 72.6Q491.6 73.4 491.6 74.5L491.6 74.5Q491.6 75.6 491.2 76.4Q490.8 77.2 490.0 77.7Q489.2 78.1 488.2 78.1ZM488.2 76.6L488.2 76.6Q488.7 76.6 489.0 76.4Q489.4 76.1 489.5 75.6Q489.7 75.1 489.7 74.5L489.7 74.5Q489.7 73.8 489.5 73.4Q489.4 72.9 489.0 72.6Q488.7 72.3 488.2 72.3L488.2 72.3Q487.7 72.3 487.3 72.6Q487.0 72.9 486.8 73.4Q486.6 73.8 486.6 74.5L486.6 74.5Q486.6 75.1 486.8 75.6Q487.0 76.1 487.3 76.4Q487.7 76.6 488.2 76.6ZM496.6 80.8L496.6 80.8Q495.7 80.8 495.1 80.6Q494.4 80.4 494.0 80.0Q493.6 79.6 493.4 79.1L493.4 79.1L495.1 78.6Q495.2 78.8 495.4 79.0Q495.5 79.2 495.8 79.3Q496.2 79.4 496.6 79.4L496.6 79.4Q497.3 79.4 497.8 79.1Q498.2 78.8 498.2 78.1L498.2 78.1L498.2 76.7L498.0 76.7Q497.9 77.0 497.7 77.3Q497.4 77.6 497.0 77.7Q496.6 77.9 496.1 77.9L496.1 77.9Q495.3 77.9 494.6 77.5Q494.0 77.1 493.6 76.4Q493.2 75.6 493.2 74.4L493.2 74.4Q493.2 73.2 493.6 72.4Q494.0 71.6 494.6 71.2Q495.3 70.8 496.1 70.8L496.1 70.8Q496.7 70.8 497.1 71.0Q497.5 71.2 497.7 71.5Q498.0 71.8 498.1 72.1L498.1 72.1L498.2 72.1L498.2 70.9L500.1 70.9L500.1 77.9Q500.1 78.9 499.6 79.5Q499.2 80.2 498.4 80.5Q497.6 80.8 496.6 80.8ZM496.7 76.5L496.7 76.5Q497.1 76.5 497.5 76.2Q497.8 76.0 498.0 75.5Q498.2 75.1 498.2 74.4L498.2 74.4Q498.2 73.8 498.0 73.3Q497.8 72.9 497.5 72.6Q497.1 72.3 496.7 72.3L496.7 72.3Q496.2 72.3 495.8 72.6Q495.5 72.9 495.3 73.3Q495.1 73.8 495.1 74.4L495.1 74.4Q495.1 75.0 495.3 75.5Q495.5 76.0 495.8 76.2Q496.2 76.5 496.7 76.5ZM504.6 68.1L506.3 68.1L503.2 79.4L501.6 79.4L504.6 68.1ZM507.7 68.5L509.6 68.5L509.6 78L507.7 78L507.7 68.5ZM513.7 78.1L513.7 78.1Q513.1 78.1 512.5 77.9Q512.0 77.7 511.7 77.2Q511.4 76.7 511.4 76.0L511.4 76.0Q511.4 75.4 511.6 75.0Q511.8 74.6 512.2 74.4Q512.6 74.1 513.0 74.0Q513.5 73.9 514.1 73.8L514.1 73.8Q514.7 73.8 515.0 73.7Q515.4 73.7 515.6 73.5Q515.8 73.4 515.8 73.2L515.8 73.2L515.8 73.2Q515.8 72.9 515.6 72.7Q515.5 72.4 515.3 72.3Q515.0 72.2 514.7 72.2L514.7 72.2Q514.3 72.2 514.0 72.3Q513.8 72.4 513.6 72.6Q513.4 72.8 513.3 73.0L513.3 73.0L511.6 72.8Q511.8 72.1 512.2 71.7Q512.6 71.3 513.2 71.0Q513.9 70.8 514.7 70.8L514.7 70.8Q515.2 70.8 515.8 71.0Q516.3 71.1 516.8 71.4Q517.2 71.7 517.4 72.1Q517.7 72.6 517.7 73.2L517.7 73.2L517.7 78L515.9 78L515.9 77.0L515.8 77.0Q515.6 77.3 515.4 77.6Q515.1 77.8 514.7 78.0Q514.3 78.1 513.7 78.1ZM514.3 76.8L514.3 76.8Q514.7 76.8 515.1 76.6Q515.4 76.4 515.6 76.1Q515.8 75.8 515.8 75.5L515.8 75.5L515.8 74.7Q515.7 74.8 515.5 74.8Q515.4 74.9 515.2 74.9Q514.9 74.9 514.7 75.0Q514.5 75.0 514.4 75.0L514.4 75.0Q514.0 75.1 513.8 75.2Q513.5 75.3 513.4 75.5Q513.2 75.7 513.2 76.0L513.2 76.0Q513.2 76.2 513.3 76.4Q513.5 76.6 513.7 76.7Q514.0 76.8 514.3 76.8ZM521.7 73.9L521.7 73.9L521.7 78L519.8 78L519.8 70.9L521.6 70.9L521.6 72.4Q521.9 71.7 522.4 71.3L522.4 71.3Q522.9 70.8 523.8 70.8L523.8 70.8Q524.6 70.8 525.1 71.1Q525.7 71.5 526.0 72.1Q526.3 72.7 526.3 73.5L526.3 73.5L526.3 78L524.4 78L524.4 73.8Q524.4 73.2 524.0 72.8Q523.7 72.4 523.1 72.4L523.1 72.4Q522.7 72.4 522.4 72.6Q522.1 72.8 521.9 73.1Q521.7 73.4 521.7 73.9ZM531.6 80.8L531.6 80.8Q530.7 80.8 530.0 80.6Q529.3 80.4 528.9 80.0Q528.5 79.6 528.4 79.1L528.4 79.1L530.0 78.6Q530.1 78.8 530.3 79.0Q530.5 79.2 530.8 79.3Q531.1 79.4 531.5 79.4L531.5 79.4Q532.3 79.4 532.7 79.1Q533.1 78.8 533.1 78.1L533.1 78.1L533.1 76.7L533.0 76.7Q532.8 77.0 532.6 77.3Q532.3 77.6 532.0 77.7Q531.6 77.9 531.0 77.9L531.0 77.9Q530.2 77.9 529.5 77.5Q528.9 77.1 528.5 76.4Q528.1 75.6 528.1 74.4L528.1 74.4Q528.1 73.2 528.5 72.4Q528.9 71.6 529.6 71.2Q530.2 70.8 531.0 70.8L531.0 70.8Q531.6 70.8 532.0 71.0Q532.4 71.2 532.7 71.5Q532.9 71.8 533.0 72.1L533.0 72.1L533.1 72.1L533.1 70.9L535.0 70.9L535.0 77.9Q535.0 78.9 534.5 79.5Q534.1 80.2 533.3 80.5Q532.6 80.8 531.6 80.8ZM531.6 76.5L531.6 76.5Q532.1 76.5 532.4 76.2Q532.8 76.0 532.9 75.5Q533.1 75.1 533.1 74.4L533.1 74.4Q533.1 73.8 532.9 73.3Q532.8 72.9 532.4 72.6Q532.1 72.3 531.6 72.3L531.6 72.3Q531.1 72.3 530.7 72.6Q530.4 72.9 530.2 73.3Q530.1 73.8 530.1 74.4L530.1 74.4Q530.1 75.0 530.2 75.5Q530.4 76.0 530.7 76.2Q531.1 76.5 531.6 76.5ZM539.6 78.1L539.6 78.1Q538.8 78.1 538.3 77.8Q537.7 77.4 537.4 76.8Q537.1 76.2 537.1 75.4L537.1 75.4L537.1 70.9L539.0 70.9L539.0 75.1Q539.0 75.7 539.4 76.1Q539.7 76.5 540.3 76.5L540.3 76.5Q540.7 76.5 541.0 76.3Q541.3 76.1 541.5 75.8Q541.7 75.5 541.7 75.0L541.7 75.0L541.7 70.9L543.6 70.9L543.6 78L541.8 78L541.8 76.5Q541.5 77.2 541.0 77.6L541.0 77.6Q540.4 78.1 539.6 78.1ZM547.7 78.1L547.7 78.1Q547.0 78.1 546.5 77.9Q545.9 77.7 545.6 77.2Q545.3 76.7 545.3 76.0L545.3 76.0Q545.3 75.4 545.5 75.0Q545.8 74.6 546.1 74.4Q546.5 74.1 547.0 74.0Q547.5 73.9 548.0 73.8L548.0 73.8Q548.6 73.8 549.0 73.7Q549.4 73.7 549.5 73.5Q549.7 73.4 549.7 73.2L549.7 73.2L549.7 73.2Q549.7 72.9 549.6 72.7Q549.5 72.4 549.2 72.3Q549.0 72.2 548.6 72.2L548.6 72.2Q548.2 72.2 548.0 72.3Q547.7 72.4 547.5 72.6Q547.4 72.8 547.3 73.0L547.3 73.0L545.5 72.8Q545.7 72.1 546.1 71.7Q546.6 71.3 547.2 71.0Q547.8 70.8 548.6 70.8L548.6 70.8Q549.2 70.8 549.7 71.0Q550.3 71.1 550.7 71.4Q551.1 71.7 551.4 72.1Q551.6 72.6 551.6 73.2L551.6 73.2L551.6 78L549.8 78L549.8 77.0L549.8 77.0Q549.6 77.3 549.3 77.6Q549.0 77.8 548.6 78.0Q548.2 78.1 547.7 78.1ZM548.2 76.8L548.2 76.8Q548.7 76.8 549.0 76.6Q549.4 76.4 549.5 76.1Q549.7 75.8 549.7 75.5L549.7 75.5L549.7 74.7Q549.7 74.8 549.5 74.8Q549.3 74.9 549.1 74.9Q548.9 74.9 548.7 75.0Q548.5 75.0 548.3 75.0L548.3 75.0Q548.0 75.1 547.7 75.2Q547.4 75.3 547.3 75.5Q547.2 75.7 547.2 76.0L547.2 76.0Q547.2 76.2 547.3 76.4Q547.4 76.6 547.7 76.7Q547.9 76.8 548.2 76.8ZM556.9 80.8L556.9 80.8Q556.0 80.8 555.4 80.6Q554.7 80.4 554.3 80.0Q553.9 79.6 553.7 79.1L553.7 79.1L555.4 78.6Q555.4 78.8 555.6 79.0Q555.8 79.2 556.1 79.3Q556.4 79.4 556.9 79.4L556.9 79.4Q557.6 79.4 558.0 79.1Q558.5 78.8 558.5 78.1L558.5 78.1L558.5 76.7L558.3 76.7Q558.2 77.0 557.9 77.3Q557.7 77.6 557.3 77.7Q556.9 77.9 556.3 77.9L556.3 77.9Q555.5 77.9 554.9 77.5Q554.2 77.1 553.8 76.4Q553.5 75.6 553.5 74.4L553.5 74.4Q553.5 73.2 553.9 72.4Q554.2 71.6 554.9 71.2Q555.6 70.8 556.3 70.8L556.3 70.8Q556.9 70.8 557.4 71.0Q557.8 71.2 558.0 71.5Q558.3 71.8 558.4 72.1L558.4 72.1L558.5 72.1L558.5 70.9L560.3 70.9L560.3 77.9Q560.3 78.9 559.9 79.5Q559.5 80.2 558.7 80.5Q557.9 80.8 556.9 80.8ZM556.9 76.5L556.9 76.5Q557.4 76.5 557.8 76.2Q558.1 76.0 558.3 75.5Q558.5 75.1 558.5 74.4L558.5 74.4Q558.5 73.8 558.3 73.3Q558.1 72.9 557.8 72.6Q557.4 72.3 556.9 72.3L556.9 72.3Q556.4 72.3 556.1 72.6Q555.8 72.9 555.6 73.3Q555.4 73.8 555.4 74.4L555.4 74.4Q555.4 75.0 555.6 75.5Q555.8 76.0 556.1 76.2Q556.4 76.5 556.9 76.5ZM565.7 78.1L565.7 78.1Q564.6 78.1 563.8 77.7Q563.0 77.3 562.6 76.4Q562.2 75.6 562.2 74.5L562.2 74.5Q562.2 73.4 562.6 72.6Q563.0 71.7 563.8 71.3Q564.5 70.8 565.6 70.8L565.6 70.8Q566.3 70.8 566.9 71.0Q567.5 71.3 567.9 71.7Q568.4 72.2 568.7 72.8Q568.9 73.5 568.9 74.4L568.9 74.4L568.9 74.9L564.1 74.9Q564.1 75.5 564.3 75.9L564.3 75.9Q564.5 76.3 564.8 76.5Q565.2 76.7 565.7 76.7L565.7 76.7Q566.0 76.7 566.3 76.6Q566.6 76.5 566.8 76.3Q567.0 76.1 567.1 75.9L567.1 75.9L568.8 76.2Q568.6 76.8 568.2 77.2Q567.8 77.7 567.1 77.9Q566.5 78.1 565.7 78.1ZM564.1 73.8L564.1 73.8L567.1 73.8Q567.0 73.4 566.9 73.1L566.9 73.1Q566.8 72.7 566.4 72.5Q566.1 72.2 565.6 72.2L565.6 72.2Q565.1 72.2 564.8 72.5Q564.4 72.7 564.2 73.1L564.2 73.1Q564.1 73.4 564.1 73.8ZM573.5 78.1L573.5 78.1Q572.7 78.1 572.0 77.9Q571.4 77.7 570.9 77.2Q570.5 76.7 570.4 76.1L570.4 76.1L572.2 75.8Q572.3 76.2 572.7 76.5Q573.0 76.7 573.6 76.7L573.6 76.7Q574.1 76.7 574.4 76.5Q574.8 76.3 574.8 76.0L574.8 76.0Q574.8 75.7 574.5 75.6Q574.3 75.4 573.8 75.3L573.8 75.3L572.6 75.0Q571.6 74.8 571.1 74.3Q570.6 73.8 570.6 73.0L570.6 73.0Q570.6 72.3 571.0 71.8Q571.3 71.3 572.0 71.1Q572.7 70.8 573.6 70.8L573.6 70.8Q574.4 70.8 575.0 71.0Q575.6 71.3 576.0 71.7Q576.4 72.1 576.5 72.7L576.5 72.7L574.8 73.0Q574.7 72.6 574.4 72.4Q574.1 72.2 573.6 72.2L573.6 72.2Q573.1 72.2 572.8 72.4Q572.5 72.6 572.5 72.9L572.5 72.9Q572.5 73.2 572.7 73.4Q572.9 73.5 573.4 73.6L573.4 73.6L574.7 73.9Q575.7 74.1 576.2 74.6Q576.7 75.0 576.7 75.8L576.7 75.8Q576.7 76.5 576.3 77.0Q575.9 77.6 575.2 77.8Q574.5 78.1 573.5 78.1Z "/></g><clipPath id="satori_cp-id-1-1"><path x="409" y="93" width="416" height="12" d="M412,93 h410 a3,3 0 0 1 3,3 v6 a3,3 0 0 1 -3,3 h-410 a3,3 0 0 1 -3,-3 v-6 a3,3 0 0 1 3,-3"/></clipPath><mask id="satori_om-id-1-1"><rect x="409" y="93" width="416" height="12" fill="#fff"/></mask><path x="409" y="93" width="416" height="12" fill="rgba(255,255,255,0.05)" d="M412,93 h410 a3,3 0 0 1 3,3 v6 a3,3 0 0 1 -3,3 h-410 a3,3 0 0 1 -3,-3 v-6 a3,3 0 0 1 3,-3"/><mask id="satori_om-id-1-1-0"><rect x="409" y="93" width="187" height="12" fill="#fff" mask="url(#satori_om-id-1-1)"/></mask><rect x="409" y="93" width="187" height="12" fill="#3178c6" clip-path="url(#satori_cp-id-1-1)" mask="url(#satori_om-id-1-1)"/><mask id="satori_om-id-1-1-1"><rect x="596" y="93" width="104" height="12" fill="#fff" mask="url(#satori_om-id-1-1)"/></mask><rect x="596" y="93" width="104" height="12" fill="#f1e05a" clip-path="url(#satori_cp-id-1-1)" mask="url(#satori_om-id-1-1)"/><mask id="satori_om-id-1-1-2"><rect x="700" y="93" width="63" height="12" fill="#fff" mask="url(#satori_om-id-1-1)"/></mask><rect x="700" y="93" width="63" height="12" fill="#3572A5" clip-path="url(#satori_cp-id-1-1)" mask="url(#satori_om-id-1-1)"/><mask id="satori_om-id-1-1-3"><rect x="763" y="93" width="41" height="12" fill="#fff" mask="url(#satori_om-id-1-1)"/></mask><rect x="763" y="93" width="41" height="12" fill="#dea584" clip-path="url(#satori_cp-id-1-1)" mask="url(#satori_om-id-1-1)"/><mask id="satori_om-id-1-1-4"><rect x="804" y="93" width="21" height="12" fill="#fff" mask="url(#satori_om-id-1-1)"/></mask><rect x="804" y="93" width="21" height="12" fill="#00ADD8" clip-path="url(#satori_cp-id-1-1)" mask="url(#satori_om-id-1-1)"/><mask id="satori_om-id-1-2"><rect x="409" y="121" width="416" height="34" fill="#fff"/></mask><mask id="satori_om-id-1-2-0"><rect x="409" y="121" width="105" height="13" fill="#fff"/></mask><mask id="satori_om-id-1-2-0-0"><rect x="409" y="124" width="8" height="8" fill="#fff"/></mask><path x="409" y="124" width="8" height="8" fill="#3178c6" d="M413,124 h0 a4,4 0 0 1 4,4 v0 a4,4 0 0 1 -4,4 h0 a4,4 0 0 1 -4,-4 v0 a4,4 0 0 1 4,-4"/><mask id="satori_om-id-1-2-0-1"><rect x="423" y="121" width="60" height="13" fill="#fff"/></mask><g  ><path fill="#cbd5e1" d="M425.9 125.4L423.4 125.4L423.4 124.0L429.9 124.0L429.9 125.4L427.5 125.4L427.5 132L425.9 132L425.9 125.4ZM431.0 134.1L431.0 134.1L431.4 132.9L431.6 133.0Q431.9 133.0 432.1 133.0Q432.4 133.0 432.5 132.8Q432.7 132.6 432.7 132.3L432.7 132.3L432.8 132.0L430.5 126.0L432.2 126.0L433.2 129.1Q433.4 129.7 433.5 130.3L433.5 130.3Q433.6 130.5 433.6 130.7L433.6 130.7Q433.7 130.5 433.7 130.3L433.7 130.3Q433.9 129.7 434.0 129.1L434.0 129.1L435.1 126.0L436.8 126.0L434.2 132.7Q434.1 133.2 433.8 133.5Q433.5 133.9 433.1 134.1Q432.6 134.3 432.0 134.3L432.0 134.3Q431.7 134.3 431.4 134.2Q431.2 134.2 431.0 134.1ZM439.3 134.2L437.7 134.2L437.7 126.0L439.2 126.0L439.2 127.0L439.3 127.0Q439.4 126.8 439.6 126.5Q439.8 126.3 440.2 126.1Q440.5 125.9 441.0 125.9L441.0 125.9Q441.7 125.9 442.2 126.3Q442.8 126.6 443.1 127.3Q443.5 128.0 443.5 129.0L443.5 129.0Q443.5 130.0 443.1 130.7Q442.8 131.4 442.3 131.7Q441.7 132.1 441.0 132.1L441.0 132.1Q440.5 132.1 440.2 131.9Q439.8 131.8 439.6 131.5Q439.4 131.3 439.3 131.0L439.3 131.0L439.3 131.0L439.3 134.2ZM440.5 130.8L440.5 130.8Q440.9 130.8 441.2 130.6Q441.5 130.3 441.7 129.9Q441.8 129.5 441.8 129.0L441.8 129.0Q441.8 128.5 441.7 128.1Q441.5 127.7 441.2 127.4Q440.9 127.2 440.5 127.2L440.5 127.2Q440.1 127.2 439.8 127.4Q439.5 127.7 439.4 128.1Q439.2 128.5 439.2 129.0L439.2 129.0Q439.2 129.5 439.4 130.0Q439.5 130.4 439.8 130.6Q440.1 130.8 440.5 130.8ZM447.3 132.1L447.3 132.1Q446.4 132.1 445.7 131.7Q445.0 131.4 444.7 130.7Q444.3 130.0 444.3 129.0L444.3 129.0Q444.3 128.1 444.7 127.4Q445.0 126.7 445.7 126.3Q446.3 125.9 447.2 125.9L447.2 125.9Q447.8 125.9 448.3 126.1Q448.8 126.3 449.2 126.7Q449.6 127.1 449.8 127.6Q450.0 128.2 450.0 129.0L450.0 129.0L450.0 129.4L445.9 129.4Q445.9 129.9 446.1 130.2L446.1 130.2Q446.3 130.5 446.6 130.7Q446.9 130.9 447.3 130.9L447.3 130.9Q447.6 130.9 447.8 130.8Q448.1 130.7 448.2 130.6Q448.4 130.4 448.5 130.2L448.5 130.2L449.9 130.5Q449.8 131.0 449.4 131.3Q449.1 131.7 448.5 131.9Q448.0 132.1 447.3 132.1ZM445.9 128.4L445.9 128.4L448.5 128.4Q448.5 128.1 448.4 127.9L448.4 127.9Q448.2 127.5 447.9 127.3Q447.6 127.1 447.2 127.1L447.2 127.1Q446.8 127.1 446.5 127.3Q446.2 127.5 446.1 127.8L446.1 127.8Q446.0 128.1 445.9 128.4ZM454.1 132.1L454.1 132.1Q453.1 132.1 452.4 131.8Q451.7 131.5 451.3 130.9Q450.9 130.4 450.9 129.5L450.9 129.5L452.5 129.5Q452.5 129.9 452.7 130.2Q453.0 130.5 453.3 130.6Q453.7 130.7 454.1 130.7L454.1 130.7Q454.5 130.7 454.9 130.6Q455.2 130.5 455.4 130.2Q455.5 130.0 455.5 129.7L455.5 129.7Q455.5 129.4 455.4 129.3Q455.2 129.1 454.9 128.9Q454.6 128.8 454.2 128.7L454.2 128.7L453.3 128.5Q452.3 128.2 451.7 127.7Q451.1 127.2 451.1 126.3L451.1 126.3Q451.1 125.6 451.5 125.0Q451.9 124.5 452.6 124.2Q453.3 123.9 454.1 123.9L454.1 123.9Q455.0 123.9 455.7 124.2Q456.3 124.5 456.7 125.0Q457.1 125.6 457.1 126.3L457.1 126.3L455.5 126.3Q455.5 125.8 455.1 125.5Q454.7 125.3 454.1 125.3L454.1 125.3Q453.7 125.3 453.4 125.4Q453.1 125.5 453.0 125.7Q452.8 125.9 452.8 126.2L452.8 126.2Q452.8 126.5 453.0 126.7Q453.2 126.9 453.5 127.0Q453.7 127.1 454.1 127.2L454.1 127.2L454.8 127.4Q455.3 127.5 455.7 127.7Q456.2 127.9 456.5 128.2Q456.8 128.4 457.0 128.8Q457.2 129.2 457.2 129.7L457.2 129.7Q457.2 130.4 456.8 131.0Q456.5 131.5 455.8 131.8Q455.1 132.1 454.1 132.1ZM461.0 132.1L461.0 132.1Q460.1 132.1 459.5 131.7Q458.8 131.3 458.4 130.6Q458.1 129.9 458.1 129.0L458.1 129.0Q458.1 128.1 458.4 127.4Q458.8 126.7 459.5 126.3Q460.1 125.9 461.0 125.9L461.0 125.9Q461.6 125.9 462.0 126.1Q462.5 126.2 462.8 126.5Q463.2 126.7 463.4 127.1Q463.6 127.5 463.7 127.9L463.7 127.9L462.2 128.2Q462.1 128.0 462.0 127.8Q461.9 127.6 461.8 127.5Q461.7 127.3 461.5 127.3Q461.3 127.2 461.0 127.2L461.0 127.2Q460.6 127.2 460.3 127.4Q460.0 127.6 459.9 128.1Q459.7 128.5 459.7 129.0L459.7 129.0Q459.7 129.6 459.9 130.0Q460.0 130.4 460.3 130.6Q460.6 130.9 461.0 130.9L461.0 130.9Q461.3 130.9 461.5 130.8Q461.7 130.7 461.8 130.6Q462.0 130.4 462.1 130.2Q462.2 130.0 462.2 129.8L462.2 129.8L463.7 130.1Q463.6 130.6 463.4 130.9Q463.2 131.3 462.8 131.6Q462.5 131.8 462.0 132.0Q461.6 132.1 461.0 132.1ZM466.4 132L464.8 132L464.8 126.0L466.4 126.0L466.4 127.0L466.4 127.0Q466.6 126.5 467.0 126.2Q467.4 125.9 467.9 125.9L467.9 125.9Q468.0 125.9 468.2 125.9Q468.3 125.9 468.4 126.0L468.4 126.0L468.4 127.4Q468.3 127.4 468.1 127.3Q467.9 127.3 467.7 127.3L467.7 127.3Q467.3 127.3 467.0 127.5Q466.8 127.6 466.6 127.9Q466.4 128.2 466.4 128.6L466.4 128.6L466.4 132ZM470.9 132L469.3 132L469.3 126.0L470.9 126.0L470.9 132ZM470.1 125.2L470.1 125.2Q469.7 125.2 469.5 125.0Q469.2 124.7 469.2 124.4L469.2 124.4Q469.2 124.0 469.5 123.8Q469.7 123.6 470.1 123.6L470.1 123.6Q470.5 123.6 470.7 123.8Q471.0 124.0 471.0 124.4L471.0 124.4Q471.0 124.7 470.7 125.0Q470.5 125.2 470.1 125.2ZM473.9 134.2L472.3 134.2L472.3 126.0L473.9 126.0L473.9 127.0L473.9 127.0Q474.0 126.8 474.3 126.5Q474.5 126.3 474.8 126.1Q475.1 125.9 475.6 125.9L475.6 125.9Q476.3 125.9 476.9 126.3Q477.4 126.6 477.8 127.3Q478.1 128.0 478.1 129.0L478.1 129.0Q478.1 130.0 477.8 130.7Q477.4 131.4 476.9 131.7Q476.3 132.1 475.6 132.1L475.6 132.1Q475.1 132.1 474.8 131.9Q474.5 131.8 474.3 131.5Q474.0 131.3 473.9 131.0L473.9 131.0L473.9 131.0L473.9 134.2ZM475.1 130.8L475.1 130.8Q475.6 130.8 475.8 130.6Q476.1 130.3 476.3 129.9Q476.4 129.5 476.4 129.0L476.4 129.0Q476.4 128.5 476.3 128.1Q476.1 127.7 475.9 127.4Q475.6 127.2 475.1 127.2L475.1 127.2Q474.7 127.2 474.4 127.4Q474.1 127.7 474.0 128.1Q473.8 128.5 473.8 129.0L473.8 129.0Q473.8 129.5 474.0 130.0Q474.2 130.4 474.4 130.6Q474.7 130.8 475.1 130.8ZM481.1 126.0L482.2 126.0L482.2 127.2L481.1 127.2L481.1 130.2Q481.1 130.5 481.2 130.7Q481.3 130.8 481.6 130.8L481.6 130.8Q481.7 130.8 481.9 130.8Q482.0 130.8 482.1 130.7L482.1 130.7L482.4 131.9Q482.1 132.0 481.8 132.1Q481.6 132.1 481.3 132.1L481.3 132.1Q480.4 132.1 479.9 131.6Q479.5 131.2 479.5 130.4L479.5 130.4L479.5 127.2L478.6 127.2L478.6 126.0L479.5 126.0L479.5 124.6L481.1 124.6L481.1 126.0Z "/></g><mask id="satori_om-id-1-2-0-2"><rect x="489" y="121" width="25" height="13" fill="#fff"/></mask><g  ><path fill="#94a3b8" d="M493.4 130.4L489.6 130.4L489.6 129.5L493.1 124.0L494.4 124.0L494.4 129.5L495.5 129.5L495.5 130.4L494.4 130.4L494.4 132L493.4 132L493.4 130.4ZM490.7 129.5L493.4 129.5L493.4 125.3L493.4 125.3L490.7 129.4L490.7 129.5ZM499.3 132.1L499.3 132.1Q498.6 132.1 498.0 131.8Q497.5 131.6 497.2 131.1Q496.8 130.6 496.8 130.0L496.8 130.0L497.8 130.0Q497.8 130.3 498.0 130.6Q498.2 130.9 498.6 131.1Q498.9 131.2 499.3 131.2L499.3 131.2Q499.8 131.2 500.2 131.0Q500.5 130.8 500.8 130.4Q501.0 130.0 501.0 129.5L501.0 129.5Q501.0 128.9 500.8 128.5Q500.5 128.1 500.1 127.9Q499.7 127.7 499.2 127.7L499.2 127.7Q498.9 127.7 498.5 127.8Q498.1 127.9 497.9 128.1L497.9 128.1L496.9 128.0L497.4 124.0L501.6 124.0L501.6 124.9L498.2 124.9L498.0 127.2L498.0 127.2Q498.3 127.0 498.6 126.9Q499.0 126.8 499.4 126.8L499.4 126.8Q500.0 126.8 500.4 127.0Q500.9 127.2 501.3 127.5Q501.6 127.9 501.8 128.4Q502.0 128.9 502.0 129.4L502.0 129.4Q502.0 130.2 501.6 130.8Q501.3 131.4 500.7 131.8Q500.1 132.1 499.3 132.1ZM505.4 127.5L505.4 127.5Q504.9 127.5 504.6 127.3Q504.2 127.1 504.0 126.7Q503.9 126.3 503.9 125.9L503.9 125.9L503.9 125.5Q503.9 125.0 504.0 124.7Q504.2 124.3 504.6 124.1Q504.9 123.9 505.4 123.9L505.4 123.9Q506.0 123.9 506.3 124.1Q506.6 124.3 506.8 124.7Q507.0 125.0 507.0 125.5L507.0 125.5L507.0 125.9Q507.0 126.3 506.8 126.7Q506.6 127.1 506.3 127.3Q506.0 127.5 505.4 127.5ZM505.4 126.8L505.4 126.8Q505.8 126.8 506.0 126.6Q506.2 126.3 506.2 125.9L506.2 125.9L506.2 125.5Q506.2 125.1 506.0 124.9Q505.9 124.6 505.4 124.6L505.4 124.6Q505.0 124.6 504.9 124.9Q504.7 125.1 504.7 125.5L504.7 125.5L504.7 125.9Q504.7 126.3 504.9 126.6Q505.0 126.8 505.4 126.8ZM510.6 132.2L510.6 132.2Q510.1 132.2 509.8 131.9Q509.4 131.7 509.2 131.3Q509.1 131.0 509.1 130.5L509.1 130.5L509.1 130.1Q509.1 129.7 509.2 129.3Q509.4 128.9 509.8 128.7Q510.1 128.5 510.6 128.5L510.6 128.5Q511.2 128.5 511.5 128.7Q511.8 128.9 512.0 129.3Q512.2 129.7 512.2 130.1L512.2 130.1L512.2 130.5Q512.2 131.0 512.0 131.3Q511.8 131.7 511.5 131.9Q511.1 132.2 510.6 132.2ZM510.6 131.5L510.6 131.5Q511.0 131.5 511.2 131.2Q511.4 130.9 511.4 130.5L511.4 130.5L511.4 130.1Q511.4 129.8 511.2 129.5Q511.1 129.2 510.6 129.2L510.6 129.2Q510.2 129.2 510.1 129.5Q509.9 129.8 509.9 130.1L509.9 130.1L509.9 130.5Q509.9 130.9 510.1 131.2Q510.2 131.5 510.6 131.5ZM505.7 132L504.8 132L510.3 124.0L511.2 124.0L505.7 132Z "/></g><mask id="satori_om-id-1-2-1"><rect x="522" y="121" width="103" height="13" fill="#fff"/></mask><mask id="satori_om-id-1-2-1-0"><rect x="522" y="124" width="8" height="8" fill="#fff"/></mask><path x="522" y="124" width="8" height="8" fill="#f1e05a" d="M526,124 h0 a4,4 0 0 1 4,4 v0 a4,4 0 0 1 -4,4 h0 a4,4 0 0 1 -4,-4 v0 a4,4 0 0 1 4,-4"/><mask id="satori_om-id-1-2-1-1"><rect x="536" y="121" width="58" height="13" fill="#fff"/></mask><g  ><path fill="#cbd5e1" d="M539.0 132.1L539.0 132.1Q537.8 132.1 537.1 131.5Q536.4 130.8 536.4 129.6L536.4 129.6L536.4 129.1L538.0 129.1L538.0 129.6Q538.0 130.2 538.3 130.5Q538.6 130.8 539.0 130.8L539.0 130.8Q539.5 130.8 539.8 130.5Q540.1 130.2 540.1 129.6L540.1 129.6L540.1 124.0L541.7 124.0L541.7 129.6Q541.7 130.8 541.0 131.5Q540.3 132.1 539.0 132.1ZM544.8 132.1L544.8 132.1Q544.2 132.1 543.8 131.9Q543.3 131.7 543.1 131.3Q542.8 130.9 542.8 130.3L542.8 130.3Q542.8 129.8 543.0 129.5Q543.2 129.1 543.5 128.9Q543.8 128.7 544.2 128.6Q544.6 128.5 545.1 128.5L545.1 128.5Q545.6 128.4 545.9 128.4Q546.2 128.3 546.4 128.2Q546.5 128.1 546.5 127.9L546.5 127.9L546.5 127.9Q546.5 127.7 546.4 127.5Q546.3 127.3 546.1 127.2Q545.9 127.1 545.6 127.1L545.6 127.1Q545.3 127.1 545.0 127.2Q544.8 127.3 544.7 127.5Q544.5 127.6 544.4 127.8L544.4 127.8L543.0 127.6Q543.1 127.0 543.5 126.7Q543.8 126.3 544.4 126.1Q544.9 125.9 545.6 125.9L545.6 125.9Q546.1 125.9 546.5 126.0Q547.0 126.2 547.3 126.4Q547.7 126.6 547.9 127.0Q548.1 127.4 548.1 128.0L548.1 128.0L548.1 132L546.6 132L546.6 131.2L546.5 131.2Q546.4 131.4 546.2 131.7Q545.9 131.9 545.6 132.0Q545.2 132.1 544.8 132.1ZM545.2 131.0L545.2 131.0Q545.6 131.0 545.9 130.8Q546.2 130.7 546.4 130.4Q546.5 130.2 546.5 129.9L546.5 129.9L546.5 129.2Q546.5 129.3 546.3 129.3Q546.2 129.3 546.0 129.4Q545.8 129.4 545.6 129.4Q545.5 129.5 545.3 129.5L545.3 129.5Q545.0 129.5 544.8 129.6Q544.6 129.7 544.5 129.9Q544.3 130.0 544.3 130.3L544.3 130.3Q544.3 130.5 544.5 130.7Q544.6 130.8 544.8 130.9Q545.0 131.0 545.2 131.0ZM553.0 132L551.2 132L549.0 126.0L550.7 126.0L551.7 129.1Q551.9 129.7 552.0 130.3L552.0 130.3Q552.1 130.5 552.1 130.8L552.1 130.8Q552.2 130.5 552.2 130.3L552.2 130.3Q552.4 129.7 552.6 129.1L552.6 129.1L553.6 126.0L555.2 126.0L553.0 132ZM557.8 132.1L557.8 132.1Q557.2 132.1 556.8 131.9Q556.3 131.7 556.0 131.3Q555.8 130.9 555.8 130.3L555.8 130.3Q555.8 129.8 556.0 129.5Q556.1 129.1 556.5 128.9Q556.8 128.7 557.2 128.6Q557.6 128.5 558.0 128.5L558.0 128.5Q558.6 128.4 558.9 128.4Q559.2 128.3 559.4 128.2Q559.5 128.1 559.5 127.9L559.5 127.9L559.5 127.9Q559.5 127.7 559.4 127.5Q559.3 127.3 559.1 127.2Q558.9 127.1 558.6 127.1L558.6 127.1Q558.2 127.1 558.0 127.2Q557.8 127.3 557.6 127.5Q557.5 127.6 557.4 127.8L557.4 127.8L555.9 127.6Q556.1 127.0 556.5 126.7Q556.8 126.3 557.4 126.1Q557.9 125.9 558.6 125.9L558.6 125.9Q559.0 125.9 559.5 126.0Q560.0 126.2 560.3 126.4Q560.7 126.6 560.9 127.0Q561.1 127.4 561.1 128.0L561.1 128.0L561.1 132L559.6 132L559.6 131.2L559.5 131.2Q559.4 131.4 559.1 131.7Q558.9 131.9 558.6 132.0Q558.2 132.1 557.8 132.1ZM558.2 131.0L558.2 131.0Q558.6 131.0 558.9 130.8Q559.2 130.7 559.3 130.4Q559.5 130.2 559.5 129.9L559.5 129.9L559.5 129.2Q559.4 129.3 559.3 129.3Q559.1 129.3 559.0 129.4Q558.8 129.4 558.6 129.4Q558.5 129.5 558.3 129.5L558.3 129.5Q558.0 129.5 557.8 129.6Q557.6 129.7 557.4 129.9Q557.3 130.0 557.3 130.3L557.3 130.3Q557.3 130.5 557.4 130.7Q557.6 130.8 557.8 130.9Q558.0 131.0 558.2 131.0ZM565.5 132.1L565.5 132.1Q564.5 132.1 563.8 131.8Q563.1 131.5 562.7 130.9Q562.3 130.4 562.3 129.5L562.3 129.5L563.8 129.5Q563.9 129.9 564.1 130.2Q564.3 130.5 564.6 130.6Q565.0 130.7 565.4 130.7L565.4 130.7Q565.9 130.7 566.2 130.6Q566.5 130.5 566.7 130.2Q566.9 130.0 566.9 129.7L566.9 129.7Q566.9 129.4 566.7 129.3Q566.6 129.1 566.3 128.9Q566.0 128.8 565.5 128.7L565.5 128.7L564.6 128.5Q563.6 128.2 563.0 127.7Q562.5 127.2 562.5 126.3L562.5 126.3Q562.5 125.6 562.9 125.0Q563.2 124.5 563.9 124.2Q564.6 123.9 565.5 123.9L565.5 123.9Q566.4 123.9 567.0 124.2Q567.7 124.5 568.1 125.0Q568.4 125.6 568.4 126.3L568.4 126.3L566.9 126.3Q566.8 125.8 566.4 125.5Q566.1 125.3 565.5 125.3L565.5 125.3Q565.0 125.3 564.8 125.4Q564.5 125.5 564.3 125.7Q564.1 125.9 564.1 126.2L564.1 126.2Q564.1 126.5 564.3 126.7Q564.5 126.9 564.8 127.0Q565.1 127.1 565.4 127.2L565.4 127.2L566.2 127.4Q566.7 127.5 567.1 127.7Q567.5 127.9 567.9 128.2Q568.2 128.4 568.4 128.8Q568.5 129.2 568.5 129.7L568.5 129.7Q568.5 130.4 568.2 131.0Q567.8 131.5 567.1 131.8Q566.4 132.1 565.5 132.1ZM572.4 132.1L572.4 132.1Q571.5 132.1 570.8 131.7Q570.1 131.3 569.8 130.6Q569.4 129.9 569.4 129.0L569.4 129.0Q569.4 128.1 569.8 127.4Q570.1 126.7 570.8 126.3Q571.5 125.9 572.4 125.9L572.4 125.9Q572.9 125.9 573.4 126.1Q573.8 126.2 574.2 126.5Q574.5 126.7 574.7 127.1Q575.0 127.5 575.0 127.9L575.0 127.9L573.5 128.2Q573.5 128.0 573.4 127.8Q573.3 127.6 573.1 127.5Q573.0 127.3 572.8 127.3Q572.6 127.2 572.4 127.2L572.4 127.2Q572.0 127.2 571.7 127.4Q571.4 127.6 571.2 128.1Q571.1 128.5 571.1 129.0L571.1 129.0Q571.1 129.6 571.2 130.0Q571.4 130.4 571.7 130.6Q572.0 130.9 572.4 130.9L572.4 130.9Q572.6 130.9 572.8 130.8Q573.0 130.7 573.2 130.6Q573.3 130.4 573.4 130.2Q573.5 130.0 573.6 129.8L573.6 129.8L575.1 130.1Q575.0 130.6 574.7 130.9Q574.5 131.3 574.2 131.6Q573.8 131.8 573.4 132.0Q572.9 132.1 572.4 132.1ZM577.8 132L576.2 132L576.2 126.0L577.7 126.0L577.7 127.0L577.8 127.0Q577.9 126.5 578.3 126.2Q578.7 125.9 579.2 125.9L579.2 125.9Q579.4 125.9 579.5 125.9Q579.6 125.9 579.8 126.0L579.8 126.0L579.8 127.4Q579.6 127.4 579.4 127.3Q579.2 127.3 579.1 127.3L579.1 127.3Q578.7 127.3 578.4 127.5Q578.1 127.6 577.9 127.9Q577.8 128.2 577.8 128.6L577.8 128.6L577.8 132ZM582.3 132L580.6 132L580.6 126.0L582.3 126.0L582.3 132ZM581.4 125.2L581.4 125.2Q581.1 125.2 580.8 125.0Q580.6 124.7 580.6 124.4L580.6 124.4Q580.6 124.0 580.8 123.8Q581.1 123.6 581.4 123.6L581.4 123.6Q581.8 123.6 582.1 123.8Q582.3 124.0 582.3 124.4L582.3 124.4Q582.3 124.7 582.1 125.0Q581.8 125.2 581.4 125.2ZM585.2 134.2L583.6 134.2L583.6 126.0L585.2 126.0L585.2 127.0L585.3 127.0Q585.4 126.8 585.6 126.5Q585.8 126.3 586.1 126.1Q586.5 125.9 587.0 125.9L587.0 125.9Q587.7 125.9 588.2 126.3Q588.8 126.6 589.1 127.3Q589.4 128.0 589.4 129.0L589.4 129.0Q589.4 130.0 589.1 130.7Q588.8 131.4 588.2 131.7Q587.7 132.1 587.0 132.1L587.0 132.1Q586.5 132.1 586.2 131.9Q585.8 131.8 585.6 131.5Q585.4 131.3 585.3 131.0L585.3 131.0L585.2 131.0L585.2 134.2ZM586.5 130.8L586.5 130.8Q586.9 130.8 587.2 130.6Q587.5 130.3 587.6 129.9Q587.8 129.5 587.8 129.0L587.8 129.0Q587.8 128.5 587.6 128.1Q587.5 127.7 587.2 127.4Q586.9 127.2 586.5 127.2L586.5 127.2Q586.1 127.2 585.8 127.4Q585.5 127.7 585.3 128.1Q585.2 128.5 585.2 129.0L585.2 129.0Q585.2 129.5 585.3 130.0Q585.5 130.4 585.8 130.6Q586.1 130.8 586.5 130.8ZM592.4 126.0L593.5 126.0L593.5 127.2L592.4 127.2L592.4 130.2Q592.4 130.5 592.5 130.7Q592.7 130.8 593.0 130.8L593.0 130.8Q593.1 130.8 593.2 130.8Q593.4 130.8 593.5 130.7L593.5 130.7L593.7 131.9Q593.4 132.0 593.2 132.1Q592.9 132.1 592.7 132.1L592.7 132.1Q591.8 132.1 591.3 131.6Q590.8 131.2 590.8 130.4L590.8 130.4L590.8 127.2L590.0 127.2L590.0 126.0L590.8 126.0L590.8 124.6L592.4 124.6L592.4 126.0Z "/></g><mask id="satori_om-id-1-2-1-2"><rect x="600" y="121" width="25" height="13" fill="#fff"/></mask><g  ><path fill="#94a3b8" d="M605.9 132L600.8 132L600.8 131.3L603.5 128.4Q603.9 127.9 604.2 127.5Q604.5 127.2 604.7 126.8Q604.8 126.5 604.8 126.1L604.8 126.1Q604.8 125.7 604.6 125.4Q604.4 125.1 604.1 124.9Q603.7 124.8 603.3 124.8L603.3 124.8Q602.9 124.8 602.5 125.0Q602.2 125.1 602.0 125.5Q601.8 125.8 601.8 126.3L601.8 126.3L600.8 126.3Q600.8 125.6 601.2 125.0Q601.5 124.5 602.1 124.2Q602.6 123.9 603.3 123.9L603.3 123.9Q604.1 123.9 604.6 124.2Q605.2 124.5 605.5 125.0Q605.8 125.5 605.8 126.1L605.8 126.1Q605.8 126.6 605.6 127.0Q605.5 127.4 605.1 127.9Q604.7 128.4 604.0 129.2L604.0 129.2L602.2 131.0L602.2 131.1L605.9 131.1L605.9 132ZM609.9 132.1L609.9 132.1Q609.2 132.1 608.6 131.8Q608.1 131.6 607.8 131.1Q607.4 130.6 607.4 130.0L607.4 130.0L608.4 130.0Q608.4 130.3 608.6 130.6Q608.8 130.9 609.2 131.1Q609.5 131.2 609.9 131.2L609.9 131.2Q610.4 131.2 610.8 131.0Q611.2 130.8 611.4 130.4Q611.6 130.0 611.6 129.5L611.6 129.5Q611.6 128.9 611.4 128.5Q611.1 128.1 610.7 127.9Q610.4 127.7 609.8 127.7L609.8 127.7Q609.5 127.7 609.1 127.8Q608.7 127.9 608.5 128.1L608.5 128.1L607.5 128.0L608.0 124.0L612.2 124.0L612.2 124.9L608.9 124.9L608.6 127.2L608.6 127.2Q608.9 127.0 609.2 126.9Q609.6 126.8 610.0 126.8L610.0 126.8Q610.6 126.8 611.0 127.0Q611.5 127.2 611.9 127.5Q612.2 127.9 612.4 128.4Q612.6 128.9 612.6 129.4L612.6 129.4Q612.6 130.2 612.2 130.8Q611.9 131.4 611.3 131.8Q610.7 132.1 609.9 132.1ZM616.0 127.5L616.0 127.5Q615.5 127.5 615.2 127.3Q614.8 127.1 614.6 126.7Q614.5 126.3 614.5 125.9L614.5 125.9L614.5 125.5Q614.5 125.0 614.7 124.7Q614.8 124.3 615.2 124.1Q615.5 123.9 616.0 123.9L616.0 123.9Q616.6 123.9 616.9 124.1Q617.3 124.3 617.4 124.7Q617.6 125.0 617.6 125.5L617.6 125.5L617.6 125.9Q617.6 126.3 617.4 126.7Q617.2 127.1 616.9 127.3Q616.6 127.5 616.0 127.5ZM616.0 126.8L616.0 126.8Q616.5 126.8 616.6 126.6Q616.8 126.3 616.8 125.9L616.8 125.9L616.8 125.5Q616.8 125.1 616.6 124.9Q616.5 124.6 616.0 124.6L616.0 124.6Q615.6 124.6 615.5 124.9Q615.3 125.1 615.3 125.5L615.3 125.5L615.3 125.9Q615.3 126.3 615.5 126.6Q615.6 126.8 616.0 126.8ZM621.2 132.2L621.2 132.2Q620.7 132.2 620.4 131.9Q620.0 131.7 619.8 131.3Q619.7 131.0 619.7 130.5L619.7 130.5L619.7 130.1Q619.7 129.7 619.8 129.3Q620.0 128.9 620.4 128.7Q620.7 128.5 621.2 128.5L621.2 128.5Q621.8 128.5 622.1 128.7Q622.5 128.9 622.6 129.3Q622.8 129.7 622.8 130.1L622.8 130.1L622.8 130.5Q622.8 131.0 622.6 131.3Q622.4 131.7 622.1 131.9Q621.7 132.2 621.2 132.2ZM621.2 131.5L621.2 131.5Q621.6 131.5 621.8 131.2Q622.0 130.9 622.0 130.5L622.0 130.5L622.0 130.1Q622.0 129.8 621.8 129.5Q621.7 129.2 621.2 129.2L621.2 129.2Q620.8 129.2 620.7 129.5Q620.5 129.8 620.5 130.1L620.5 130.1L620.5 130.5Q620.5 130.9 620.7 131.2Q620.8 131.5 621.2 131.5ZM616.3 132L615.4 132L620.9 124.0L621.8 124.0L616.3 132Z "/></g><mask id="satori_om-id-1-2-2"><rect x="633" y="121" width="81" height="13" fill="#fff"/></mask><mask id="satori_om-id-1-2-2-0"><rect x="633" y="124" width="8" height="8" fill="#fff"/></mask><path x="633" y="124" width="8" height="8" fill="#3572A5" d="M637,124 h0 a4,4 0 0 1 4,4 v0 a4,4 0 0 1 -4,4 h0 a4,4 0 0 1 -4,-4 v0 a4,4 0 0 1 4,-4"/><mask id="satori_om-id-1-2-2-1"><rect x="647" y="121" width="39" height="13" fill="#fff"/></mask><g  ><path fill="#cbd5e1" d="M649.4 132L647.7 132L647.7 124.0L650.8 124.0Q651.8 124.0 652.4 124.3Q653.0 124.7 653.4 125.3Q653.7 125.9 653.7 126.7L653.7 126.7Q653.7 127.5 653.4 128.1Q653.0 128.7 652.4 129.0Q651.7 129.4 650.8 129.4L650.8 129.4L649.4 129.4L649.4 132ZM649.4 125.4L649.4 128.1L650.5 128.1Q651.0 128.1 651.4 127.9Q651.7 127.7 651.9 127.4Q652.0 127.1 652.0 126.7Q652.0 126.3 651.9 126.0Q651.7 125.7 651.4 125.5Q651.0 125.4 650.5 125.4L650.5 125.4L649.4 125.4ZM654.8 134.1L654.8 134.1L655.1 132.9L655.3 133.0Q655.7 133.0 655.9 133.0Q656.2 133.0 656.3 132.8Q656.5 132.6 656.5 132.3L656.5 132.3L656.5 132.0L654.3 126.0L656.0 126.0L657.0 129.1Q657.2 129.7 657.3 130.3L657.3 130.3Q657.4 130.5 657.4 130.7L657.4 130.7Q657.4 130.5 657.5 130.3L657.5 130.3Q657.6 129.7 657.8 129.1L657.8 129.1L658.9 126.0L660.6 126.0L658.0 132.7Q657.8 133.2 657.6 133.5Q657.3 133.9 656.9 134.1Q656.4 134.3 655.8 134.3L655.8 134.3Q655.5 134.3 655.2 134.2Q654.9 134.2 654.8 134.1ZM663.3 126.0L664.4 126.0L664.4 127.2L663.3 127.2L663.3 130.2Q663.3 130.5 663.4 130.7Q663.5 130.8 663.8 130.8L663.8 130.8Q663.9 130.8 664.1 130.8Q664.3 130.8 664.4 130.7L664.4 130.7L664.6 131.9Q664.3 132.0 664.1 132.1Q663.8 132.1 663.5 132.1L663.5 132.1Q662.6 132.1 662.2 131.6Q661.7 131.2 661.7 130.4L661.7 130.4L661.7 127.2L660.9 127.2L660.9 126.0L661.7 126.0L661.7 124.6L663.3 124.6L663.3 126.0ZM667.1 128.5L667.1 128.5L667.1 132L665.5 132L665.5 124.0L667.0 124.0L667.0 127.1Q667.3 126.6 667.6 126.3L667.6 126.3Q668.1 125.9 668.9 125.9L668.9 125.9Q669.5 125.9 670.0 126.2Q670.4 126.5 670.7 127.0Q670.9 127.5 670.9 128.2L670.9 128.2L670.9 132L669.3 132L669.3 128.5Q669.3 127.9 669.0 127.6Q668.8 127.3 668.2 127.3L668.2 127.3Q667.9 127.3 667.6 127.4Q667.4 127.6 667.2 127.8Q667.1 128.1 667.1 128.5ZM675.0 132.1L675.0 132.1Q674.1 132.1 673.4 131.7Q672.8 131.3 672.4 130.6Q672.1 129.9 672.1 129.0L672.1 129.0Q672.1 128.1 672.4 127.4Q672.8 126.7 673.4 126.3Q674.1 125.9 675.0 125.9L675.0 125.9Q675.9 125.9 676.6 126.3Q677.2 126.7 677.6 127.4Q677.9 128.1 677.9 129.0L677.9 129.0Q677.9 129.9 677.6 130.6Q677.2 131.3 676.6 131.7Q675.9 132.1 675.0 132.1ZM675.0 130.9L675.0 130.9Q675.4 130.9 675.7 130.6Q676.0 130.4 676.2 130.0Q676.3 129.5 676.3 129.0L676.3 129.0Q676.3 128.5 676.2 128.1Q676.0 127.7 675.7 127.4Q675.4 127.2 675.0 127.2L675.0 127.2Q674.6 127.2 674.3 127.4Q674.0 127.7 673.9 128.1Q673.7 128.5 673.7 129.0L673.7 129.0Q673.7 129.5 673.9 130.0Q674.0 130.4 674.3 130.6Q674.6 130.9 675.0 130.9ZM680.7 128.5L680.7 128.5L680.7 132L679.1 132L679.1 126.0L680.6 126.0L680.6 127.2Q680.8 126.7 681.2 126.3L681.2 126.3Q681.7 125.9 682.5 125.9L682.5 125.9Q683.1 125.9 683.6 126.2Q684.0 126.5 684.3 127.0Q684.5 127.5 684.5 128.2L684.5 128.2L684.5 132L682.9 132L682.9 128.5Q682.9 127.9 682.6 127.6Q682.3 127.3 681.8 127.3L681.8 127.3Q681.5 127.3 681.2 127.4Q681.0 127.6 680.8 127.8Q680.7 128.1 680.7 128.5Z "/></g><mask id="satori_om-id-1-2-2-2"><rect x="692" y="121" width="22" height="13" fill="#fff"/></mask><g  ><path fill="#94a3b8" d="M694.3 124.0L695.5 124.0L695.5 132L694.5 132L694.5 124.9L694.4 124.9L692.5 126.4L692.5 125.3L694.3 124.0ZM699.7 132.1L699.7 132.1Q699.0 132.1 698.4 131.8Q697.9 131.6 697.5 131.1Q697.2 130.6 697.2 130.0L697.2 130.0L698.1 130.0Q698.2 130.3 698.4 130.6Q698.6 130.9 698.9 131.1Q699.3 131.2 699.7 131.2L699.7 131.2Q700.2 131.2 700.5 131.0Q700.9 130.8 701.1 130.4Q701.3 130.0 701.3 129.5L701.3 129.5Q701.3 128.9 701.1 128.5Q700.9 128.1 700.5 127.9Q700.1 127.7 699.6 127.7L699.6 127.7Q699.2 127.7 698.9 127.8Q698.5 127.9 698.2 128.1L698.2 128.1L697.3 128.0L697.8 124.0L702.0 124.0L702.0 124.9L698.6 124.9L698.3 127.2L698.4 127.2Q698.6 127.0 699.0 126.9Q699.4 126.8 699.8 126.8L699.8 126.8Q700.3 126.8 700.8 127.0Q701.3 127.2 701.6 127.5Q702.0 127.9 702.2 128.4Q702.3 128.9 702.3 129.4L702.3 129.4Q702.3 130.2 702.0 130.8Q701.7 131.4 701.1 131.8Q700.4 132.1 699.7 132.1ZM705.8 127.5L705.8 127.5Q705.3 127.5 704.9 127.3Q704.6 127.1 704.4 126.7Q704.2 126.3 704.2 125.9L704.2 125.9L704.2 125.5Q704.2 125.0 704.4 124.7Q704.6 124.3 705.0 124.1Q705.3 123.9 705.8 123.9L705.8 123.9Q706.3 123.9 706.7 124.1Q707.0 124.3 707.2 124.7Q707.4 125.0 707.4 125.5L707.4 125.5L707.4 125.9Q707.4 126.3 707.2 126.7Q707.0 127.1 706.7 127.3Q706.3 127.5 705.8 127.5ZM705.8 126.8L705.8 126.8Q706.2 126.8 706.4 126.6Q706.6 126.3 706.6 125.9L706.6 125.9L706.6 125.5Q706.6 125.1 706.4 124.9Q706.2 124.6 705.8 124.6L705.8 124.6Q705.4 124.6 705.2 124.9Q705.1 125.1 705.1 125.5L705.1 125.5L705.1 125.9Q705.1 126.3 705.2 126.6Q705.4 126.8 705.8 126.8ZM711.0 132.2L711.0 132.2Q710.5 132.2 710.1 131.9Q709.8 131.7 709.6 131.3Q709.4 131.0 709.4 130.5L709.4 130.5L709.4 130.1Q709.4 129.7 709.6 129.3Q709.8 128.9 710.1 128.7Q710.5 128.5 711.0 128.5L711.0 128.5Q711.5 128.5 711.9 128.7Q712.2 128.9 712.4 129.3Q712.6 129.7 712.6 130.1L712.6 130.1L712.6 130.5Q712.6 131.0 712.4 131.3Q712.2 131.7 711.9 131.9Q711.5 132.2 711.0 132.2ZM711.0 131.5L711.0 131.5Q711.4 131.5 711.6 131.2Q711.7 130.9 711.7 130.5L711.7 130.5L711.7 130.1Q711.7 129.8 711.6 129.5Q711.4 129.2 711.0 129.2L711.0 129.2Q710.6 129.2 710.4 129.5Q710.3 129.8 710.3 130.1L710.3 130.1L710.3 130.5Q710.3 130.9 710.4 131.2Q710.6 131.5 711.0 131.5ZM706.1 132L705.2 132L710.7 124.0L711.6 124.0L706.1 132Z "/></g><mask id="satori_om-id-1-2-3"><rect x="722" y="121" width="68" height="13" fill="#fff"/></mask><mask id="satori_om-id-1-2-3-0"><rect x="722" y="124" width="8" height="8" fill="#fff"/></mask><path x="722" y="124" width="8" height="8" fill="#dea584" d="M726,124 h0 a4,4 0 0 1 4,4 v0 a4,4 0 0 1 -4,4 h0 a4,4 0 0 1 -4,-4 v0 a4,4 0 0 1 4,-4"/><mask id="satori_om-id-1-2-3-1"><rect x="736" y="121" width="25" height="13" fill="#fff"/></mask><g  ><path fill="#cbd5e1" d="M738.4 132L736.7 132L736.7 124.0L739.8 124.0Q740.8 124.0 741.4 124.3Q742.0 124.6 742.4 125.2Q742.7 125.8 742.7 126.6Q742.7 127.4 742.4 128.0Q742.0 128.5 741.4 128.8L741.4 128.8Q741.3 128.9 741.3 128.9L741.3 128.9L743.0 132L741.2 132L739.6 129.1L738.4 129.1L738.4 132ZM738.4 125.4L738.4 127.8L739.5 127.8Q740.0 127.8 740.4 127.7Q740.7 127.5 740.9 127.3Q741.0 127.0 741.0 126.6L741.0 126.6Q741.0 126.2 740.9 125.9Q740.7 125.6 740.4 125.5Q740.0 125.4 739.5 125.4L739.5 125.4L738.4 125.4ZM746.0 132.1L746.0 132.1Q745.4 132.1 744.9 131.8Q744.4 131.5 744.2 131.0Q743.9 130.5 743.9 129.8L743.9 129.8L743.9 126.0L745.5 126.0L745.5 129.5Q745.5 130.1 745.8 130.4Q746.1 130.7 746.6 130.7L746.6 130.7Q747.0 130.7 747.2 130.6Q747.5 130.4 747.6 130.1Q747.8 129.9 747.8 129.5L747.8 129.5L747.8 126.0L749.4 126.0L749.4 132L747.9 132L747.8 130.7Q747.6 131.3 747.2 131.7L747.2 131.7Q746.7 132.1 746.0 132.1ZM753.1 132.1L753.1 132.1Q752.4 132.1 751.9 131.9Q751.3 131.7 750.9 131.3Q750.6 130.9 750.5 130.4L750.5 130.4L752.0 130.1Q752.1 130.5 752.4 130.7Q752.7 130.9 753.2 130.9L753.2 130.9Q753.7 130.9 753.9 130.8Q754.2 130.6 754.2 130.3L754.2 130.3Q754.2 130.1 754.0 129.9Q753.8 129.8 753.4 129.7L753.4 129.7L752.4 129.5Q751.5 129.3 751.1 128.9Q750.6 128.5 750.6 127.8L750.6 127.8Q750.6 127.2 751.0 126.8Q751.3 126.4 751.8 126.1Q752.4 125.9 753.2 125.9L753.2 125.9Q753.9 125.9 754.4 126.1Q754.9 126.3 755.2 126.7Q755.6 127.0 755.7 127.5L755.7 127.5L754.2 127.8Q754.2 127.5 753.9 127.3Q753.6 127.1 753.2 127.1L753.2 127.1Q752.8 127.1 752.5 127.2Q752.3 127.4 752.3 127.7L752.3 127.7Q752.3 127.9 752.4 128.1Q752.6 128.2 753.0 128.3L753.0 128.3L754.1 128.5Q755.0 128.7 755.4 129.1Q755.8 129.5 755.8 130.1L755.8 130.1Q755.8 130.7 755.5 131.2Q755.1 131.6 754.5 131.9Q753.9 132.1 753.1 132.1ZM758.8 126.0L759.9 126.0L759.9 127.2L758.8 127.2L758.8 130.2Q758.8 130.5 758.9 130.7Q759.0 130.8 759.3 130.8L759.3 130.8Q759.4 130.8 759.6 130.8Q759.8 130.8 759.8 130.7L759.8 130.7L760.1 131.9Q759.8 132.0 759.5 132.1Q759.3 132.1 759.0 132.1L759.0 132.1Q758.1 132.1 757.6 131.6Q757.2 131.2 757.2 130.4L757.2 130.4L757.2 127.2L756.3 127.2L756.3 126.0L757.2 126.0L757.2 124.6L758.8 124.6L758.8 126.0Z "/></g><mask id="satori_om-id-1-2-3-2"><rect x="767" y="121" width="23" height="13" fill="#fff"/></mask><g  ><path fill="#94a3b8" d="M769.3 124.0L770.5 124.0L770.5 132L769.5 132L769.5 124.9L769.4 124.9L767.5 126.4L767.5 125.3L769.3 124.0ZM774.9 132.1L774.9 132.1Q774.1 132.1 773.4 131.6Q772.8 131.1 772.5 130.2Q772.1 129.3 772.1 128.0L772.1 128.0Q772.1 126.7 772.5 125.8Q772.8 124.9 773.4 124.4Q774.1 123.9 774.9 123.9L774.9 123.9Q775.8 123.9 776.5 124.4Q777.1 124.9 777.4 125.8Q777.8 126.7 777.8 128.0L777.8 128.0Q777.8 129.3 777.4 130.2Q777.1 131.1 776.5 131.6Q775.8 132.1 774.9 132.1ZM774.9 131.2L774.9 131.2Q775.5 131.2 775.9 130.8Q776.3 130.5 776.6 129.7Q776.8 129.0 776.8 128.0L776.8 128.0Q776.8 127.0 776.6 126.3Q776.3 125.5 775.9 125.2Q775.5 124.8 774.9 124.8L774.9 124.8Q774.4 124.8 774.0 125.2Q773.5 125.5 773.3 126.3Q773.1 127.0 773.1 128.0L773.1 128.0Q773.1 129.0 773.3 129.7Q773.5 130.5 774.0 130.8Q774.4 131.2 774.9 131.2ZM781.2 127.5L781.2 127.5Q780.7 127.5 780.4 127.3Q780.0 127.1 779.8 126.7Q779.6 126.3 779.6 125.9L779.6 125.9L779.6 125.5Q779.6 125.0 779.8 124.7Q780.0 124.3 780.4 124.1Q780.7 123.9 781.2 123.9L781.2 123.9Q781.7 123.9 782.1 124.1Q782.4 124.3 782.6 124.7Q782.8 125.0 782.8 125.5L782.8 125.5L782.8 125.9Q782.8 126.3 782.6 126.7Q782.4 127.1 782.1 127.3Q781.7 127.5 781.2 127.5ZM781.2 126.8L781.2 126.8Q781.6 126.8 781.8 126.6Q782.0 126.3 782.0 125.9L782.0 125.9L782.0 125.5Q782.0 125.1 781.8 124.9Q781.6 124.6 781.2 124.6L781.2 124.6Q780.8 124.6 780.6 124.9Q780.5 125.1 780.5 125.5L780.5 125.5L780.5 125.9Q780.5 126.3 780.6 126.6Q780.8 126.8 781.2 126.8ZM786.4 132.2L786.4 132.2Q785.9 132.2 785.6 131.9Q785.2 131.7 785.0 131.3Q784.8 131.0 784.8 130.5L784.8 130.5L784.8 130.1Q784.8 129.7 785.0 129.3Q785.2 128.9 785.6 128.7Q785.9 128.5 786.4 128.5L786.4 128.5Q786.9 128.5 787.3 128.7Q787.6 128.9 787.8 129.3Q788.0 129.7 788.0 130.1L788.0 130.1L788.0 130.5Q788.0 131.0 787.8 131.3Q787.6 131.7 787.3 131.9Q786.9 132.2 786.4 132.2ZM786.4 131.5L786.4 131.5Q786.8 131.5 787.0 131.2Q787.2 130.9 787.2 130.5L787.2 130.5L787.2 130.1Q787.2 129.8 787.0 129.5Q786.8 129.2 786.4 129.2L786.4 129.2Q786.0 129.2 785.8 129.5Q785.7 129.8 785.7 130.1L785.7 130.1L785.7 130.5Q785.7 130.9 785.8 131.2Q786.0 131.5 786.4 131.5ZM781.5 132L780.6 132L786.1 124.0L787.0 124.0L781.5 132Z "/></g><mask id="satori_om-id-1-2-4"><rect x="409" y="142" width="54" height="13" fill="#fff"/></mask><mask id="satori_om-id-1-2-4-0"><rect x="409" y="145" width="8" height="8" fill="#fff"/></mask><path x="409" y="145" width="8" height="8" fill="#00ADD8" d="M413,145 h0 a4,4 0 0 1 4,4 v0 a4,4 0 0 1 -4,4 h0 a4,4 0 0 1 -4,-4 v0 a4,4 0 0 1 4,-4"/><mask id="satori_om-id-1-2-4-1"><rect x="423" y="142" width="16" height="13" fill="#fff"/></mask><g  ><path fill="#cbd5e1" d="M427.3 153.1L427.3 153.1Q426.1 153.1 425.3 152.6Q424.5 152.1 424.0 151.2Q423.5 150.3 423.5 149.0L423.5 149.0Q423.5 147.7 424.0 146.8Q424.5 145.9 425.3 145.4Q426.2 144.9 427.2 144.9L427.2 144.9Q427.9 144.9 428.5 145.1Q429.1 145.3 429.5 145.6Q430.0 146.0 430.3 146.5Q430.6 147.0 430.6 147.6L430.6 147.6L429.0 147.6Q428.9 147.3 428.7 147.1Q428.6 146.8 428.4 146.7Q428.2 146.5 427.9 146.4Q427.6 146.3 427.3 146.3L427.3 146.3Q426.6 146.3 426.2 146.7Q425.7 147.0 425.4 147.6Q425.2 148.1 425.2 149.0Q425.2 149.8 425.4 150.4Q425.7 151.0 426.2 151.3Q426.6 151.7 427.3 151.7L427.3 151.7Q427.9 151.7 428.3 151.4Q428.7 151.2 428.9 150.8L428.9 150.8Q429.1 150.5 429.1 150.0L429.1 150.0L427.4 150.0L427.4 148.7L430.7 148.7L430.7 149.7Q430.7 150.8 430.3 151.5Q429.8 152.3 429.1 152.7Q428.3 153.1 427.3 153.1ZM434.6 153.1L434.6 153.1Q433.7 153.1 433.1 152.7Q432.4 152.3 432.0 151.6Q431.7 150.9 431.7 150.0L431.7 150.0Q431.7 149.1 432.0 148.4Q432.4 147.7 433.1 147.3Q433.7 146.9 434.6 146.9L434.6 146.9Q435.5 146.9 436.2 147.3Q436.9 147.7 437.2 148.4Q437.6 149.1 437.6 150.0L437.6 150.0Q437.6 150.9 437.2 151.6Q436.9 152.3 436.2 152.7Q435.5 153.1 434.6 153.1ZM434.6 151.9L434.6 151.9Q435.1 151.9 435.3 151.6Q435.6 151.4 435.8 151.0Q435.9 150.5 435.9 150.0L435.9 150.0Q435.9 149.5 435.8 149.1Q435.6 148.7 435.3 148.4Q435.1 148.2 434.6 148.2L434.6 148.2Q434.2 148.2 433.9 148.4Q433.6 148.7 433.5 149.1Q433.3 149.5 433.3 150.0L433.3 150.0Q433.3 150.5 433.5 151.0Q433.6 151.4 433.9 151.6Q434.2 151.9 434.6 151.9Z "/></g><mask id="satori_om-id-1-2-4-2"><rect x="445" y="142" width="18" height="13" fill="#fff"/></mask><g  ><path fill="#94a3b8" d="M448.2 153.1L448.2 153.1Q447.5 153.1 446.9 152.8Q446.4 152.6 446.0 152.1Q445.7 151.6 445.7 151.0L445.7 151.0L446.7 151.0Q446.7 151.3 446.9 151.6Q447.1 151.9 447.5 152.1Q447.8 152.2 448.2 152.2L448.2 152.2Q448.7 152.2 449.1 152.0Q449.4 151.8 449.7 151.4Q449.9 151.0 449.9 150.5L449.9 150.5Q449.9 149.9 449.6 149.5Q449.4 149.1 449.0 148.9Q448.6 148.7 448.1 148.7L448.1 148.7Q447.8 148.7 447.4 148.8Q447.0 148.9 446.8 149.1L446.8 149.1L445.8 149.0L446.3 145.0L450.5 145.0L450.5 145.9L447.1 145.9L446.9 148.2L446.9 148.2Q447.2 148.0 447.5 147.9Q447.9 147.8 448.3 147.8L448.3 147.8Q448.9 147.8 449.3 148.0Q449.8 148.2 450.1 148.5Q450.5 148.9 450.7 149.4Q450.9 149.9 450.9 150.4L450.9 150.4Q450.9 151.2 450.5 151.8Q450.2 152.4 449.6 152.8Q449.0 153.1 448.2 153.1ZM454.3 148.5L454.3 148.5Q453.8 148.5 453.5 148.3Q453.1 148.1 452.9 147.7Q452.8 147.3 452.8 146.9L452.8 146.9L452.8 146.5Q452.8 146.0 452.9 145.7Q453.1 145.3 453.5 145.1Q453.8 144.9 454.3 144.9L454.3 144.9Q454.9 144.9 455.2 145.1Q455.5 145.3 455.7 145.7Q455.9 146.0 455.9 146.5L455.9 146.5L455.9 146.9Q455.9 147.3 455.7 147.7Q455.5 148.1 455.2 148.3Q454.8 148.5 454.3 148.5ZM454.3 147.8L454.3 147.8Q454.7 147.8 454.9 147.6Q455.1 147.3 455.1 146.9L455.1 146.9L455.1 146.5Q455.1 146.1 454.9 145.9Q454.8 145.6 454.3 145.6L454.3 145.6Q453.9 145.6 453.8 145.9Q453.6 146.1 453.6 146.5L453.6 146.5L453.6 146.9Q453.6 147.3 453.8 147.6Q453.9 147.8 454.3 147.8ZM459.5 153.2L459.5 153.2Q459.0 153.2 458.7 152.9Q458.3 152.7 458.1 152.3Q458.0 152.0 458.0 151.5L458.0 151.5L458.0 151.1Q458.0 150.7 458.1 150.3Q458.3 149.9 458.7 149.7Q459.0 149.5 459.5 149.5L459.5 149.5Q460.0 149.5 460.4 149.7Q460.7 149.9 460.9 150.3Q461.1 150.7 461.1 151.1L461.1 151.1L461.1 151.5Q461.1 152.0 460.9 152.3Q460.7 152.7 460.4 152.9Q460.0 153.2 459.5 153.2ZM459.5 152.5L459.5 152.5Q459.9 152.5 460.1 152.2Q460.3 151.9 460.3 151.5L460.3 151.5L460.3 151.1Q460.3 150.8 460.1 150.5Q459.9 150.2 459.5 150.2L459.5 150.2Q459.1 150.2 459.0 150.5Q458.8 150.8 458.8 151.1L458.8 151.1L458.8 151.5Q458.8 151.9 458.9 152.2Q459.1 152.5 459.5 152.5ZM454.6 153L453.7 153L459.2 145.0L460.1 145.0L454.6 153Z "/></g></svg>