<!-- Generated by readme-aura https://github.com/collectioneur/readme-aura -->
<svg width="850" height="220" viewBox="0 0 850 220" xmlns="http://www.w3.org/2000/svg"><defs><clipPath id="satori_bc-id"><path x="0" y="0" width="850" height="220" d="M16,0 h818 a16,16 0 0 1 16,16 v188 a16,16 0 0 1 -16,16 h-818 a16,16 0 0 1 -16,-16 v-188 a16,16 0 0 1 16,-16"/></clipPath></defs><mask id="satori_om-id"><rect x="1" y="1" width="848" height="218" fill="#fff"/><path width="850" height="220" fill="none" stroke="#000" stroke-width="2" d="M4.686,4.686 A16,16 0 0 1 16,0 h818 a16,16 0 0 1 16,16 v188 a16,16 0 0 1 -16,16 h-818 a16,16 0 0 1 -16,-16 v-188 A16,16 0 0 1 4.686,4.686"/></mask><path x="0" y="0" width="850" height="220" fill="#05070f" d="M16,0 h818 a16,16 0 0 1 16,16 v188 a16,16 0 0 1 -16,16 h-818 a16,16 0 0 1 -16,-16 v-188 a16,16 0 0 1 16,-16"/><path width="850" height="220" clip-path="url(#satori_bc-id)" fill="none" stroke="#00f0ff" stroke-width="2" d="M4.686,4.686 A16,16 0 0 1 16,0 h818 a16,16 0 0 1 16,16 v188 a16,16 0 0 1 -16,16 h-818 a16,16 0 0 1 -16,-16 v-188 A16,16 0 0 1 4.686,4.686"/><defs><clipPath id="satori_bc-id-0"><rect x="25" y="31" width="360" height="158"/></clipPath></defs><mask id="satori_om-id-0"><rect x="25" y="31" width="359" height="158" fill="#fff"/><path width="360" height="158" fill="none" stroke="#000" stroke-width="2" d="M385,31 A0,0 0 0 1 385,31 v158 A0,0 0 0 1 385,189"/></mask><path width="360" height="158" clip-path="url(#satori_bc-id-0)" fill="none" stroke="rgba(0,240,255,0.15)" stroke-width="2" d="M385,31 A0,0 0 0 1 385,31 v158 A0,0 0 0 1 385,189"/><mask id="satori_om-id-0-0"><rect x="25" y="31" width="335" height="16" fill="#fff"/></mask><g  ><path fill="#00f0ff" d="M32.8 39.4L32.8 41.0L26.3 43.9L26.3 42.1L30.7 40.3L30.7 40.2L26.3 38.4L26.3 36.6L32.8 39.4Z M40.6 44L38.7 44L38.7 36.9L40.5 36.9L40.6 38.3Q40.7 37.9 40.9 37.6L40.9 37.6Q41.2 37.2 41.7 37.0Q42.1 36.8 42.6 36.8L42.6 36.8Q43.3 36.8 43.8 37.3L43.8 37.3Q44.2 37.7 44.4 38.4L44.4 38.4Q44.6 38.0 44.8 37.7L44.8 37.7Q45.2 37.2 45.7 37.0Q46.1 36.8 46.7 36.8L46.7 36.8Q47.3 36.8 47.9 37.1Q48.4 37.4 48.7 37.9Q49.0 38.4 49.0 39.2L49.0 39.2L49.0 44L47.0 44L47.0 39.6Q47.0 39.0 46.7 38.7Q46.4 38.4 45.9 38.4L45.9 38.4Q45.6 38.4 45.3 38.5Q45.0 38.7 44.9 39.0Q44.8 39.3 44.8 39.6L44.8 39.6L44.8 44L42.9 44L42.9 39.5Q42.9 39.0 42.6 38.7Q42.3 38.4 41.8 38.4L41.8 38.4Q41.5 38.4 41.2 38.5Q40.9 38.7 40.8 39.0Q40.6 39.3 40.6 39.7L40.6 39.7L40.6 44ZM54.3 44.1L54.3 44.1Q53.2 44.1 52.4 43.7Q51.6 43.2 51.2 42.4Q50.8 41.6 50.8 40.5L50.8 40.5Q50.8 39.4 51.2 38.6Q51.6 37.7 52.4 37.3Q53.2 36.8 54.3 36.8L54.3 36.8Q55.3 36.8 56.1 37.3Q56.9 37.7 57.3 38.6Q57.7 39.4 57.7 40.5L57.7 40.5Q57.7 41.6 57.3 42.4Q56.9 43.2 56.1 43.7Q55.3 44.1 54.3 44.1ZM54.3 42.6L54.3 42.6Q54.8 42.6 55.1 42.4Q55.4 42.1 55.6 41.6Q55.8 41.1 55.8 40.5L55.8 40.5Q55.8 39.8 55.6 39.4Q55.4 38.9 55.1 38.6Q54.8 38.3 54.3 38.3L54.3 38.3Q53.7 38.3 53.4 38.6Q53.1 38.9 52.9 39.4Q52.7 39.8 52.7 40.5L52.7 40.5Q52.7 41.1 52.9 41.6Q53.1 42.1 53.4 42.4Q53.7 42.6 54.3 42.6ZM61.5 39.9L61.5 39.9L61.5 44L59.6 44L59.6 36.9L61.3 36.9L61.4 38.4Q61.6 37.7 62.1 37.3L62.1 37.3Q62.7 36.8 63.6 36.8L63.6 36.8Q64.3 36.8 64.9 37.1Q65.4 37.5 65.7 38.1Q66.0 38.7 66.0 39.5L66.0 39.5L66.0 44L64.1 44L64.1 39.8Q64.1 39.2 63.8 38.8Q63.4 38.4 62.8 38.4L62.8 38.4Q62.4 38.4 62.1 38.6Q61.8 38.8 61.6 39.1Q61.5 39.4 61.5 39.9ZM70.0 44L68.1 44L68.1 36.9L70.0 36.9L70.0 44ZM69.1 36.0L69.1 36.0Q68.7 36.0 68.4 35.7Q68.1 35.4 68.1 35.0L68.1 35.0Q68.1 34.6 68.4 34.3Q68.7 34.0 69.1 34.0L69.1 34.0Q69.5 34.0 69.8 34.3Q70.1 34.6 70.1 35.0L70.1 35.0Q70.1 35.4 69.8 35.7Q69.5 36.0 69.1 36.0ZM74.4 36.9L75.7 36.9L75.7 38.4L74.4 38.4L74.4 41.9Q74.4 42.3 74.5 42.4Q74.7 42.6 75.0 42.6L75.0 42.6Q75.1 42.6 75.3 42.6Q75.5 42.5 75.6 42.5L75.6 42.5L75.9 43.9Q75.6 44.0 75.3 44.1Q74.9 44.1 74.7 44.1L74.7 44.1Q73.6 44.1 73.0 43.6Q72.5 43.1 72.5 42.1L72.5 42.1L72.5 38.4L71.5 38.4L71.5 36.9L72.5 36.9L72.5 35.2L74.4 35.2L74.4 36.9ZM80.6 44.1L80.6 44.1Q79.5 44.1 78.8 43.7Q78.0 43.2 77.6 42.4Q77.1 41.6 77.1 40.5L77.1 40.5Q77.1 39.4 77.6 38.6Q78.0 37.7 78.8 37.3Q79.5 36.8 80.6 36.8L80.6 36.8Q81.7 36.8 82.5 37.3Q83.2 37.7 83.7 38.6Q84.1 39.4 84.1 40.5L84.1 40.5Q84.1 41.6 83.7 42.4Q83.2 43.2 82.5 43.7Q81.7 44.1 80.6 44.1ZM80.6 42.6L80.6 42.6Q81.1 42.6 81.5 42.4Q81.8 42.1 82.0 41.6Q82.1 41.1 82.1 40.5L82.1 40.5Q82.1 39.8 82.0 39.4Q81.8 38.9 81.5 38.6Q81.1 38.3 80.6 38.3L80.6 38.3Q80.1 38.3 79.8 38.6Q79.4 38.9 79.2 39.4Q79.1 39.8 79.1 40.5L79.1 40.5Q79.1 41.1 79.2 41.6Q79.4 42.1 79.8 42.4Q80.1 42.6 80.6 42.6ZM87.8 44L85.9 44L85.9 36.9L87.7 36.9L87.7 38.1L87.8 38.1Q88.0 37.5 88.5 37.1Q88.9 36.8 89.5 36.8L89.5 36.8Q89.7 36.8 89.8 36.8Q90.0 36.8 90.1 36.9L90.1 36.9L90.1 38.6Q90.0 38.5 89.8 38.5Q89.5 38.5 89.3 38.5L89.3 38.5Q88.9 38.5 88.5 38.7Q88.2 38.9 88.0 39.2Q87.8 39.5 87.8 40.0L87.8 40.0L87.8 44Z M95.3 39.3L99.7 39.3L99.7 40.9L95.3 40.9L95.3 39.3ZM101.9 39.3L106.2 39.3L106.2 40.9L101.9 40.9L101.9 39.3ZM110.6 36.9L112.0 36.9L112.0 38.4L110.6 38.4L110.6 41.9Q110.6 42.3 110.8 42.4Q110.9 42.6 111.3 42.6L111.3 42.6Q111.4 42.6 111.6 42.6Q111.8 42.5 111.9 42.5L111.9 42.5L112.2 43.9Q111.8 44.0 111.5 44.1Q111.2 44.1 110.9 44.1L110.9 44.1Q109.9 44.1 109.3 43.6Q108.7 43.1 108.7 42.1L108.7 42.1L108.7 38.4L107.7 38.4L107.7 36.9L108.7 36.9L108.7 35.2L110.6 35.2L110.6 36.9ZM116.9 44.1L116.9 44.1Q115.8 44.1 115.0 43.7Q114.2 43.3 113.8 42.4Q113.4 41.6 113.4 40.5L113.4 40.5Q113.4 39.4 113.8 38.6Q114.2 37.7 115.0 37.3Q115.8 36.8 116.8 36.8L116.8 36.8Q117.5 36.8 118.1 37.0Q118.7 37.3 119.2 37.7Q119.6 38.2 119.9 38.8Q120.1 39.5 120.1 40.4L120.1 40.4L120.1 40.9L115.3 40.9Q115.3 41.5 115.5 41.9L115.5 41.9Q115.7 42.3 116.1 42.5Q116.4 42.7 116.9 42.7L116.9 42.7Q117.3 42.7 117.5 42.6Q117.8 42.5 118.0 42.3Q118.2 42.1 118.3 41.9L118.3 41.9L120.0 42.2Q119.9 42.8 119.4 43.2Q119.0 43.7 118.4 43.9Q117.7 44.1 116.9 44.1ZM115.3 39.8L115.3 39.8L118.3 39.8Q118.3 39.4 118.2 39.1L118.2 39.1Q118.0 38.7 117.6 38.5Q117.3 38.2 116.8 38.2L116.8 38.2Q116.3 38.2 116.0 38.5Q115.6 38.7 115.5 39.1L115.5 39.1Q115.3 39.4 115.3 39.8ZM121.9 34.5L123.8 34.5L123.8 44L121.9 44L121.9 34.5ZM129.2 44.1L129.2 44.1Q128.1 44.1 127.3 43.7Q126.5 43.3 126.1 42.4Q125.7 41.6 125.7 40.5L125.7 40.5Q125.7 39.4 126.1 38.6Q126.5 37.7 127.3 37.3Q128.0 36.8 129.1 36.8L129.1 36.8Q129.8 36.8 130.4 37.0Q131.0 37.3 131.4 37.7Q131.9 38.2 132.1 38.8Q132.4 39.5 132.4 40.4L132.4 40.4L132.4 40.9L127.5 40.9Q127.6 41.5 127.8 41.9L127.8 41.9Q128.0 42.3 128.3 42.5Q128.7 42.7 129.2 42.7L129.2 42.7Q129.5 42.7 129.8 42.6Q130.1 42.5 130.3 42.3Q130.5 42.1 130.6 41.9L130.6 41.9L132.3 42.2Q132.1 42.8 131.7 43.2Q131.3 43.7 130.6 43.9Q130 44.1 129.2 44.1ZM127.6 39.8L127.6 39.8L130.6 39.8Q130.5 39.4 130.4 39.1L130.4 39.1Q130.2 38.7 129.9 38.5Q129.6 38.2 129.1 38.2L129.1 38.2Q128.6 38.2 128.3 38.5Q127.9 38.7 127.7 39.1L127.7 39.1Q127.6 39.4 127.6 39.8ZM136.1 44L134.2 44L134.2 36.9L136.0 36.9L136.0 38.3Q136.2 37.9 136.4 37.6L136.4 37.6Q136.7 37.2 137.2 37.0Q137.6 36.8 138.1 36.8L138.1 36.8Q138.8 36.8 139.3 37.3L139.3 37.3Q139.7 37.7 139.9 38.4L139.9 38.4Q140.1 38.0 140.3 37.7L140.3 37.7Q140.7 37.2 141.1 37.0Q141.6 36.8 142.2 36.8L142.2 36.8Q142.8 36.8 143.3 37.1Q143.9 37.4 144.2 37.9Q144.4 38.4 144.4 39.2L144.4 39.2L144.4 44L142.5 44L142.5 39.6Q142.5 39.0 142.2 38.7Q141.9 38.4 141.4 38.4L141.4 38.4Q141.1 38.4 140.8 38.5Q140.5 38.7 140.4 39.0Q140.2 39.3 140.2 39.6L140.2 39.6L140.2 44L138.4 44L138.4 39.5Q138.4 39.0 138.1 38.7Q137.8 38.4 137.3 38.4L137.3 38.4Q137.0 38.4 136.7 38.5Q136.4 38.7 136.3 39.0Q136.1 39.3 136.1 39.7L136.1 39.7L136.1 44ZM149.8 44.1L149.8 44.1Q148.7 44.1 147.9 43.7Q147.1 43.3 146.7 42.4Q146.3 41.6 146.3 40.5L146.3 40.5Q146.3 39.4 146.7 38.6Q147.1 37.7 147.9 37.3Q148.6 36.8 149.7 36.8L149.7 36.8Q150.4 36.8 151.0 37.0Q151.6 37.3 152.0 37.7Q152.5 38.2 152.8 38.8Q153.0 39.5 153.0 40.4L153.0 40.4L153.0 40.9L148.2 40.9Q148.2 41.5 148.4 41.9L148.4 41.9Q148.6 42.3 148.9 42.5Q149.3 42.7 149.8 42.7L149.8 42.7Q150.1 42.7 150.4 42.6Q150.7 42.5 150.9 42.3Q151.1 42.1 151.2 41.9L151.2 41.9L152.9 42.2Q152.7 42.8 152.3 43.2Q151.9 43.7 151.2 43.9Q150.6 44.1 149.8 44.1ZM148.2 39.8L148.2 39.8L151.2 39.8Q151.1 39.4 151.0 39.1L151.0 39.1Q150.9 38.7 150.5 38.5Q150.2 38.2 149.7 38.2L149.7 38.2Q149.2 38.2 148.9 38.5Q148.5 38.7 148.3 39.1L148.3 39.1Q148.2 39.4 148.2 39.8ZM157.0 36.9L158.3 36.9L158.3 38.4L157.0 38.4L157.0 41.9Q157.0 42.3 157.2 42.4Q157.3 42.6 157.7 42.6L157.7 42.6Q157.8 42.6 158.0 42.6Q158.2 42.5 158.3 42.5L158.3 42.5L158.5 43.9Q158.2 44.0 157.9 44.1Q157.6 44.1 157.3 44.1L157.3 44.1Q156.2 44.1 155.7 43.6Q155.1 43.1 155.1 42.1L155.1 42.1L155.1 38.4L154.1 38.4L154.1 36.9L155.1 36.9L155.1 35.2L157.0 35.2L157.0 36.9ZM162.0 44L160.1 44L160.1 36.9L161.9 36.9L161.9 38.1L162.0 38.1Q162.2 37.5 162.6 37.1Q163.1 36.8 163.7 36.8L163.7 36.8Q163.9 36.8 164.0 36.8Q164.2 36.8 164.3 36.9L164.3 36.9L164.3 38.6Q164.2 38.5 164.0 38.5Q163.7 38.5 163.5 38.5L163.5 38.5Q163.1 38.5 162.7 38.7Q162.4 38.9 162.2 39.2Q162.0 39.5 162.0 40.0L162.0 40.0L162.0 44ZM165.8 46.5L165.8 46.5L166.3 45.1L166.5 45.1Q166.9 45.2 167.2 45.2Q167.5 45.1 167.7 45.0Q167.8 44.8 167.9 44.4L167.9 44.4L167.9 44.0L165.3 36.9L167.3 36.9L168.5 40.6Q168.7 41.3 168.8 42.0L168.8 42.0Q168.9 42.2 168.9 42.5L168.9 42.5Q169.0 42.2 169.0 42.0L169.0 42.0Q169.2 41.3 169.4 40.6L169.4 40.6L170.7 36.9L172.7 36.9L169.7 44.8Q169.4 45.4 169.1 45.8Q168.8 46.2 168.3 46.5Q167.8 46.7 167.1 46.7L167.1 46.7Q166.7 46.7 166.4 46.7Q166.0 46.6 165.8 46.5Z "/></g><mask id="satori_om-id-0-1"><rect x="25" y="63" width="335" height="126" fill="#fff"/></mask><mask id="satori_om-id-0-1-0"><rect x="25" y="63" width="335" height="58" fill="#fff"/></mask><defs><clipPath id="satori_bc-id-0-1-0-0"><path x="25" y="63" width="163" height="58" d="M31,63 h151 a6,6 0 0 1 6,6 v46 a6,6 0 0 1 -6,6 h-151 a6,6 0 0 1 -6,-6 v-46 a6,6 0 0 1 6,-6"/></clipPath></defs><mask id="satori_om-id-0-1-0-0"><rect x="26" y="64" width="161" height="56" fill="#fff"/><path width="163" height="58" fill="none" stroke="#000" stroke-width="2" d="M26.756999999999998,64.757 A6,6 0 0 1 31,63 h151 a6,6 0 0 1 6,6 v46 a6,6 0 0 1 -6,6 h-151 a6,6 0 0 1 -6,-6 v-46 A6,6 0 0 1 26.756999999999998,64.757"/></mask><path x="25" y="63" width="163" height="58" fill="rgba(0,240,255,0.01)" d="M31,63 h151 a6,6 0 0 1 6,6 v46 a6,6 0 0 1 -6,6 h-151 a6,6 0 0 1 -6,-6 v-46 a6,6 0 0 1 6,-6"/><path width="163" height="58" clip-path="url(#satori_bc-id-0-1-0-0)" fill="none" stroke="rgba(0,240,255,0.08)" stroke-width="2" d="M26.756999999999998,64.757 A6,6 0 0 1 31,63 h151 a6,6 0 0 1 6,6 v46 a6,6 0 0 1 -6,6 h-151 a6,6 0 0 1 -6,-6 v-46 A6,6 0 0 1 26.756999999999998,64.757"/><mask id="satori_om-id-0-1-0-0-0"><rect x="40" y="74" width="133" height="12" fill="#fff"/></mask><g  ><path fill="#94a3b8" d="M43.8 84.1L43.8 84.1Q42.9 84.1 42.1 83.7Q41.3 83.2 40.9 82.4Q40.5 81.5 40.5 80.4L40.5 80.4Q40.5 79.2 40.9 78.3Q41.3 77.5 42.1 77.1Q42.9 76.6 43.8 76.6L43.8 76.6Q44.5 76.6 45.0 76.8Q45.5 77.0 45.9 77.3Q46.4 77.6 46.6 78.1Q46.9 78.6 47.0 79.2L47.0 79.2L45.5 79.2Q45.4 78.9 45.3 78.7Q45.1 78.4 44.9 78.3Q44.7 78.1 44.4 78.0Q44.2 78.0 43.9 78.0L43.9 78.0Q43.3 78.0 42.9 78.2Q42.4 78.5 42.2 79.1Q42.0 79.6 42.0 80.4L42.0 80.4Q42.0 81.2 42.2 81.7Q42.5 82.2 42.9 82.5Q43.3 82.8 43.9 82.8L43.9 82.8Q44.2 82.8 44.4 82.7Q44.7 82.6 44.9 82.4Q45.1 82.3 45.3 82.0Q45.4 81.8 45.5 81.5L45.5 81.5L47.0 81.5Q46.9 82.0 46.7 82.5Q46.4 82.9 46.0 83.3Q45.6 83.7 45.1 83.9Q44.5 84.1 43.8 84.1ZM51.3 84.1L51.3 84.1Q50.3 84.1 49.5 83.7Q48.8 83.2 48.3 82.4Q47.9 81.5 47.9 80.4L47.9 80.4Q47.9 79.2 48.3 78.3Q48.8 77.5 49.5 77.1Q50.3 76.6 51.3 76.6L51.3 76.6Q52.2 76.6 53.0 77.1Q53.8 77.5 54.2 78.3Q54.6 79.2 54.6 80.4L54.6 80.4Q54.6 81.5 54.2 82.4Q53.8 83.2 53.0 83.7Q52.2 84.1 51.3 84.1ZM51.3 82.8L51.3 82.8Q51.8 82.8 52.2 82.5Q52.7 82.2 52.9 81.7Q53.1 81.1 53.1 80.4L53.1 80.4Q53.1 79.6 52.9 79.0Q52.7 78.5 52.2 78.2Q51.8 78.0 51.3 78.0L51.3 78.0Q50.7 78.0 50.3 78.2Q49.8 78.5 49.6 79.0Q49.4 79.6 49.4 80.4L49.4 80.4Q49.4 81.1 49.6 81.7Q49.8 82.2 50.3 82.5Q50.7 82.8 51.3 82.8ZM57.2 84L55.8 84L55.8 76.7L58.0 76.7L59.2 80.1Q59.3 80.3 59.4 80.7Q59.5 81.0 59.6 81.5L59.6 81.5Q59.7 81.9 59.8 82.3L59.8 82.3Q59.9 81.9 59.9 81.5L59.9 81.5Q60.0 81.1 60.1 80.7Q60.2 80.3 60.3 80.1L60.3 80.1L61.5 76.7L63.8 76.7L63.8 84L62.3 84L62.3 80.6Q62.3 80.3 62.3 80.0Q62.3 79.6 62.3 79.2Q62.3 78.8 62.3 78.4L62.3 78.4Q62.3 78.2 62.3 78.0L62.3 78.0Q62.3 78.2 62.2 78.4L62.2 78.4Q62.1 78.9 62.0 79.3Q61.9 79.7 61.8 80.0Q61.7 80.3 61.6 80.6L61.6 80.6L60.4 84L59.1 84L57.9 80.6Q57.8 80.3 57.7 80.0Q57.6 79.7 57.5 79.3Q57.4 78.9 57.3 78.4L57.3 78.4Q57.2 78.2 57.2 78.1L57.2 78.1Q57.2 78.2 57.2 78.4L57.2 78.4Q57.2 78.8 57.2 79.2Q57.2 79.6 57.2 80.0Q57.2 80.3 57.2 80.6L57.2 80.6L57.2 84ZM66.6 84L65.1 84L65.1 76.7L67.9 76.7Q68.7 76.7 69.3 77.0Q69.9 77.4 70.2 77.9Q70.5 78.5 70.5 79.2L70.5 79.2Q70.5 79.9 70.2 80.5Q69.9 81.0 69.3 81.3Q68.7 81.6 67.9 81.6L67.9 81.6L66.6 81.6L66.6 84ZM66.6 78.0L66.6 80.4L67.6 80.4Q68.1 80.4 68.4 80.3Q68.7 80.1 68.8 79.8Q69.0 79.5 69.0 79.2Q69.0 78.8 68.8 78.5Q68.7 78.3 68.4 78.1Q68.1 78.0 67.6 78.0L67.6 78.0L66.6 78.0ZM71.6 76.7L73.0 76.7L73.0 84L71.6 84L71.6 76.7ZM79.0 84L74.4 84L74.4 76.7L75.9 76.7L75.9 82.8L79.0 82.8L79.0 84ZM81.2 84L79.6 84L82.1 76.7L84.0 76.7L86.6 84L84.9 84L84.4 82.3L81.8 82.3L81.2 84ZM82.2 81.1L84.0 81.1L83.8 80.5Q83.6 79.8 83.3 79L83.3 79Q83.2 78.5 83.0 77.9L83.0 77.9Q82.9 78.5 82.8 79.0L82.8 79.0Q82.6 79.8 82.4 80.5L82.4 80.5L82.2 81.1ZM89.4 78.0L87.2 78.0L87.2 76.7L93.1 76.7L93.1 78.0L90.9 78.0L90.9 84L89.4 84L89.4 78.0ZM94.2 76.7L95.6 76.7L95.6 84L94.2 84L94.2 76.7ZM100.2 84.1L100.2 84.1Q99.2 84.1 98.4 83.7Q97.7 83.2 97.2 82.4Q96.8 81.5 96.8 80.4L96.8 80.4Q96.8 79.2 97.2 78.3Q97.7 77.5 98.4 77.1Q99.2 76.6 100.2 76.6L100.2 76.6Q101.1 76.6 101.9 77.1Q102.7 77.5 103.1 78.3Q103.6 79.2 103.6 80.4L103.6 80.4Q103.6 81.5 103.1 82.4Q102.7 83.2 101.9 83.7Q101.1 84.1 100.2 84.1ZM100.2 82.8L100.2 82.8Q100.7 82.8 101.1 82.5Q101.6 82.2 101.8 81.7Q102.0 81.1 102.0 80.4L102.0 80.4Q102.0 79.6 101.8 79.0Q101.6 78.5 101.1 78.2Q100.7 78.0 100.2 78.0L100.2 78.0Q99.6 78.0 99.2 78.2Q98.8 78.5 98.5 79.0Q98.3 79.6 98.3 80.4L98.3 80.4Q98.3 81.1 98.5 81.7Q98.8 82.2 99.2 82.5Q99.6 82.8 100.2 82.8ZM106.2 84L104.7 84L104.7 76.7L106.3 76.7L108.6 80.4Q108.8 80.7 109.0 81.0Q109.2 81.4 109.4 81.8L109.4 81.8Q109.5 82.0 109.5 82.2L109.5 82.2Q109.5 82.0 109.5 81.8L109.5 81.8Q109.5 81.3 109.5 80.9Q109.5 80.5 109.5 80.2L109.5 80.2L109.5 76.7L111.0 76.7L111.0 84L109.3 84L107.2 80.7Q107.0 80.3 106.8 79.9Q106.6 79.6 106.4 79.1L106.4 79.1Q106.3 78.9 106.1 78.6L106.1 78.6Q106.1 78.9 106.1 79.1L106.1 79.1Q106.2 79.6 106.2 80.0Q106.2 80.4 106.2 80.7L106.2 80.7L106.2 84ZM115.0 84.1L115.0 84.1Q114.1 84.1 113.4 83.8Q112.8 83.6 112.4 83.0Q112.1 82.5 112.1 81.7L112.1 81.7L113.5 81.7Q113.5 82.1 113.7 82.4Q113.9 82.6 114.2 82.7Q114.5 82.8 114.9 82.8L114.9 82.8Q115.3 82.8 115.6 82.7Q115.9 82.6 116.1 82.4Q116.3 82.2 116.3 81.9L116.3 81.9Q116.3 81.7 116.1 81.5Q116.0 81.3 115.7 81.2Q115.4 81.1 115.0 81.0L115.0 81.0L114.2 80.8Q113.3 80.6 112.8 80.1Q112.2 79.6 112.2 78.8L112.2 78.8Q112.2 78.2 112.6 77.7Q113.0 77.2 113.6 76.9Q114.2 76.6 115.0 76.6L115.0 76.6Q115.8 76.6 116.4 76.9Q117.0 77.2 117.3 77.7Q117.7 78.2 117.7 78.8L117.7 78.8L116.2 78.8Q116.2 78.4 115.9 78.1Q115.5 77.9 115.0 77.9L115.0 77.9Q114.6 77.9 114.3 78.0Q114.1 78.1 113.9 78.3Q113.8 78.5 113.8 78.7L113.8 78.7Q113.8 79.0 113.9 79.2Q114.1 79.3 114.4 79.5Q114.6 79.6 114.9 79.6L114.9 79.6L115.6 79.8Q116.1 79.9 116.5 80.1Q116.8 80.3 117.1 80.5Q117.4 80.8 117.6 81.1Q117.8 81.5 117.8 81.9L117.8 81.9Q117.8 82.6 117.4 83.1Q117.1 83.6 116.5 83.8Q115.8 84.1 115.0 84.1Z "/></g><mask id="satori_om-id-0-1-0-0-1"><rect x="40" y="88" width="133" height="22" fill="#fff"/></mask><g  ><path fill="#fff" d="M44.3 105L41.6 105L47.0 94.2L47.0 94.1L40.7 94.1L40.7 91.9L49.8 91.9L49.8 94.2L44.3 105ZM56.1 105.2L56.1 105.2Q54.6 105.2 53.5 104.7Q52.3 104.2 51.7 103.4Q51.0 102.5 51.0 101.5L51.0 101.5Q51.0 100.7 51.4 100.0Q51.8 99.3 52.4 98.8Q53.1 98.4 53.9 98.2L53.9 98.2L53.9 98.2Q52.8 97.9 52.2 97.1Q51.5 96.3 51.5 95.2L51.5 95.2Q51.5 94.2 52.1 93.4Q52.7 92.6 53.7 92.2Q54.7 91.7 56.1 91.7L56.1 91.7Q57.4 91.7 58.4 92.2Q59.4 92.6 60.0 93.4Q60.6 94.2 60.6 95.2L60.6 95.2Q60.6 96.3 60.0 97.1Q59.3 97.9 58.3 98.2L58.3 98.2L58.3 98.2Q59.1 98.4 59.7 98.8Q60.3 99.3 60.7 100.0Q61.1 100.7 61.1 101.5L61.1 101.5Q61.1 102.5 60.5 103.4Q59.8 104.2 58.7 104.7Q57.5 105.2 56.1 105.2ZM56.1 103.2L56.1 103.2Q56.7 103.2 57.2 102.9Q57.7 102.7 58.0 102.3Q58.3 101.8 58.3 101.3L58.3 101.3Q58.3 100.7 58.0 100.2Q57.7 99.8 57.2 99.5Q56.7 99.3 56.1 99.3L56.1 99.3Q55.4 99.3 54.9 99.5Q54.4 99.8 54.1 100.2Q53.8 100.7 53.8 101.3L53.8 101.3Q53.8 101.8 54.1 102.3Q54.4 102.7 54.9 102.9Q55.4 103.2 56.1 103.2ZM56.1 97.3L56.1 97.3Q56.6 97.3 57.1 97.1Q57.5 96.9 57.7 96.5Q58 96.1 58 95.5L58 95.5Q58 95.0 57.8 94.6Q57.5 94.2 57.1 94.0Q56.6 93.8 56.1 93.8L56.1 93.8Q55.5 93.8 55.1 94.0Q54.6 94.2 54.4 94.6Q54.1 95.0 54.1 95.5L54.1 95.5Q54.1 96.1 54.4 96.5Q54.6 96.9 55.1 97.1Q55.5 97.3 56.1 97.3ZM68.0 105.2L68.0 105.2Q66.3 105.2 65.2 104.4Q64.0 103.6 63.4 102.1Q62.8 100.6 62.8 98.5L62.8 98.5Q62.8 96.3 63.4 94.8Q64.0 93.3 65.2 92.5Q66.3 91.7 68.0 91.7L68.0 91.7Q69.6 91.7 70.8 92.5Q72.0 93.3 72.6 94.8Q73.2 96.3 73.2 98.5L73.2 98.5Q73.2 100.6 72.6 102.1Q72.0 103.6 70.8 104.4Q69.7 105.2 68.0 105.2ZM68.0 103.0L68.0 103.0Q68.8 103.0 69.4 102.4Q69.9 101.9 70.2 100.9Q70.5 99.9 70.5 98.5L70.5 98.5Q70.5 97.0 70.2 96.0Q69.9 95.0 69.4 94.5Q68.8 93.9 68.0 93.9L68.0 93.9Q67.2 93.9 66.6 94.5Q66.1 95.0 65.8 96.0Q65.5 97.0 65.5 98.5L65.5 98.5Q65.5 99.9 65.8 100.9Q66.1 101.9 66.6 102.4Q67.2 103.0 68.0 103.0ZM78.1 105L75.3 105L80.7 94.2L80.7 94.1L74.4 94.1L74.4 91.9L83.5 91.9L83.5 94.2L78.1 105ZM89.6 105.2L89.6 105.2Q88.3 105.2 87.3 104.7Q86.3 104.2 85.7 103.3Q85.1 102.4 85.0 101.4L85.0 101.4L87.6 101.4Q87.8 102.1 88.3 102.5Q88.8 102.9 89.6 102.9L89.6 102.9Q90.5 102.9 91.1 102.4Q91.6 101.9 91.9 100.9Q92.3 100.0 92.3 98.7L92.3 98.7L92.2 98.7Q91.9 99.2 91.4 99.6Q90.9 100.1 90.2 100.3Q89.6 100.5 88.9 100.5L88.9 100.5Q87.7 100.5 86.8 100.0Q85.9 99.4 85.4 98.5Q84.8 97.5 84.8 96.3L84.8 96.3Q84.8 94.9 85.4 93.9Q86.1 92.9 87.2 92.3Q88.3 91.7 89.7 91.7L89.7 91.7Q90.7 91.7 91.6 92.0Q92.5 92.4 93.3 93.1Q94.0 93.9 94.4 95.1Q94.9 96.3 94.9 98.1L94.9 98.1Q94.9 99.8 94.5 101.1Q94.1 102.4 93.4 103.3Q92.8 104.2 91.8 104.7Q90.8 105.2 89.6 105.2ZM89.7 98.5L89.7 98.5Q90.2 98.5 90.6 98.4Q91.0 98.2 91.3 97.8Q91.6 97.5 91.8 97.1Q92.0 96.7 92.0 96.2L92.0 96.2Q92.0 95.6 91.7 95.0Q91.4 94.5 90.9 94.2Q90.4 93.9 89.7 93.9L89.7 93.9Q89.1 93.9 88.6 94.2Q88.0 94.5 87.7 95.0Q87.4 95.5 87.4 96.2L87.4 96.2Q87.4 96.9 87.7 97.4Q88.0 97.9 88.5 98.2Q89.0 98.5 89.7 98.5Z "/></g><defs><clipPath id="satori_bc-id-0-1-0-1"><path x="198" y="63" width="162" height="58" d="M204,63 h150 a6,6 0 0 1 6,6 v46 a6,6 0 0 1 -6,6 h-150 a6,6 0 0 1 -6,-6 v-46 a6,6 0 0 1 6,-6"/></clipPath></defs><mask id="satori_om-id-0-1-0-1"><rect x="199" y="64" width="160" height="56" fill="#fff"/><path width="162" height="58" fill="none" stroke="#000" stroke-width="2" d="M199.757,64.757 A6,6 0 0 1 204,63 h150 a6,6 0 0 1 6,6 v46 a6,6 0 0 1 -6,6 h-150 a6,6 0 0 1 -6,-6 v-46 A6,6 0 0 1 199.757,64.757"/></mask><path x="198" y="63" width="162" height="58" fill="rgba(0,240,255,0.01)" d="M204,63 h150 a6,6 0 0 1 6,6 v46 a6,6 0 0 1 -6,6 h-150 a6,6 0 0 1 -6,-6 v-46 a6,6 0 0 1 6,-6"/><path width="162" height="58" clip-path="url(#satori_bc-id-0-1-0-1)" fill="none" stroke="rgba(0,240,255,0.08)" stroke-width="2" d="M199.757,64.757 A6,6 0 0 1 204,63 h150 a6,6 0 0 1 6,6 v46 a6,6 0 0 1 -6,6 h-150 a6,6 0 0 1 -6,-6 v-46 A6,6 0 0 1 199.757,64.757"/><mask id="satori_om-id-0-1-0-1-0"><rect x="213" y="74" width="132" height="12" fill="#fff"/></mask><g  ><path fill="#94a3b8" d="M216.7 84.1L216.7 84.1Q215.8 84.1 215.1 83.8Q214.4 83.4 214.0 82.8Q213.7 82.2 213.7 81.4L213.7 81.4L213.7 76.7L215.1 76.7L215.1 81.3Q215.1 81.7 215.3 82.1Q215.5 82.4 215.9 82.6Q216.2 82.8 216.7 82.8L216.7 82.8Q217.1 82.8 217.5 82.6Q217.8 82.4 218.0 82.1Q218.2 81.7 218.2 81.3L218.2 81.3L218.2 76.7L219.7 76.7L219.7 81.4Q219.7 82.2 219.3 82.8Q218.9 83.4 218.2 83.8Q217.6 84.1 216.7 84.1ZM222.5 84L221.0 84L221.0 76.7L223.8 76.7Q224.6 76.7 225.2 77.0Q225.8 77.4 226.1 77.9Q226.4 78.5 226.4 79.2L226.4 79.2Q226.4 79.9 226.1 80.5Q225.8 81.0 225.2 81.3Q224.6 81.6 223.8 81.6L223.8 81.6L222.5 81.6L222.5 84ZM222.5 78.0L222.5 80.4L223.5 80.4Q224.0 80.4 224.3 80.3Q224.6 80.1 224.7 79.8Q224.9 79.5 224.9 79.2Q224.9 78.8 224.7 78.5Q224.6 78.3 224.3 78.1Q224.0 78.0 223.5 78.0L223.5 78.0L222.5 78.0ZM231.5 84L229.6 84L227.0 76.7L228.7 76.7L229.9 80.2Q230.1 80.9 230.3 81.7L230.3 81.7Q230.4 82.2 230.6 82.8L230.6 82.8Q230.7 82.2 230.9 81.7L230.9 81.7Q231.1 80.9 231.3 80.2L231.3 80.2L232.4 76.7L234.0 76.7L231.5 84ZM238.1 84.1L238.1 84.1Q237.2 84.1 236.4 83.7Q235.6 83.2 235.2 82.4Q234.7 81.5 234.7 80.4L234.7 80.4Q234.7 79.2 235.2 78.3Q235.6 77.5 236.4 77.1Q237.2 76.6 238.1 76.6L238.1 76.6Q239.1 76.6 239.9 77.1Q240.6 77.5 241.1 78.3Q241.5 79.2 241.5 80.4L241.5 80.4Q241.5 81.5 241.1 82.4Q240.6 83.2 239.9 83.7Q239.1 84.1 238.1 84.1ZM238.1 82.8L238.1 82.8Q238.7 82.8 239.1 82.5Q239.5 82.2 239.8 81.7Q240.0 81.1 240.0 80.4L240.0 80.4Q240.0 79.6 239.8 79.0Q239.5 78.5 239.1 78.2Q238.7 78.0 238.1 78.0L238.1 78.0Q237.6 78.0 237.1 78.2Q236.7 78.5 236.5 79.0Q236.2 79.6 236.2 80.4L236.2 80.4Q236.2 81.1 236.5 81.7Q236.7 82.2 237.1 82.5Q237.6 82.8 238.1 82.8ZM244.6 78.0L242.3 78.0L242.3 76.7L248.3 76.7L248.3 78.0L246.1 78.0L246.1 84L244.6 84L244.6 78.0ZM254.2 84L249.3 84L249.3 76.7L254.2 76.7L254.2 78.0L250.8 78.0L250.8 79.7L253.9 79.7L253.9 80.9L250.8 80.9L250.8 82.8L254.2 82.8L254.2 84ZM258.0 84.1L258.0 84.1Q257.2 84.1 256.5 83.8Q255.9 83.6 255.5 83.0Q255.2 82.5 255.1 81.7L255.1 81.7L256.6 81.7Q256.6 82.1 256.8 82.4Q257.0 82.6 257.3 82.7Q257.6 82.8 258.0 82.8L258.0 82.8Q258.4 82.8 258.7 82.7Q259.0 82.6 259.2 82.4Q259.4 82.2 259.4 81.9L259.4 81.9Q259.4 81.7 259.2 81.5Q259.1 81.3 258.8 81.2Q258.5 81.1 258.1 81.0L258.1 81.0L257.3 80.8Q256.4 80.6 255.9 80.1Q255.3 79.6 255.3 78.8L255.3 78.8Q255.3 78.2 255.7 77.7Q256.0 77.2 256.7 76.9Q257.3 76.6 258.1 76.6L258.1 76.6Q258.9 76.6 259.5 76.9Q260.1 77.2 260.4 77.7Q260.7 78.2 260.8 78.8L260.8 78.8L259.3 78.8Q259.3 78.4 258.9 78.1Q258.6 77.9 258.0 77.9L258.0 77.9Q257.7 77.9 257.4 78.0Q257.1 78.1 257.0 78.3Q256.9 78.5 256.9 78.7L256.9 78.7Q256.9 79.0 257.0 79.2Q257.2 79.3 257.4 79.5Q257.7 79.6 258.0 79.6L258.0 79.6L258.7 79.8Q259.1 79.9 259.5 80.1Q259.9 80.3 260.2 80.5Q260.5 80.8 260.7 81.1Q260.9 81.5 260.9 81.9L260.9 81.9Q260.9 82.6 260.5 83.1Q260.2 83.6 259.6 83.8Q258.9 84.1 258.0 84.1Z "/></g><mask id="satori_om-id-0-1-0-1-1"><rect x="213" y="88" width="132" height="22" fill="#fff"/></mask><g  ><path fill="#fbbf24" d="M218.5 105.2L218.5 105.2Q217.2 105.2 216.1 104.7Q215.1 104.2 214.5 103.3Q213.9 102.4 213.8 101.3L213.8 101.3L216.4 101.3Q216.5 101.8 216.7 102.2Q217.0 102.6 217.5 102.8Q218.0 103.0 218.5 103.0L218.5 103.0Q219.2 103.0 219.7 102.8Q220.2 102.5 220.5 101.9Q220.8 101.4 220.8 100.7L220.8 100.7Q220.8 100.0 220.5 99.5Q220.2 98.9 219.7 98.6Q219.2 98.3 218.5 98.3L218.5 98.3Q217.9 98.3 217.3 98.6Q216.8 98.8 216.5 99.2L216.5 99.2L214.1 98.8L214.7 91.9L222.7 91.9L222.7 94.1L216.9 94.1L216.6 97.4L216.7 97.4Q217.0 97.0 217.7 96.7Q218.4 96.3 219.3 96.3L219.3 96.3Q220.1 96.3 220.9 96.7Q221.6 97.0 222.2 97.6Q222.8 98.1 223.1 98.9Q223.4 99.7 223.4 100.6L223.4 100.6Q223.4 102.0 222.8 103.0Q222.1 104.0 221.1 104.6Q220.0 105.2 218.5 105.2Z "/></g><mask id="satori_om-id-0-1-1"><rect x="25" y="131" width="335" height="58" fill="#fff"/></mask><defs><clipPath id="satori_bc-id-0-1-1-0"><path x="25" y="131" width="163" height="58" d="M31,131 h151 a6,6 0 0 1 6,6 v46 a6,6 0 0 1 -6,6 h-151 a6,6 0 0 1 -6,-6 v-46 a6,6 0 0 1 6,-6"/></clipPath></defs><mask id="satori_om-id-0-1-1-0"><rect x="26" y="132" width="161" height="56" fill="#fff"/><path width="163" height="58" fill="none" stroke="#000" stroke-width="2" d="M26.756999999999998,132.757 A6,6 0 0 1 31,131 h151 a6,6 0 0 1 6,6 v46 a6,6 0 0 1 -6,6 h-151 a6,6 0 0 1 -6,-6 v-46 A6,6 0 0 1 26.756999999999998,132.757"/></mask><path x="25" y="131" width="163" height="58" fill="rgba(0,240,255,0.01)" d="M31,131 h151 a6,6 0 0 1 6,6 v46 a6,6 0 0 1 -6,6 h-151 a6,6 0 0 1 -6,-6 v-46 a6,6 0 0 1 6,-6"/><path width="163" height="58" clip-path="url(#satori_bc-id-0-1-1-0)" fill="none" stroke="rgba(0,240,255,0.08)" stroke-width="2" d="M26.756999999999998,132.757 A6,6 0 0 1 31,131 h151 a6,6 0 0 1 6,6 v46 a6,6 0 0 1 -6,6 h-151 a6,6 0 0 1 -6,-6 v-46 A6,6 0 0 1 26.756999999999998,132.757"/><mask id="satori_om-id-0-1-1-0-0"><rect x="40" y="142" width="133" height="12" fill="#fff"/></mask><g  ><path fill="#94a3b8" d="M42.1 152L40.7 152L40.7 144.7L45.4 144.7L45.4 146.0L42.1 146.0L42.1 148.0L45.1 148.0L45.1 149.2L42.1 149.2L42.1 152ZM49.7 152.1L49.7 152.1Q48.8 152.1 48.0 151.7Q47.2 151.2 46.8 150.4Q46.3 149.5 46.3 148.4L46.3 148.4Q46.3 147.2 46.8 146.3Q47.2 145.5 48.0 145.1Q48.8 144.6 49.7 144.6L49.7 144.6Q50.7 144.6 51.5 145.1Q52.2 145.5 52.7 146.3Q53.1 147.2 53.1 148.4L53.1 148.4Q53.1 149.5 52.7 150.4Q52.2 151.2 51.5 151.7Q50.7 152.1 49.7 152.1ZM49.7 150.8L49.7 150.8Q50.3 150.8 50.7 150.5Q51.1 150.2 51.4 149.7Q51.6 149.1 51.6 148.4L51.6 148.4Q51.6 147.6 51.4 147.0Q51.1 146.5 50.7 146.2Q50.3 146.0 49.7 146.0L49.7 146.0Q49.2 146.0 48.7 146.2Q48.3 146.5 48.1 147.0Q47.8 147.6 47.8 148.4L47.8 148.4Q47.8 149.1 48.1 149.7Q48.3 150.2 48.7 150.5Q49.2 150.8 49.7 150.8ZM55.7 152L54.2 152L54.2 144.7L57.1 144.7Q57.9 144.7 58.5 145.0Q59.1 145.3 59.4 145.8Q59.7 146.4 59.7 147.1Q59.7 147.8 59.4 148.3Q59.1 148.9 58.5 149.1L58.5 149.1Q58.4 149.1 58.4 149.2L58.4 149.2L59.9 152L58.3 152L56.9 149.4L55.7 149.4L55.7 152ZM55.7 146.0L55.7 148.2L56.8 148.2Q57.3 148.2 57.5 148.1Q57.8 147.9 58.0 147.7Q58.1 147.5 58.1 147.1L58.1 147.1Q58.1 146.7 58.0 146.5Q57.8 146.2 57.5 146.1Q57.3 146.0 56.8 146.0L56.8 146.0L55.7 146.0ZM62.3 152L60.8 152L60.8 144.7L62.3 144.7L62.3 146.7L62.3 148.4Q62.3 148.3 62.3 148.3L62.3 148.3Q62.6 147.9 62.8 147.6Q63.1 147.2 63.4 146.8L63.4 146.8L65.2 144.7L67.0 144.7L64.3 147.9L67.1 152L65.3 152L63.3 148.9L62.3 149.9L62.3 152ZM70.7 152.1L70.7 152.1Q69.8 152.1 69.1 151.8Q68.5 151.6 68.1 151.0Q67.8 150.5 67.7 149.7L67.7 149.7L69.2 149.7Q69.2 150.1 69.4 150.4Q69.6 150.6 69.9 150.7Q70.2 150.8 70.6 150.8L70.6 150.8Q71.0 150.8 71.3 150.7Q71.6 150.6 71.8 150.4Q72.0 150.2 72.0 149.9L72.0 149.9Q72.0 149.7 71.8 149.5Q71.7 149.3 71.4 149.2Q71.1 149.1 70.7 149.0L70.7 149.0L69.9 148.8Q69.0 148.6 68.5 148.1Q67.9 147.6 67.9 146.8L67.9 146.8Q67.9 146.2 68.3 145.7Q68.7 145.2 69.3 144.9Q69.9 144.6 70.7 144.6L70.7 144.6Q71.5 144.6 72.1 144.9Q72.7 145.2 73.0 145.7Q73.4 146.2 73.4 146.8L73.4 146.8L71.9 146.8Q71.9 146.4 71.6 146.1Q71.2 145.9 70.7 145.9L70.7 145.9Q70.3 145.9 70.0 146.0Q69.8 146.1 69.6 146.3Q69.5 146.5 69.5 146.7L69.5 146.7Q69.5 147.0 69.6 147.2Q69.8 147.3 70.1 147.5Q70.3 147.6 70.6 147.6L70.6 147.6L71.3 147.8Q71.8 147.9 72.1 148.1Q72.5 148.3 72.8 148.5Q73.1 148.8 73.3 149.1Q73.5 149.5 73.5 149.9L73.5 149.9Q73.5 150.6 73.1 151.1Q72.8 151.6 72.2 151.8Q71.5 152.1 70.7 152.1ZM73.9 152L78.6 152L78.6 153.1L73.9 153.1L73.9 152ZM82.0 152.1L82.0 152.1Q81.1 152.1 80.4 151.8Q79.8 151.6 79.4 151.0Q79.1 150.5 79.1 149.7L79.1 149.7L80.5 149.7Q80.5 150.1 80.7 150.4Q80.9 150.6 81.2 150.7Q81.6 150.8 82.0 150.8L82.0 150.8Q82.4 150.8 82.6 150.7Q82.9 150.6 83.1 150.4Q83.3 150.2 83.3 149.9L83.3 149.9Q83.3 149.7 83.1 149.5Q83.0 149.3 82.7 149.2Q82.4 149.1 82.0 149.0L82.0 149.0L81.2 148.8Q80.3 148.6 79.8 148.1Q79.3 147.6 79.3 146.8L79.3 146.8Q79.3 146.2 79.6 145.7Q80.0 145.2 80.6 144.9Q81.2 144.6 82.0 144.6L82.0 144.6Q82.8 144.6 83.4 144.9Q84.0 145.2 84.3 145.7Q84.7 146.2 84.7 146.8L84.7 146.8L83.2 146.8Q83.2 146.4 82.9 146.1Q82.5 145.9 82.0 145.9L82.0 145.9Q81.6 145.9 81.3 146.0Q81.1 146.1 80.9 146.3Q80.8 146.5 80.8 146.7L80.8 146.7Q80.8 147.0 80.9 147.2Q81.1 147.3 81.4 147.5Q81.6 147.6 81.9 147.6L81.9 147.6L82.6 147.8Q83.1 147.9 83.5 148.1Q83.9 148.3 84.2 148.5Q84.4 148.8 84.6 149.1Q84.8 149.5 84.8 149.9L84.8 149.9Q84.8 150.6 84.4 151.1Q84.1 151.6 83.5 151.8Q82.9 152.1 82.0 152.1ZM87.3 152L85.8 152L85.8 144.7L88.7 144.7Q89.5 144.7 90.1 145.0Q90.7 145.4 91.0 145.9Q91.3 146.5 91.3 147.2L91.3 147.2Q91.3 147.9 91.0 148.5Q90.7 149.0 90.1 149.3Q89.5 149.6 88.7 149.6L88.7 149.6L87.3 149.6L87.3 152ZM87.3 146.0L87.3 148.4L88.4 148.4Q88.9 148.4 89.2 148.3Q89.5 148.1 89.6 147.8Q89.8 147.5 89.8 147.2Q89.8 146.8 89.6 146.5Q89.5 146.3 89.2 146.1Q88.9 146.0 88.4 146.0L88.4 146.0L87.3 146.0ZM93.6 152L91.9 152L94.4 144.7L96.3 144.7L98.9 152L97.2 152L96.7 150.3L94.1 150.3L93.6 152ZM94.5 149.1L96.3 149.1L96.1 148.5Q95.9 147.8 95.6 147L95.6 147Q95.5 146.5 95.4 145.9L95.4 145.9Q95.2 146.5 95.1 147.0L95.1 147.0Q94.9 147.8 94.7 148.5L94.7 148.5L94.5 149.1ZM103.0 152L101.3 152L99.4 144.7L101.0 144.7L101.8 148.3Q101.9 148.8 102.0 149.3Q102.1 149.8 102.2 150.3L102.2 150.3Q102.2 150.4 102.2 150.5L102.2 150.5Q102.3 150.4 102.3 150.3L102.3 150.3Q102.4 149.8 102.5 149.3Q102.5 148.8 102.7 148.3L102.7 148.3L103.5 144.7L105.1 144.7L106.0 148.3Q106.1 148.8 106.2 149.3Q106.3 149.8 106.4 150.3L106.4 150.3Q106.4 150.4 106.4 150.5L106.4 150.5Q106.4 150.4 106.4 150.3L106.4 150.3Q106.5 149.8 106.6 149.3Q106.7 148.8 106.8 148.3L106.8 148.3L107.6 144.7L109.3 144.7L107.3 152L105.6 152L104.6 148.3Q104.5 147.7 104.4 146.9L104.4 146.9Q104.4 146.7 104.3 146.5L104.3 146.5Q104.3 146.7 104.3 146.9L104.3 146.9Q104.2 147.6 104.0 148.3L104.0 148.3L103.0 152ZM111.7 152L110.2 152L110.2 144.7L111.8 144.7L114.1 148.4Q114.3 148.7 114.5 149.0Q114.7 149.4 114.9 149.8L114.9 149.8Q115.0 150.0 115.0 150.2L115.0 150.2Q115.0 150.0 115.0 149.8L115.0 149.8Q115.0 149.3 115.0 148.9Q115.0 148.5 115.0 148.2L115.0 148.2L115.0 144.7L116.5 144.7L116.5 152L114.8 152L112.7 148.7Q112.5 148.3 112.3 147.9Q112.1 147.6 111.9 147.1L111.9 147.1Q111.8 146.9 111.6 146.6L111.6 146.6Q111.6 146.9 111.6 147.1L111.6 147.1Q111.7 147.6 111.7 148.0Q111.7 148.4 111.7 148.7L111.7 148.7L111.7 152ZM122.7 152L117.8 152L117.8 144.7L122.7 144.7L122.7 146.0L119.3 146.0L119.3 147.7L122.4 147.7L122.4 148.9L119.3 148.9L119.3 150.8L122.7 150.8L122.7 152ZM126.4 152L126.4 152L123.9 152L123.9 144.7L126.5 144.7Q127.5 144.7 128.3 145.2Q129.1 145.6 129.5 146.4Q130.0 147.2 130.0 148.4L130.0 148.4Q130.0 149.5 129.5 150.3Q129.1 151.1 128.3 151.6Q127.5 152 126.4 152ZM125.4 146.0L125.4 150.7L126.4 150.7Q127.1 150.7 127.5 150.5Q128.0 150.2 128.2 149.7Q128.5 149.2 128.5 148.4L128.5 148.4Q128.5 147.5 128.2 147.0Q128.0 146.5 127.5 146.3Q127.1 146.0 126.4 146.0L126.4 146.0L125.4 146.0Z "/></g><mask id="satori_om-id-0-1-1-0-1"><rect x="40" y="156" width="133" height="22" fill="#fff"/></mask><g  ><path fill="#38bdf8" d="M43.7 159.9L46.6 159.9L46.6 173L43.9 173L43.9 162.3L43.8 162.3L40.8 164.4L40.8 161.9L43.7 159.9Z "/></g><defs><clipPath id="satori_bc-id-0-1-1-1"><path x="198" y="131" width="162" height="58" d="M204,131 h150 a6,6 0 0 1 6,6 v46 a6,6 0 0 1 -6,6 h-150 a6,6 0 0 1 -6,-6 v-46 a6,6 0 0 1 6,-6"/></clipPath></defs><mask id="satori_om-id-0-1-1-1"><rect x="199" y="132" width="160" height="56" fill="#fff"/><path width="162" height="58" fill="none" stroke="#000" stroke-width="2" d="M199.757,132.757 A6,6 0 0 1 204,131 h150 a6,6 0 0 1 6,6 v46 a6,6 0 0 1 -6,6 h-150 a6,6 0 0 1 -6,-6 v-46 A6,6 0 0 1 199.757,132.757"/></mask><path x="198" y="131" width="162" height="58" fill="rgba(0,240,255,0.01)" d="M204,131 h150 a6,6 0 0 1 6,6 v46 a6,6 0 0 1 -6,6 h-150 a6,6 0 0 1 -6,-6 v-46 a6,6 0 0 1 6,-6"/><path width="162" height="58" clip-path="url(#satori_bc-id-0-1-1-1)" fill="none" stroke="rgba(0,240,255,0.08)" stroke-width="2" d="M199.757,132.757 A6,6 0 0 1 204,131 h150 a6,6 0 0 1 6,6 v46 a6,6 0 0 1 -6,6 h-150 a6,6 0 0 1 -6,-6 v-46 A6,6 0 0 1 199.757,132.757"/><mask id="satori_om-id-0-1-1-1-0"><rect x="213" y="142" width="132" height="12" fill="#fff"/></mask><g  ><path fill="#94a3b8" d="M215.6 146.0L213.4 146.0L213.4 144.7L219.3 144.7L219.3 146.0L217.1 146.0L217.1 152L215.6 152L215.6 146.0ZM221.6 152L219.9 152L222.4 144.7L224.4 144.7L226.9 152L225.2 152L224.7 150.3L222.1 150.3L221.6 152ZM222.5 149.1L224.3 149.1L224.1 148.5Q223.9 147.8 223.7 147L223.7 147Q223.5 146.5 223.4 145.9L223.4 145.9Q223.2 146.5 223.1 147.0L223.1 147.0Q222.9 147.8 222.7 148.5L222.7 148.5L222.5 149.1ZM229.3 152L227.8 152L227.8 144.7L230.6 144.7Q231.5 144.7 232.0 145.0Q232.6 145.3 232.9 145.8Q233.2 146.4 233.2 147.1Q233.2 147.8 232.9 148.3Q232.6 148.9 232.0 149.1L232.0 149.1Q232.0 149.1 232.0 149.2L232.0 149.2L233.5 152L231.8 152L230.5 149.4L229.3 149.4L229.3 152ZM229.3 146.0L229.3 148.2L230.4 148.2Q230.8 148.2 231.1 148.1Q231.4 147.9 231.6 147.7Q231.7 147.5 231.7 147.1L231.7 147.1Q231.7 146.7 231.6 146.5Q231.4 146.2 231.1 146.1Q230.8 146.0 230.4 146.0L230.4 146.0L229.3 146.0ZM237.6 152.1L237.6 152.1Q236.6 152.1 235.8 151.6Q235.0 151.2 234.6 150.4Q234.2 149.5 234.2 148.4L234.2 148.4Q234.2 147.2 234.6 146.4Q235.1 145.5 235.8 145.1Q236.6 144.6 237.6 144.6L237.6 144.6Q238.2 144.6 238.7 144.8Q239.2 145.0 239.6 145.3Q240.1 145.6 240.3 146.1Q240.6 146.5 240.7 147.1L240.7 147.1L239.1 147.1Q239.1 146.8 238.9 146.6Q238.8 146.4 238.6 146.2Q238.4 146.1 238.1 146.0Q237.9 146.0 237.6 146.0L237.6 146.0Q237.0 146.0 236.6 146.2Q236.2 146.5 235.9 147.0Q235.7 147.6 235.7 148.4Q235.7 149.1 235.9 149.7Q236.2 150.2 236.6 150.5Q237.0 150.8 237.6 150.8L237.6 150.8Q238.1 150.8 238.5 150.6Q238.9 150.4 239.1 150.0L239.1 150.0Q239.3 149.7 239.3 149.3L239.3 149.3L237.7 149.3L237.7 148.1L240.7 148.1L240.7 149.0Q240.7 150.0 240.3 150.7Q239.9 151.4 239.2 151.7Q238.5 152.1 237.6 152.1ZM246.8 152L241.9 152L241.9 144.7L246.7 144.7L246.7 146.0L243.4 146.0L243.4 147.7L246.5 147.7L246.5 148.9L243.4 148.9L243.4 150.8L246.8 150.8L246.8 152ZM249.9 146.0L247.7 146.0L247.7 144.7L253.6 144.7L253.6 146.0L251.4 146.0L251.4 152L249.9 152L249.9 146.0ZM254.0 152L258.7 152L258.7 153.1L254.0 153.1L254.0 152ZM260.9 152L259.4 152L259.4 144.7L262.2 144.7Q263.0 144.7 263.6 145.0Q264.2 145.3 264.5 145.8Q264.8 146.4 264.8 147.1Q264.8 147.8 264.5 148.3Q264.2 148.9 263.6 149.1L263.6 149.1Q263.6 149.1 263.5 149.2L263.5 149.2L265.1 152L263.4 152L262.0 149.4L260.9 149.4L260.9 152ZM260.9 146.0L260.9 148.2L261.9 148.2Q262.4 148.2 262.7 148.1Q263.0 147.9 263.1 147.7Q263.3 147.5 263.3 147.1L263.3 147.1Q263.3 146.7 263.1 146.5Q263.0 146.2 262.7 146.1Q262.4 146.0 261.9 146.0L261.9 146.0L260.9 146.0ZM270.8 152L265.9 152L265.9 144.7L270.8 144.7L270.8 146.0L267.4 146.0L267.4 147.7L270.6 147.7L270.6 148.9L267.4 148.9L267.4 150.8L270.8 150.8L270.8 152ZM273.5 152L272.0 152L272.0 144.7L274.9 144.7Q275.7 144.7 276.3 145.0Q276.9 145.4 277.2 145.9Q277.5 146.5 277.5 147.2L277.5 147.2Q277.5 147.9 277.2 148.5Q276.8 149.0 276.3 149.3Q275.7 149.6 274.8 149.6L274.8 149.6L273.5 149.6L273.5 152ZM273.5 146.0L273.5 148.4L274.6 148.4Q275.0 148.4 275.3 148.3Q275.6 148.1 275.8 147.8Q275.9 147.5 275.9 147.2Q275.9 146.8 275.8 146.5Q275.6 146.3 275.3 146.1Q275.0 146.0 274.6 146.0L274.6 146.0L273.5 146.0ZM281.7 152.1L281.7 152.1Q280.7 152.1 280.0 151.7Q279.2 151.2 278.7 150.4Q278.3 149.5 278.3 148.4L278.3 148.4Q278.3 147.2 278.7 146.3Q279.2 145.5 280.0 145.1Q280.7 144.6 281.7 144.6L281.7 144.6Q282.7 144.6 283.4 145.1Q284.2 145.5 284.6 146.3Q285.1 147.2 285.1 148.4L285.1 148.4Q285.1 149.5 284.6 150.4Q284.2 151.2 283.4 151.7Q282.7 152.1 281.7 152.1ZM281.7 150.8L281.7 150.8Q282.3 150.8 282.7 150.5Q283.1 150.2 283.3 149.7Q283.6 149.1 283.6 148.4L283.6 148.4Q283.6 147.6 283.3 147.0Q283.1 146.5 282.7 146.2Q282.3 146.0 281.7 146.0L281.7 146.0Q281.1 146.0 280.7 146.2Q280.3 146.5 280.1 147.0Q279.8 147.6 279.8 148.4L279.8 148.4Q279.8 149.1 280.1 149.7Q280.3 150.2 280.7 150.5Q281.1 150.8 281.7 150.8ZM288.9 152.1L288.9 152.1Q288 152.1 287.4 151.8Q286.7 151.6 286.3 151.0Q286.0 150.5 286.0 149.7L286.0 149.7L287.4 149.7Q287.4 150.1 287.6 150.4Q287.8 150.6 288.1 150.7Q288.5 150.8 288.9 150.8L288.9 150.8Q289.3 150.8 289.6 150.7Q289.9 150.6 290.0 150.4Q290.2 150.2 290.2 149.9L290.2 149.9Q290.2 149.7 290.0 149.5Q289.9 149.3 289.6 149.2Q289.3 149.1 288.9 149.0L288.9 149.0L288.1 148.8Q287.2 148.6 286.7 148.1Q286.2 147.6 286.2 146.8L286.2 146.8Q286.2 146.2 286.5 145.7Q286.9 145.2 287.5 144.9Q288.1 144.6 288.9 144.6L288.9 144.6Q289.7 144.6 290.3 144.9Q290.9 145.2 291.2 145.7Q291.6 146.2 291.6 146.8L291.6 146.8L290.1 146.8Q290.1 146.4 289.8 146.1Q289.4 145.9 288.9 145.9L288.9 145.9Q288.5 145.9 288.2 146.0Q288.0 146.1 287.8 146.3Q287.7 146.5 287.7 146.7L287.7 146.7Q287.7 147.0 287.8 147.2Q288.0 147.3 288.3 147.5Q288.5 147.6 288.8 147.6L288.8 147.6L289.5 147.8Q290.0 147.9 290.4 148.1Q290.8 148.3 291.1 148.5Q291.4 148.8 291.5 149.1Q291.7 149.5 291.7 149.9L291.7 149.9Q291.7 150.6 291.3 151.1Q291.0 151.6 290.4 151.8Q289.8 152.1 288.9 152.1Z "/></g><mask id="satori_om-id-0-1-1-1-1"><rect x="213" y="156" width="132" height="22" fill="#fff"/></mask><g  ><path fill="#34d399" d="M218.5 173.2L218.5 173.2Q217.2 173.2 216.1 172.7Q215.1 172.2 214.5 171.3Q213.9 170.4 213.8 169.3L213.8 169.3L216.4 169.3Q216.5 169.8 216.7 170.2Q217.0 170.6 217.5 170.8Q218.0 171.0 218.5 171.0L218.5 171.0Q219.2 171.0 219.7 170.8Q220.2 170.5 220.5 169.9Q220.8 169.4 220.8 168.7L220.8 168.7Q220.8 168.0 220.5 167.5Q220.2 166.9 219.7 166.6Q219.2 166.3 218.5 166.3L218.5 166.3Q217.9 166.3 217.3 166.6Q216.8 166.8 216.5 167.2L216.5 167.2L214.1 166.8L214.7 159.9L222.7 159.9L222.7 162.1L216.9 162.1L216.6 165.4L216.7 165.4Q217.0 165.0 217.7 164.7Q218.4 164.3 219.3 164.3L219.3 164.3Q220.1 164.3 220.9 164.7Q221.6 165.0 222.2 165.6Q222.8 166.1 223.1 166.9Q223.4 167.7 223.4 168.6L223.4 168.6Q223.4 170.0 222.8 171.0Q222.1 172.0 221.1 172.6Q220.0 173.2 218.5 173.2ZM230.0 173.2L230.0 173.2Q228.6 173.2 227.5 172.7Q226.4 172.2 225.7 171.3Q225.1 170.5 225.1 169.3L225.1 169.3L227.8 169.3Q227.8 169.8 228.1 170.2Q228.4 170.5 228.9 170.8Q229.4 171.0 230.0 171.0L230.0 171.0Q230.6 171.0 231.1 170.7Q231.6 170.5 231.9 170.1Q232.2 169.7 232.2 169.2L232.2 169.2Q232.2 168.6 231.9 168.2Q231.6 167.8 231.1 167.6Q230.5 167.3 229.8 167.3L229.8 167.3L228.5 167.3L228.5 165.3L229.8 165.3Q230.4 165.3 230.9 165.1Q231.4 164.9 231.6 164.5Q231.9 164.1 231.9 163.6L231.9 163.6Q231.9 163.1 231.7 162.7Q231.4 162.3 231.0 162.1Q230.6 161.9 230.0 161.9L230.0 161.9Q229.4 161.9 229.0 162.1Q228.5 162.3 228.2 162.7Q227.9 163.0 227.9 163.5L227.9 163.5L225.3 163.5Q225.3 162.4 226.0 161.6Q226.6 160.7 227.6 160.2Q228.7 159.7 230.0 159.7L230.0 159.7Q231.4 159.7 232.4 160.2Q233.4 160.7 234.0 161.5Q234.5 162.4 234.5 163.4L234.5 163.4Q234.5 164.5 233.8 165.2Q233.2 166.0 232.1 166.2L232.1 166.2L232.1 166.3Q233.0 166.4 233.7 166.8Q234.3 167.2 234.7 167.9Q235.0 168.5 235.0 169.3L235.0 169.3Q235.0 170.4 234.3 171.3Q233.7 172.2 232.6 172.7Q231.4 173.2 230.0 173.2Z "/></g><mask id="satori_om-id-1"><rect x="385" y="65" width="440" height="90" fill="#fff"/></mask><mask id="satori_om-id-1-0"><rect x="409" y="65" width="416" height="16" fill="#fff"/></mask><g  ><path fill="#00f0ff" d="M416.8 73.4L416.8 75.0L410.3 77.9L410.3 76.1L414.7 74.3L414.7 74.2L410.3 72.4L410.3 70.6L416.8 73.4Z M425.9 78.1L425.9 78.1Q424.8 78.1 424.0 77.7Q423.3 77.2 422.8 76.4Q422.4 75.6 422.4 74.5L422.4 74.5Q422.4 73.4 422.8 72.6Q423.3 71.7 424.0 71.3Q424.8 70.8 425.9 70.8L425.9 70.8Q426.5 70.8 427.0 71.0Q427.6 71.1 428.0 71.4Q428.4 71.8 428.7 72.2Q428.9 72.6 429.0 73.2L429.0 73.2L427.3 73.5Q427.2 73.2 427.1 73.0Q427.0 72.8 426.8 72.6Q426.6 72.5 426.4 72.4Q426.2 72.3 425.9 72.3L425.9 72.3Q425.4 72.3 425.1 72.6Q424.7 72.9 424.5 73.3Q424.4 73.8 424.4 74.5L424.4 74.5Q424.4 75.1 424.5 75.6Q424.7 76.1 425.1 76.4Q425.4 76.6 425.9 76.6L425.9 76.6Q426.2 76.6 426.4 76.6Q426.6 76.5 426.8 76.3Q427.0 76.1 427.1 75.9Q427.2 75.7 427.3 75.4L427.3 75.4L429.1 75.7Q429.0 76.3 428.7 76.7Q428.4 77.2 428.0 77.5Q427.6 77.8 427.1 78.0Q426.5 78.1 425.9 78.1ZM432.8 78.1L432.8 78.1Q432.2 78.1 431.6 77.9Q431.1 77.7 430.8 77.2Q430.5 76.7 430.5 76.0L430.5 76.0Q430.5 75.4 430.7 75.0Q430.9 74.6 431.3 74.4Q431.7 74.1 432.2 74.0Q432.6 73.9 433.2 73.8L433.2 73.8Q433.8 73.8 434.2 73.7Q434.5 73.7 434.7 73.5Q434.9 73.4 434.9 73.2L434.9 73.2L434.9 73.2Q434.9 72.9 434.8 72.7Q434.6 72.4 434.4 72.3Q434.1 72.2 433.8 72.2L433.8 72.2Q433.4 72.2 433.1 72.3Q432.9 72.4 432.7 72.6Q432.5 72.8 432.4 73.0L432.4 73.0L430.7 72.8Q430.9 72.1 431.3 71.7Q431.7 71.3 432.4 71.0Q433.0 70.8 433.8 70.8L433.8 70.8Q434.3 70.8 434.9 71.0Q435.4 71.1 435.9 71.4Q436.3 71.7 436.5 72.1Q436.8 72.6 436.8 73.2L436.8 73.2L436.8 78L435.0 78L435.0 77.0L434.9 77.0Q434.7 77.3 434.5 77.6Q434.2 77.8 433.8 78.0Q433.4 78.1 432.8 78.1ZM433.4 76.8L433.4 76.8Q433.8 76.8 434.2 76.6Q434.5 76.4 434.7 76.1Q434.9 75.8 434.9 75.5L434.9 75.5L434.9 74.7Q434.8 74.8 434.6 74.8Q434.5 74.9 434.3 74.9Q434.0 74.9 433.8 75.0Q433.6 75.0 433.5 75.0L433.5 75.0Q433.1 75.1 432.9 75.2Q432.6 75.3 432.5 75.5Q432.3 75.7 432.3 76.0L432.3 76.0Q432.3 76.2 432.5 76.4Q432.6 76.6 432.8 76.7Q433.1 76.8 433.4 76.8ZM441.1 70.9L442.4 70.9L442.4 72.4L441.1 72.4L441.1 75.9Q441.1 76.3 441.3 76.4Q441.4 76.6 441.8 76.6L441.8 76.6Q441.9 76.6 442.1 76.6Q442.3 76.5 442.4 76.5L442.4 76.5L442.6 77.9Q442.3 78.0 442.0 78.1Q441.7 78.1 441.4 78.1L441.4 78.1Q440.3 78.1 439.8 77.6Q439.2 77.1 439.2 76.1L439.2 76.1L439.2 72.4L438.2 72.4L438.2 70.9L439.2 70.9L439.2 69.2L441.1 69.2L441.1 70.9Z M450.2 68.1L451.8 68.1L448.8 79.4L447.1 79.4L450.2 68.1ZM457.5 78L455.3 78L452.7 70.9L454.7 70.9L455.9 74.6Q456.1 75.3 456.3 76.0L456.3 76.0Q456.3 76.3 456.4 76.5L456.4 76.5Q456.5 76.3 456.5 76.0L456.5 76.0Q456.7 75.3 456.9 74.6L456.9 74.6L458.1 70.9L460.1 70.9L457.5 78ZM463.6 78.1L463.6 78.1Q462.9 78.1 462.4 77.9Q461.8 77.7 461.5 77.2Q461.2 76.7 461.2 76.0L461.2 76.0Q461.2 75.4 461.4 75.0Q461.6 74.6 462.0 74.4Q462.4 74.1 462.9 74.0Q463.4 73.9 463.9 73.8L463.9 73.8Q464.5 73.8 464.9 73.7Q465.3 73.7 465.4 73.5Q465.6 73.4 465.6 73.2L465.6 73.2L465.6 73.2Q465.6 72.9 465.5 72.7Q465.4 72.4 465.1 72.3Q464.9 72.2 464.5 72.2L464.5 72.2Q464.1 72.2 463.9 72.3Q463.6 72.4 463.4 72.6Q463.2 72.8 463.2 73.0L463.2 73.0L461.4 72.8Q461.6 72.1 462.0 71.7Q462.4 71.3 463.1 71.0Q463.7 70.8 464.5 70.8L464.5 70.8Q465.1 70.8 465.6 71.0Q466.2 71.1 466.6 71.4Q467.0 71.7 467.3 72.1Q467.5 72.6 467.5 73.2L467.5 73.2L467.5 78L465.7 78L465.7 77.0L465.6 77.0Q465.5 77.3 465.2 77.6Q464.9 77.8 464.5 78.0Q464.1 78.1 463.6 78.1ZM464.1 76.8L464.1 76.8Q464.6 76.8 464.9 76.6Q465.2 76.4 465.4 76.1Q465.6 75.8 465.6 75.5L465.6 75.5L465.6 74.7Q465.5 74.8 465.4 74.8Q465.2 74.9 465.0 74.9Q464.8 74.9 464.6 75.0Q464.4 75.0 464.2 75.0L464.2 75.0Q463.9 75.1 463.6 75.2Q463.3 75.3 463.2 75.5Q463.0 75.7 463.0 76.0L463.0 76.0Q463.0 76.2 463.2 76.4Q463.3 76.6 463.6 76.7Q463.8 76.8 464.1 76.8ZM471.5 78L469.6 78L469.6 70.9L471.5 70.9L471.5 72.1L471.6 72.1Q471.8 71.5 472.2 71.1Q472.7 70.8 473.3 70.8L473.3 70.8Q473.4 70.8 473.6 70.8Q473.8 70.8 473.9 70.9L473.9 70.9L473.9 72.6Q473.8 72.5 473.5 72.5Q473.3 72.5 473.1 72.5L473.1 72.5Q472.6 72.5 472.3 72.7Q471.9 72.9 471.7 73.2Q471.5 73.5 471.5 74.0L471.5 74.0L471.5 78ZM477.8 68.1L479.5 68.1L476.4 79.4L474.8 79.4L477.8 68.1ZM481.0 68.5L482.9 68.5L482.9 78L481.0 78L481.0 68.5ZM488.2 78.1L488.2 78.1Q487.1 78.1 486.3 77.7Q485.5 77.2 485.1 76.4Q484.7 75.6 484.7 74.5L484.7 74.5Q484.7 73.4 485.1 72.6Q485.5 71.7 486.3 71.3Q487.1 70.8 488.2 70.8L488.2 70.8Q489.2 70.8 490.0 71.3Q490.8 71.7 491.2 72.6Q491.6 73.4 491.6 74.5L491.6 74.5Q491.6 75.6 491.2 76.4Q490.8 77.2 490.0 77.7Q489.2 78.1 488.2 78.1ZM488.2 76.6L488.2 76.6Q488.7 76.6 489.0 76.4Q489.4 76.1 489.5 75.6Q489.7 75.1 489.7 74.5L489.7 74.5Q489.7 73.8 489.5 73.4Q489.4 72.9 489.0 72.6Q488.7 72.3 488.2 72.3L488.2 72.3Q487.7 72.3 487.3 72.6Q487.0 72.9 486.8 73.4Q486.6 73.8 486.6 74.5L486.6 74.5Q486.6 75.1 486.8 75.6Q487.0 76.1 487.3 76.4Q487.7 76.6 488.2 76.6ZM496.6 80.8L496.6 80.8Q495.7 80.8 495.1 80.6Q494.4 80.4 494.0 80.0Q493.6 79.6 493.4 79.1L493.4 79.1L495.1 78.6Q495.2 78.8 495.4 79.0Q495.5 79.2 495.8 79.3Q496.2 79.4 496.6 79.4L496.6 79.4Q497.3 79.4 497.8 79.1Q498.2 78.8 498.2 78.1L498.2 78.1L498.2 76.7L498.0 76.7Q497.9 77.0 497.7 77.3Q497.4 77.6 497.0 77.7Q496.6 77.9 496.1 77.9L496.1 77.9Q495.3 77.9 494.6 77.5Q494.0 77.1 493.6 76.4Q493.2 75.6 493.2 74.4L493.2 74.4Q493.2 73.2 493.6 72.4Q494.0 71.6 494.6 71.2Q495.3 70.8 496.1 70.8L496.1 70.8Q496.7 70.8 497.1 71.0Q497.5 71.2 497.7 71.5Q498.0 71.8 498.1 72.1L498.1 72.1L498.2 72.1L498.2 70.9L500.1 70.9L500.1 77.9Q500.1 78.9 499.6 79.5Q499.2 80.2 498.4 80.5Q497.6 80.8 496.6 80.8ZM496.7 76.5L496.7 76.5Q497.1 76.5 497.5 76.2Q497.8 76.0 498.0 75.5Q498.2 75.1 498.2 74.4L498.2 74.4Q498.2 73.8 498.0 73.3Q497.8 72.9 497.5 72.6Q497.1 72.3 496.7 72.3L496.7 72.3Q496.2 72.3 495.8 72.6Q495.5 72.9 495.3 73.3Q495.1 73.8 495.1 74.4L495.1 74.4Q495.1 75.0 495.3 75.5Q495.5 76.0 495.8 76.2Q496.2 76.5 496.7 76.5ZM504.6 68.1L506.3 68.1L503.2 79.4L501.6 79.4L504.6 68.1ZM507.7 68.5L509.6 68.5L509.6 78L507.7 78L507.7 68.5ZM513.7 78.1L513.7 78.1Q513.1 78.1 512.5 77.9Q512.0 77.7 511.7 77.2Q511.4 76.7 511.4 76.0L511.4 76.0Q511.4 75.4 511.6 75.0Q511.8 74.6 512.2 74.4Q512.6 74.1 513.0 74.0Q513.5 73.9 514.1 73.8L514.1 73.8Q514.7 73.8 515.0 73.7Q515.4 73.7 515.6 73.5Q515.8 73.4 515.8 73.2L515.8 73.2L515.8 73.2Q515.8 72.9 515.6 72.7Q515.5 72.4 515.3 72.3Q515.0 72.2 514.7 72.2L514.7 72.2Q514.3 72.2 514.0 72.3Q513.8 72.4 513.6 72.6Q513.4 72.8 513.3 73.0L513.3 73.0L511.6 72.8Q511.8 72.1 512.2 71.7Q512.6 71.3 513.2 71.0Q513.9 70.8 514.7 70.8L514.7 70.8Q515.2 70.8 515.8 71.0Q516.3 71.1 516.8 71.4Q517.2 71.7 517.4 72.1Q517.7 72.6 517.7 73.2L517.7 73.2L517.7 78L515.9 78L515.9 77.0L515.8 77.0Q515.6 77.3 515.4 77.6Q515.1 77.8 514.7 78.0Q514.3 78.1 513.7 78.1ZM514.3 76.8L514.3 76.8Q514.7 76.8 515.1 76.6Q515.4 76.4 515.6 76.1Q515.8 75.8 515.8 75.5L515.8 75.5L515.8 74.7Q515.7 74.8 515.5 74.8Q515.4 74.9 515.2 74.9Q514.9 74.9 514.7 75.0Q514.5 75.0 514.4 75.0L514.4 75.0Q514.0 75.1 513.8 75.2Q513.5 75.3 513.4 75.5Q513.2 75.7 513.2 76.0L513.2 76.0Q513.2 76.2 513.3 76.4Q513.5 76.6 513.7 76.7Q514.0 76.8 514.3 76.8ZM521.7 73.9L521.7 73.9L521.7 78L519.8 78L519.8 70.9L521.6 70.9L521.6 72.4Q521.9 71.7 522.4 71.3L522.4 71.3Q522.9 70.8 523.8 70.8L523.8 70.8Q524.6 70.8 525.1 71.1Q525.7 71.5 526.0 72.1Q526.3 72.7 526.3 73.5L526.3 73.5L526.3 78L524.4 78L524.4 73.8Q524.4 73.2 524.0 72.8Q523.7 72.4 523.1 72.4L523.1 72.4Q522.7 72.4 522.4 72.6Q522.1 72.8 521.9 73.1Q521.7 73.4 521.7 73.9ZM531.6 80.8L531.6 80.8Q530.7 80.8 530.0 80.6Q529.3 80.4 528.9 80.0Q528.5 79.6 528.4 79.1L528.4 79.1L530.0 78.6Q530.1 78.8 530.3 79.0Q530.5 79.2 530.8 79.3Q531.1 79.4 531.5 79.4L531.5 79.4Q532.3 79.4 532.7 79.1Q533.1 78.8 533.1 78.1L533.1 78.1L533.1 76.7L533.0 76.7Q532.8 77.0 532.6 77.3Q532.3 77.6 532.0 77.7Q531.6 77.9 531.0 77.9L531.0 77.9Q530.2 77.9 529.5 77.5Q528.9 77.1 528.5 76.4Q528.1 75.6 528.1 74.4L528.1 74.4Q528.1 73.2 528.5 72.4Q528.9 71.6 529.6 71.2Q530.2 70.8 531.0 70.8L531.0 70.8Q531.6 70.8 532.0 71.0Q532.4 71.2 532.7 71.5Q532.9 71.8 533.0 72.1L533.0 72.1L533.1 72.1L533.1 70.9L535.0 70.9L535.0 77.9Q535.0 78.9 534.5 79.5Q534.1 80.2 533.3 80.5Q532.6 80.8 531.6 80.8ZM531.6 76.5L531.6 76.5Q532.1 76.5 532.4 76.2Q532.8 76.0 532.9 75.5Q533.1 75.1 533.1 74.4L533.1 74.4Q533.1 73.8 532.9 73.3Q532.8 72.9 532.4 72.6Q532.1 72.3 531.6 72.3L531.6 72.3Q531.1 72.3 530.7 72.6Q530.4 72.9 530.2 73.3Q530.1 73.8 530.1 74.4L530.1 74.4Q530.1 75.0 530.2 75.5Q530.4 76.0 530.7 76.2Q531.1 76.5 531.6 76.5ZM539.6 78.1L539.6 78.1Q538.8 78.1 538.3 77.8Q537.7 77.4 537.4 76.8Q537.1 76.2 537.1 75.4L537.1 75.4L537.1 70.9L539.0 70.9L539.0 75.1Q539.0 75.7 539.4 76.1Q539.7 76.5 540.3 76.5L540.3 76.5Q540.7 76.5 541.0 76.3Q541.3 76.1 541.5 75.8Q541.7 75.5 541.7 75.0L541.7 75.0L541.7 70.9L543.6 70.9L543.6 78L541.8 78L541.8 76.5Q541.5 77.2 541.0 77.6L541.0 77.6Q540.4 78.1 539.6 78.1ZM547.7 78.1L547.7 78.1Q547.0 78.1 546.5 77.9Q545.9 77.7 545.6 77.2Q545.3 76.7 545.3 76.0L545.3 76.0Q545.3 75.4 545.5 75.0Q545.8 74.6 546.1 74.4Q546.5 74.1 547.0 74.0Q547.5 73.9 548.0 73.8L548.0 73.8Q548.6 73.8 549.0 73.7Q549.4 73.7 549.5 73.5Q549.7 73.4 549.7 73.2L549.7 73.2L549.7 73.2Q549.7 72.9 549.6 72.7Q549.5 72.4 549.2 72.3Q549.0 72.2 548.6 72.2L548.6 72.2Q548.2 72.2 548.0 72.3Q547.7 72.4 547.5 72.6Q547.4 72.8 547.3 73.0L547.3 73.0L545.5 72.8Q545.7 72.1 546.1 71.7Q546.6 71.3 547.2 71.0Q547.8 70.8 548.6 70.8L548.6 70.8Q549.2 70.8 549.7 71.0Q550.3 71.1 550.7 71.4Q551.1 71.7 551.4 72.1Q551.6 72.6 551.6 73.2L551.6 73.2L551.6 78L549.8 78L549.8 77.0L549.8 77.0Q549.6 77.3 549.3 77.6Q549.0 77.8 548.6 78.0Q548.2 78.1 547.7 78.1ZM548.2 76.8L548.2 76.8Q548.7 76.8 549.0 76.6Q549.4 76.4 549.5 76.1Q549.7 75.8 549.7 75.5L549.7 75.5L549.7 74.7Q549.7 74.8 549.5 74.8Q549.3 74.9 549.1 74.9Q548.9 74.9 548.7 75.0Q548.5 75.0 548.3 75.0L548.3 75.0Q548.0 75.1 547.7 75.2Q547.4 75.3 547.3 75.5Q547.2 75.7 547.2 76.0L547.2 76.0Q547.2 76.2 547.3 76.4Q547.4 76.6 547.7 76.7Q547.9 76.8 548.2 76.8ZM556.9 80.8L556.9 80.8Q556.0 80.8 555.4 80.6Q554.7 80.4 554.3 80.0Q553.9 79.6 553.7 79.1L553.7 79.1L555.4 78.6Q555.4 78.8 555.6 79.0Q555.8 79.2 556.1 79.3Q556.4 79.4 556.9 79.4L556.9 79.4Q557.6 79.4 558.0 79.1Q558.5 78.8 558.5 78.1L558.5 78.1L558.5 76.7L558.3 76.7Q558.2 77.0 557.9 77.3Q557.7 77.6 557.3 77.7Q556.9 77.9 556.3 77.9L556.3 77.9Q555.5 77.9 554.9 77.5Q554.2 77.1 553.8 76.4Q553.5 75.6 553.5 74.4L553.5 74.4Q553.5 73.2 553.9 72.4Q554.2 71.6 554.9 71.2Q555.6 70.8 556.3 70.8L556.3 70.8Q556.9 70.8 557.4 71.0Q557.8 71.2 558.0 71.5Q558.3 71.8 558.4 72.1L558.4 72.1L558.5 72.1L558.5 70.9L560.3 70.9L560.3 77.9Q560.3 78.9 559.9 79.5Q559.5 80.2 558.7 80.5Q557.9 80.8 556.9 80.8ZM556.9 76.5L556.9 76.5Q557.4 76.5 557.8 76.2Q558.1 76.0 558.3 75.5Q558.5 75.1 558.5 74.4L558.5 74.4Q558.5 73.8 558.3 73.3Q558.1 72.9 557.8 72.6Q557.4 72.3 556.9 72.3L556.9 72.3Q556.4 72.3 556.1 72.6Q555.8 72.9 555.6 73.3Q555.4 73.8 555.4 74.4L555.4 74.4Q555.4 75.0 555.6 75.5Q555.8 76.0 556.1 76.2Q556.4 76.5 556.9 76.5ZM565.7 78.1L565.7 78.1Q564.6 78.1 563.8 77.7Q563.0 77.3 562.6 76.4Q562.2 75.6 562.2 74.5L562.2 74.5Q562.2 73.4 562.6 72.6Q563.0 71.7 563.8 71.3Q564.5 70.8 565.6 70.8L565.6 70.8Q566.3 70.8 566.9 71.0Q567.5 71.3 567.9 71.7Q568.4 72.2 568.7 72.8Q568.9 73.5 568.9 74.4L568.9 74.4L568.9 74.9L564.1 74.9Q564.1 75.5 564.3 75.9L564.3 75.9Q564.5 76.3 564.8 76.5Q565.2 76.7 565.7 76.7L565.7 76.7Q566.0 76.7 566.3 76.6Q566.6 76.5 566.8 76.3Q567.0 76.1 567.1 75.9L567.1 75.9L568.8 76.2Q568.6 76.8 568.2 77.2Q567.8 77.7 567.1 77.9Q566.5 78.1 565.7 78.1ZM564.1 73.8L564.1 73.8L567.1 73.8Q567.0 73.4 566.9 73.1L566.9 73.1Q566.8 72.7 566.4 72.5Q566.1 72.2 565.6 72.2L565.6 72.2Q565.1 72.2 564.8 72.5Q564.4 72.7 564.2 73.1L564.2 73.1Q564.1 73.4 564.1 73.8ZM573.5 78.1L573.5 78.1Q572.7 78.1 572.0 77.9Q571.4 77.7 570.9 77.2Q570.5 76.7 570.4 76.1L570.4 76.1L572.2 75.8Q572.3 76.2 572.7 76.5Q573.0 76.7 573.6 76.7L573.6 76.7Q574.1 76.7 574.4 76.5Q574.8 76.3 574.8 76.0L574.8 76.0Q574.8 75.7 574.5 75.6Q574.3 75.4 573.8 75.3L573.8 75.3L572.6 75.0Q571.6 74.8 571.1 74.3Q570.6 73.8 570.6 73.0L570.6 73.0Q570.6 72.3 571.0 71.8Q571.3 71.3 572.0 71.1Q572.7 70.8 573.6 70.8L573.6 70.8Q574.4 70.8 575.0 71.0Q575.6 71.3 576.0 71.7Q576.4 72.1 576.5 72.7L576.5 72.7L574.8 73.0Q574.7 72.6 574.4 72.4Q574.1 72.2 573.6 72.2L573.6 72.2Q573.1 72.2 572.8 72.4Q572.5 72.6 572.5 72.9L572.5 72.9Q572.5 73.2 572.7 73.4Q572.9 73.5 573.4 73.6L573.4 73.6L574.7 73.9Q575.7 74.1 576.2 74.6Q576.7 75.0 576.7 75.8L576.7 75.8Q576.7 76.5 576.3 77.0Q575.9 77.6 575.2 77.8Q574.5 78.1 573.5 78.1Z "/></g><clipPath id="satori_cp-id-1-1"><path x="409" y="93" width="416" height="12" d="M412,93 h410 a3,3 0 0 1 3,3 v6 a3,3 0 0 1 -3,3 h-410 a3,3 0 0 1 -3,-3 v-6 a3,3 0 0 1 3,-3"/></clipPath><mask id="satori_om-id-1-1"><rect x="409" y="93" width="416" height="12" fill="#fff"/></mask><path x="409" y="93" width="416" height="12" fill="rgba(255,255,255,0.05)" d="M412,93 h410 a3,3 0 0 1 3,3 v6 a3,3 0 0 1 -3,3 h-410 a3,3 0 0 1 -3,-3 v-6 a3,3 0 0 1 3,-3"/><mask id="satori_om-id-1-1-0"><rect x="409" y="93" width="87" height="12" fill="#fff" mask="url(#satori_om-id-1-1)"/></mask><rect x="409" y="93" width="87" height="12" fill="#3572A5" clip-path="url(#satori_cp-id-1-1)" mask="url(#satori_om-id-1-1)"/><mask id="satori_om-id-1-1-1"><rect x="496" y="93" width="42" height="12" fill="#fff" mask="url(#satori_om-id-1-1)"/></mask><rect x="496" y="93" width="42" height="12" fill="#f1e05a" clip-path="url(#satori_cp-id-1-1)" mask="url(#satori_om-id-1-1)"/><mask id="satori_om-id-1-1-2"><rect x="538" y="93" width="42" height="12" fill="#fff" mask="url(#satori_om-id-1-1)"/></mask><rect x="538" y="93" width="42" height="12" fill="#DA5B0B" clip-path="url(#satori_cp-id-1-1)" mask="url(#satori_om-id-1-1)"/><mask id="satori_om-id-1-1-3"><rect x="580" y="93" width="41" height="12" fill="#fff" mask="url(#satori_om-id-1-1)"/></mask><rect x="580" y="93" width="41" height="12" fill="#663399" clip-path="url(#satori_cp-id-1-1)" mask="url(#satori_om-id-1-1)"/><mask id="satori_om-id-1-1-4"><rect x="621" y="93" width="33" height="12" fill="#fff" mask="url(#satori_om-id-1-1)"/></mask><rect x="621" y="93" width="33" height="12" fill="#3178c6" clip-path="url(#satori_cp-id-1-1)" mask="url(#satori_om-id-1-1)"/><mask id="satori_om-id-1-2"><rect x="409" y="121" width="416" height="34" fill="#fff"/></mask><mask id="satori_om-id-1-2-0"><rect x="409" y="121" width="81" height="13" fill="#fff"/></mask><mask id="satori_om-id-1-2-0-0"><rect x="409" y="124" width="8" height="8" fill="#fff"/></mask><path x="409" y="124" width="8" height="8" fill="#3572A5" d="M413,124 h0 a4,4 0 0 1 4,4 v0 a4,4 0 0 1 -4,4 h0 a4,4 0 0 1 -4,-4 v0 a4,4 0 0 1 4,-4"/><mask id="satori_om-id-1-2-0-1"><rect x="423" y="121" width="39" height="13" fill="#fff"/></mask><g  ><path fill="#cbd5e1" d="M425.4 132L423.7 132L423.7 124.0L426.8 124.0Q427.8 124.0 428.4 124.3Q429.0 124.7 429.4 125.3Q429.7 125.9 429.7 126.7L429.7 126.7Q429.7 127.5 429.4 128.1Q429.0 128.7 428.4 129.0Q427.7 129.4 426.8 129.4L426.8 129.4L425.4 129.4L425.4 132ZM425.4 125.4L425.4 128.1L426.5 128.1Q427.0 128.1 427.4 127.9Q427.7 127.7 427.9 127.4Q428.0 127.1 428.0 126.7Q428.0 126.3 427.9 126.0Q427.7 125.7 427.4 125.5Q427.0 125.4 426.5 125.4L426.5 125.4L425.4 125.4ZM430.8 134.1L430.8 134.1L431.1 132.9L431.3 133.0Q431.7 133.0 431.9 133.0Q432.2 133.0 432.3 132.8Q432.5 132.6 432.5 132.3L432.5 132.3L432.5 132.0L430.3 126.0L432.0 126.0L433.0 129.1Q433.2 129.7 433.3 130.3L433.3 130.3Q433.4 130.5 433.4 130.7L433.4 130.7Q433.4 130.5 433.5 130.3L433.5 130.3Q433.6 129.7 433.8 129.1L433.8 129.1L434.9 126.0L436.6 126.0L434.0 132.7Q433.8 133.2 433.6 133.5Q433.3 133.9 432.9 134.1Q432.4 134.3 431.8 134.3L431.8 134.3Q431.5 134.3 431.2 134.2Q430.9 134.2 430.8 134.1ZM439.3 126.0L440.4 126.0L440.4 127.2L439.3 127.2L439.3 130.2Q439.3 130.5 439.4 130.7Q439.5 130.8 439.8 130.8L439.8 130.8Q439.9 130.8 440.1 130.8Q440.3 130.8 440.4 130.7L440.4 130.7L440.6 131.9Q440.3 132.0 440.1 132.1Q439.8 132.1 439.5 132.1L439.5 132.1Q438.6 132.1 438.2 131.6Q437.7 131.2 437.7 130.4L437.7 130.4L437.7 127.2L436.9 127.2L436.9 126.0L437.7 126.0L437.7 124.6L439.3 124.6L439.3 126.0ZM443.1 128.5L443.1 128.5L443.1 132L441.5 132L441.5 124.0L443.0 124.0L443.0 127.1Q443.3 126.6 443.6 126.3L443.6 126.3Q444.1 125.9 444.9 125.9L444.9 125.9Q445.5 125.9 446.0 126.2Q446.4 126.5 446.7 127.0Q446.9 127.5 446.9 128.2L446.9 128.2L446.9 132L445.3 132L445.3 128.5Q445.3 127.9 445.0 127.6Q444.8 127.3 444.2 127.3L444.2 127.3Q443.9 127.3 443.6 127.4Q443.4 127.6 443.2 127.8Q443.1 128.1 443.1 128.5ZM451.0 132.1L451.0 132.1Q450.1 132.1 449.4 131.7Q448.8 131.3 448.4 130.6Q448.1 129.9 448.1 129.0L448.1 129.0Q448.1 128.1 448.4 127.4Q448.8 126.7 449.4 126.3Q450.1 125.9 451.0 125.9L451.0 125.9Q451.9 125.9 452.6 126.3Q453.2 126.7 453.6 127.4Q453.9 128.1 453.9 129.0L453.9 129.0Q453.9 129.9 453.6 130.6Q453.2 131.3 452.6 131.7Q451.9 132.1 451.0 132.1ZM451.0 130.9L451.0 130.9Q451.4 130.9 451.7 130.6Q452.0 130.4 452.2 130.0Q452.3 129.5 452.3 129.0L452.3 129.0Q452.3 128.5 452.2 128.1Q452.0 127.7 451.7 127.4Q451.4 127.2 451.0 127.2L451.0 127.2Q450.6 127.2 450.3 127.4Q450.0 127.7 449.9 128.1Q449.7 128.5 449.7 129.0L449.7 129.0Q449.7 129.5 449.9 130.0Q450.0 130.4 450.3 130.6Q450.6 130.9 451.0 130.9ZM456.7 128.5L456.7 128.5L456.7 132L455.1 132L455.1 126.0L456.6 126.0L456.6 127.2Q456.8 126.7 457.2 126.3L457.2 126.3Q457.7 125.9 458.5 125.9L458.5 125.9Q459.1 125.9 459.6 126.2Q460.0 126.5 460.3 127.0Q460.5 127.5 460.5 128.2L460.5 128.2L460.5 132L458.9 132L458.9 128.5Q458.9 127.9 458.6 127.6Q458.3 127.3 457.8 127.3L457.8 127.3Q457.5 127.3 457.2 127.4Q457.0 127.6 456.8 127.8Q456.7 128.1 456.7 128.5Z "/></g><mask id="satori_om-id-1-2-0-2"><rect x="468" y="121" width="22" height="13" fill="#fff"/></mask><g  ><path fill="#94a3b8" d="M473.9 132L468.8 132L468.8 131.3L471.5 128.4Q471.9 127.9 472.2 127.5Q472.5 127.2 472.7 126.8Q472.8 126.5 472.8 126.1L472.8 126.1Q472.8 125.7 472.6 125.4Q472.4 125.1 472.1 124.9Q471.7 124.8 471.3 124.8L471.3 124.8Q470.9 124.8 470.5 125.0Q470.2 125.1 470.0 125.5Q469.8 125.8 469.8 126.3L469.8 126.3L468.8 126.3Q468.8 125.6 469.2 125.0Q469.5 124.5 470.1 124.2Q470.6 123.9 471.3 123.9L471.3 123.9Q472.1 123.9 472.6 124.2Q473.2 124.5 473.5 125.0Q473.8 125.5 473.8 126.1L473.8 126.1Q473.8 126.6 473.6 127.0Q473.5 127.4 473.1 127.9Q472.7 128.4 472.0 129.2L472.0 129.2L470.2 131.0L470.2 131.1L473.9 131.1L473.9 132ZM477.0 124.0L478.2 124.0L478.2 132L477.2 132L477.2 124.9L477.2 124.9L475.2 126.4L475.2 125.3L477.0 124.0ZM482.0 127.5L482.0 127.5Q481.5 127.5 481.1 127.3Q480.8 127.1 480.6 126.7Q480.4 126.3 480.4 125.9L480.4 125.9L480.4 125.5Q480.4 125.0 480.6 124.7Q480.8 124.3 481.1 124.1Q481.5 123.9 482.0 123.9L482.0 123.9Q482.5 123.9 482.9 124.1Q483.2 124.3 483.4 124.7Q483.6 125.0 483.6 125.5L483.6 125.5L483.6 125.9Q483.6 126.3 483.4 126.7Q483.2 127.1 482.8 127.3Q482.5 127.5 482.0 127.5ZM482.0 126.8L482.0 126.8Q482.4 126.8 482.6 126.6Q482.7 126.3 482.7 125.9L482.7 125.9L482.7 125.5Q482.7 125.1 482.6 124.9Q482.4 124.6 482.0 124.6L482.0 124.6Q481.6 124.6 481.4 124.9Q481.2 125.1 481.2 125.5L481.2 125.5L481.2 125.9Q481.2 126.3 481.4 126.6Q481.6 126.8 482.0 126.8ZM487.2 132.2L487.2 132.2Q486.7 132.2 486.3 131.9Q486.0 131.7 485.8 131.3Q485.6 131.0 485.6 130.5L485.6 130.5L485.6 130.1Q485.6 129.7 485.8 129.3Q486.0 128.9 486.3 128.7Q486.7 128.5 487.2 128.5L487.2 128.5Q487.7 128.5 488.1 128.7Q488.4 128.9 488.6 129.3Q488.7 129.7 488.7 130.1L488.7 130.1L488.7 130.5Q488.7 131.0 488.6 131.3Q488.4 131.7 488.0 131.9Q487.7 132.2 487.2 132.2ZM487.2 131.5L487.2 131.5Q487.6 131.5 487.8 131.2Q487.9 130.9 487.9 130.5L487.9 130.5L487.9 130.1Q487.9 129.8 487.8 129.5Q487.6 129.2 487.2 129.2L487.2 129.2Q486.8 129.2 486.6 129.5Q486.4 129.8 486.4 130.1L486.4 130.1L486.4 130.5Q486.4 130.9 486.6 131.2Q486.8 131.5 487.2 131.5ZM482.3 132L481.4 132L486.9 124.0L487.8 124.0L482.3 132Z "/></g><mask id="satori_om-id-1-2-1"><rect x="498" y="121" width="101" height="13" fill="#fff"/></mask><mask id="satori_om-id-1-2-1-0"><rect x="498" y="124" width="8" height="8" fill="#fff"/></mask><path x="498" y="124" width="8" height="8" fill="#f1e05a" d="M502,124 h0 a4,4 0 0 1 4,4 v0 a4,4 0 0 1 -4,4 h0 a4,4 0 0 1 -4,-4 v0 a4,4 0 0 1 4,-4"/><mask id="satori_om-id-1-2-1-1"><rect x="512" y="121" width="58" height="13" fill="#fff"/></mask><g  ><path fill="#cbd5e1" d="M515.0 132.1L515.0 132.1Q513.8 132.1 513.1 131.5Q512.4 130.8 512.4 129.6L512.4 129.6L512.4 129.1L514.0 129.1L514.0 129.6Q514.0 130.2 514.3 130.5Q514.6 130.8 515.0 130.8L515.0 130.8Q515.5 130.8 515.8 130.5Q516.1 130.2 516.1 129.6L516.1 129.6L516.1 124.0L517.7 124.0L517.7 129.6Q517.7 130.8 517.0 131.5Q516.3 132.1 515.0 132.1ZM520.8 132.1L520.8 132.1Q520.2 132.1 519.8 131.9Q519.3 131.7 519.1 131.3Q518.8 130.9 518.8 130.3L518.8 130.3Q518.8 129.8 519.0 129.5Q519.2 129.1 519.5 128.9Q519.8 128.7 520.2 128.6Q520.6 128.5 521.1 128.5L521.1 128.5Q521.6 128.4 521.9 128.4Q522.2 128.3 522.4 128.2Q522.5 128.1 522.5 127.9L522.5 127.9L522.5 127.9Q522.5 127.7 522.4 127.5Q522.3 127.3 522.1 127.2Q521.9 127.1 521.6 127.1L521.6 127.1Q521.3 127.1 521.0 127.2Q520.8 127.3 520.7 127.5Q520.5 127.6 520.4 127.8L520.4 127.8L519.0 127.6Q519.1 127.0 519.5 126.7Q519.8 126.3 520.4 126.1Q520.9 125.9 521.6 125.9L521.6 125.9Q522.1 125.9 522.5 126.0Q523.0 126.2 523.3 126.4Q523.7 126.6 523.9 127.0Q524.1 127.4 524.1 128.0L524.1 128.0L524.1 132L522.6 132L522.6 131.2L522.5 131.2Q522.4 131.4 522.2 131.7Q521.9 131.9 521.6 132.0Q521.2 132.1 520.8 132.1ZM521.2 131.0L521.2 131.0Q521.6 131.0 521.9 130.8Q522.2 130.7 522.4 130.4Q522.5 130.2 522.5 129.9L522.5 129.9L522.5 129.2Q522.5 129.3 522.3 129.3Q522.2 129.3 522.0 129.4Q521.8 129.4 521.6 129.4Q521.5 129.5 521.3 129.5L521.3 129.5Q521.0 129.5 520.8 129.6Q520.6 129.7 520.5 129.9Q520.3 130.0 520.3 130.3L520.3 130.3Q520.3 130.5 520.5 130.7Q520.6 130.8 520.8 130.9Q521.0 131.0 521.2 131.0ZM529.0 132L527.2 132L525.0 126.0L526.7 126.0L527.7 129.1Q527.9 129.7 528.0 130.3L528.0 130.3Q528.1 130.5 528.1 130.8L528.1 130.8Q528.2 130.5 528.2 130.3L528.2 130.3Q528.4 129.7 528.6 129.1L528.6 129.1L529.6 126.0L531.2 126.0L529.0 132ZM533.8 132.1L533.8 132.1Q533.2 132.1 532.8 131.9Q532.3 131.7 532.0 131.3Q531.8 130.9 531.8 130.3L531.8 130.3Q531.8 129.8 532.0 129.5Q532.1 129.1 532.5 128.9Q532.8 128.7 533.2 128.6Q533.6 128.5 534.0 128.5L534.0 128.5Q534.6 128.4 534.9 128.4Q535.2 128.3 535.4 128.2Q535.5 128.1 535.5 127.9L535.5 127.9L535.5 127.9Q535.5 127.7 535.4 127.5Q535.3 127.3 535.1 127.2Q534.9 127.1 534.6 127.1L534.6 127.1Q534.2 127.1 534.0 127.2Q533.8 127.3 533.6 127.5Q533.5 127.6 533.4 127.8L533.4 127.8L531.9 127.6Q532.1 127.0 532.5 126.7Q532.8 126.3 533.4 126.1Q533.9 125.9 534.6 125.9L534.6 125.9Q535.0 125.9 535.5 126.0Q536.0 126.2 536.3 126.4Q536.7 126.6 536.9 127.0Q537.1 127.4 537.1 128.0L537.1 128.0L537.1 132L535.6 132L535.6 131.2L535.5 131.2Q535.4 131.4 535.1 131.7Q534.9 131.9 534.6 132.0Q534.2 132.1 533.8 132.1ZM534.2 131.0L534.2 131.0Q534.6 131.0 534.9 130.8Q535.2 130.7 535.3 130.4Q535.5 130.2 535.5 129.9L535.5 129.9L535.5 129.2Q535.4 129.3 535.3 129.3Q535.1 129.3 535.0 129.4Q534.8 129.4 534.6 129.4Q534.5 129.5 534.3 129.5L534.3 129.5Q534.0 129.5 533.8 129.6Q533.6 129.7 533.4 129.9Q533.3 130.0 533.3 130.3L533.3 130.3Q533.3 130.5 533.4 130.7Q533.6 130.8 533.8 130.9Q534.0 131.0 534.2 131.0ZM541.5 132.1L541.5 132.1Q540.5 132.1 539.8 131.8Q539.1 131.5 538.7 130.9Q538.3 130.4 538.3 129.5L538.3 129.5L539.8 129.5Q539.9 129.9 540.1 130.2Q540.3 130.5 540.6 130.6Q541.0 130.7 541.4 130.7L541.4 130.7Q541.9 130.7 542.2 130.6Q542.5 130.5 542.7 130.2Q542.9 130.0 542.9 129.7L542.9 129.7Q542.9 129.4 542.7 129.3Q542.6 129.1 542.3 128.9Q542.0 128.8 541.5 128.7L541.5 128.7L540.6 128.5Q539.6 128.2 539.0 127.7Q538.5 127.2 538.5 126.3L538.5 126.3Q538.5 125.6 538.9 125.0Q539.2 124.5 539.9 124.2Q540.6 123.9 541.5 123.9L541.5 123.9Q542.4 123.9 543.0 124.2Q543.7 124.5 544.1 125.0Q544.4 125.6 544.4 126.3L544.4 126.3L542.9 126.3Q542.8 125.8 542.4 125.5Q542.1 125.3 541.5 125.3L541.5 125.3Q541.0 125.3 540.8 125.4Q540.5 125.5 540.3 125.7Q540.1 125.9 540.1 126.2L540.1 126.2Q540.1 126.5 540.3 126.7Q540.5 126.9 540.8 127.0Q541.1 127.1 541.4 127.2L541.4 127.2L542.2 127.4Q542.7 127.5 543.1 127.7Q543.5 127.9 543.9 128.2Q544.2 128.4 544.4 128.8Q544.5 129.2 544.5 129.7L544.5 129.7Q544.5 130.4 544.2 131.0Q543.8 131.5 543.1 131.8Q542.4 132.1 541.5 132.1ZM548.4 132.1L548.4 132.1Q547.5 132.1 546.8 131.7Q546.1 131.3 545.8 130.6Q545.4 129.9 545.4 129.0L545.4 129.0Q545.4 128.1 545.8 127.4Q546.1 126.7 546.8 126.3Q547.5 125.9 548.4 125.9L548.4 125.9Q548.9 125.9 549.4 126.1Q549.8 126.2 550.2 126.5Q550.5 126.7 550.7 127.1Q551.0 127.5 551.0 127.9L551.0 127.9L549.5 128.2Q549.5 128.0 549.4 127.8Q549.3 127.6 549.1 127.5Q549.0 127.3 548.8 127.3Q548.6 127.2 548.4 127.2L548.4 127.2Q548.0 127.2 547.7 127.4Q547.4 127.6 547.2 128.1Q547.1 128.5 547.1 129.0L547.1 129.0Q547.1 129.6 547.2 130.0Q547.4 130.4 547.7 130.6Q548.0 130.9 548.4 130.9L548.4 130.9Q548.6 130.9 548.8 130.8Q549.0 130.7 549.2 130.6Q549.3 130.4 549.4 130.2Q549.5 130.0 549.6 129.8L549.6 129.8L551.1 130.1Q551.0 130.6 550.7 130.9Q550.5 131.3 550.2 131.6Q549.8 131.8 549.4 132.0Q548.9 132.1 548.4 132.1ZM553.8 132L552.2 132L552.2 126.0L553.7 126.0L553.7 127.0L553.8 127.0Q553.9 126.5 554.3 126.2Q554.7 125.9 555.2 125.9L555.2 125.9Q555.4 125.9 555.5 125.9Q555.6 125.9 555.8 126.0L555.8 126.0L555.8 127.4Q555.6 127.4 555.4 127.3Q555.2 127.3 555.1 127.3L555.1 127.3Q554.7 127.3 554.4 127.5Q554.1 127.6 553.9 127.9Q553.8 128.2 553.8 128.6L553.8 128.6L553.8 132ZM558.3 132L556.6 132L556.6 126.0L558.3 126.0L558.3 132ZM557.4 125.2L557.4 125.2Q557.1 125.2 556.8 125.0Q556.6 124.7 556.6 124.4L556.6 124.4Q556.6 124.0 556.8 123.8Q557.1 123.6 557.4 123.6L557.4 123.6Q557.8 123.6 558.1 123.8Q558.3 124.0 558.3 124.4L558.3 124.4Q558.3 124.7 558.1 125.0Q557.8 125.2 557.4 125.2ZM561.2 134.2L559.6 134.2L559.6 126.0L561.2 126.0L561.2 127.0L561.3 127.0Q561.4 126.8 561.6 126.5Q561.8 126.3 562.1 126.1Q562.5 125.9 563.0 125.9L563.0 125.9Q563.7 125.9 564.2 126.3Q564.8 126.6 565.1 127.3Q565.4 128.0 565.4 129.0L565.4 129.0Q565.4 130.0 565.1 130.7Q564.8 131.4 564.2 131.7Q563.7 132.1 563.0 132.1L563.0 132.1Q562.5 132.1 562.2 131.9Q561.8 131.8 561.6 131.5Q561.4 131.3 561.3 131.0L561.3 131.0L561.2 131.0L561.2 134.2ZM562.5 130.8L562.5 130.8Q562.9 130.8 563.2 130.6Q563.5 130.3 563.6 129.9Q563.8 129.5 563.8 129.0L563.8 129.0Q563.8 128.5 563.6 128.1Q563.5 127.7 563.2 127.4Q562.9 127.2 562.5 127.2L562.5 127.2Q562.1 127.2 561.8 127.4Q561.5 127.7 561.3 128.1Q561.2 128.5 561.2 129.0L561.2 129.0Q561.2 129.5 561.3 130.0Q561.5 130.4 561.8 130.6Q562.1 130.8 562.5 130.8ZM568.4 126.0L569.5 126.0L569.5 127.2L568.4 127.2L568.4 130.2Q568.4 130.5 568.5 130.7Q568.7 130.8 569.0 130.8L569.0 130.8Q569.1 130.8 569.2 130.8Q569.4 130.8 569.5 130.7L569.5 130.7L569.7 131.9Q569.4 132.0 569.2 132.1Q568.9 132.1 568.7 132.1L568.7 132.1Q567.8 132.1 567.3 131.6Q566.8 131.2 566.8 130.4L566.8 130.4L566.8 127.2L566.0 127.2L566.0 126.0L566.8 126.0L566.8 124.6L568.4 124.6L568.4 126.0Z "/></g><mask id="satori_om-id-1-2-1-2"><rect x="576" y="121" width="23" height="13" fill="#fff"/></mask><g  ><path fill="#94a3b8" d="M578.3 124.0L579.5 124.0L579.5 132L578.5 132L578.5 124.9L578.4 124.9L576.5 126.4L576.5 125.3L578.3 124.0ZM583.9 132.1L583.9 132.1Q583.1 132.1 582.4 131.6Q581.8 131.1 581.5 130.2Q581.1 129.3 581.1 128.0L581.1 128.0Q581.1 126.7 581.5 125.8Q581.8 124.9 582.4 124.4Q583.1 123.9 583.9 123.9L583.9 123.9Q584.8 123.9 585.5 124.4Q586.1 124.9 586.4 125.8Q586.8 126.7 586.8 128.0L586.8 128.0Q586.8 129.3 586.4 130.2Q586.1 131.1 585.5 131.6Q584.8 132.1 583.9 132.1ZM583.9 131.2L583.9 131.2Q584.5 131.2 584.9 130.8Q585.3 130.5 585.6 129.7Q585.8 129.0 585.8 128.0L585.8 128.0Q585.8 127.0 585.6 126.3Q585.3 125.5 584.9 125.2Q584.5 124.8 583.9 124.8L583.9 124.8Q583.4 124.8 583.0 125.2Q582.5 125.5 582.3 126.3Q582.1 127.0 582.1 128.0L582.1 128.0Q582.1 129.0 582.3 129.7Q582.5 130.5 583.0 130.8Q583.4 131.2 583.9 131.2ZM590.2 127.5L590.2 127.5Q589.7 127.5 589.4 127.3Q589.0 127.1 588.8 126.7Q588.6 126.3 588.6 125.9L588.6 125.9L588.6 125.5Q588.6 125.0 588.8 124.7Q589.0 124.3 589.4 124.1Q589.7 123.9 590.2 123.9L590.2 123.9Q590.7 123.9 591.1 124.1Q591.4 124.3 591.6 124.7Q591.8 125.0 591.8 125.5L591.8 125.5L591.8 125.9Q591.8 126.3 591.6 126.7Q591.4 127.1 591.1 127.3Q590.7 127.5 590.2 127.5ZM590.2 126.8L590.2 126.8Q590.6 126.8 590.8 126.6Q591.0 126.3 591.0 125.9L591.0 125.9L591.0 125.5Q591.0 125.1 590.8 124.9Q590.6 124.6 590.2 124.6L590.2 124.6Q589.8 124.6 589.6 124.9Q589.5 125.1 589.5 125.5L589.5 125.5L589.5 125.9Q589.5 126.3 589.6 126.6Q589.8 126.8 590.2 126.8ZM595.4 132.2L595.4 132.2Q594.9 132.2 594.6 131.9Q594.2 131.7 594.0 131.3Q593.8 131.0 593.8 130.5L593.8 130.5L593.8 130.1Q593.8 129.7 594.0 129.3Q594.2 128.9 594.6 128.7Q594.9 128.5 595.4 128.5L595.4 128.5Q595.9 128.5 596.3 128.7Q596.6 128.9 596.8 129.3Q597.0 129.7 597.0 130.1L597.0 130.1L597.0 130.5Q597.0 131.0 596.8 131.3Q596.6 131.7 596.3 131.9Q595.9 132.2 595.4 132.2ZM595.4 131.5L595.4 131.5Q595.8 131.5 596.0 131.2Q596.2 130.9 596.2 130.5L596.2 130.5L596.2 130.1Q596.2 129.8 596.0 129.5Q595.8 129.2 595.4 129.2L595.4 129.2Q595.0 129.2 594.8 129.5Q594.7 129.8 594.7 130.1L594.7 130.1L594.7 130.5Q594.7 130.9 594.8 131.2Q595.0 131.5 595.4 131.5ZM590.5 132L589.6 132L595.1 124.0L596.0 124.0L590.5 132Z "/></g><mask id="satori_om-id-1-2-2"><rect x="607" y="121" width="141" height="13" fill="#fff"/></mask><mask id="satori_om-id-1-2-2-0"><rect x="607" y="124" width="8" height="8" fill="#fff"/></mask><path x="607" y="124" width="8" height="8" fill="#DA5B0B" d="M611,124 h0 a4,4 0 0 1 4,4 v0 a4,4 0 0 1 -4,4 h0 a4,4 0 0 1 -4,-4 v0 a4,4 0 0 1 4,-4"/><mask id="satori_om-id-1-2-2-1"><rect x="621" y="121" width="98" height="13" fill="#fff"/></mask><g  ><path fill="#cbd5e1" d="M624.0 132.1L624.0 132.1Q622.8 132.1 622.1 131.5Q621.4 130.8 621.4 129.6L621.4 129.6L621.4 129.1L623.0 129.1L623.0 129.6Q623.0 130.2 623.3 130.5Q623.6 130.8 624.0 130.8L624.0 130.8Q624.5 130.8 624.8 130.5Q625.1 130.2 625.1 129.6L625.1 129.6L625.1 124.0L626.7 124.0L626.7 129.6Q626.7 130.8 626.0 131.5Q625.3 132.1 624.0 132.1ZM630.2 132.1L630.2 132.1Q629.6 132.1 629.1 131.8Q628.6 131.5 628.4 131.0Q628.1 130.5 628.1 129.8L628.1 129.8L628.1 126.0L629.7 126.0L629.7 129.5Q629.7 130.1 630.0 130.4Q630.3 130.7 630.8 130.7L630.8 130.7Q631.2 130.7 631.4 130.6Q631.7 130.4 631.8 130.1Q632.0 129.9 632.0 129.5L632.0 129.5L632.0 126.0L633.6 126.0L633.6 132L632.1 132L632.1 130.7Q631.8 131.3 631.4 131.7L631.4 131.7Q630.9 132.1 630.2 132.1ZM636.6 134.2L635.0 134.2L635.0 126.0L636.5 126.0L636.5 127.0L636.6 127.0Q636.7 126.8 636.9 126.5Q637.2 126.3 637.5 126.1Q637.8 125.9 638.3 125.9L638.3 125.9Q639.0 125.9 639.6 126.3Q640.1 126.6 640.4 127.3Q640.8 128.0 640.8 129.0L640.8 129.0Q640.8 130.0 640.4 130.7Q640.1 131.4 639.6 131.7Q639.0 132.1 638.3 132.1L638.3 132.1Q637.8 132.1 637.5 131.9Q637.2 131.8 636.9 131.5Q636.7 131.3 636.6 131.0L636.6 131.0L636.6 131.0L636.6 134.2ZM637.8 130.8L637.8 130.8Q638.3 130.8 638.5 130.6Q638.8 130.3 639.0 129.9Q639.1 129.5 639.1 129.0L639.1 129.0Q639.1 128.5 639.0 128.1Q638.8 127.7 638.5 127.4Q638.3 127.2 637.8 127.2L637.8 127.2Q637.4 127.2 637.1 127.4Q636.8 127.7 636.7 128.1Q636.5 128.5 636.5 129.0L636.5 129.0Q636.5 129.5 636.7 130.0Q636.8 130.4 637.1 130.6Q637.4 130.8 637.8 130.8ZM641.9 134.1L641.9 134.1L642.2 132.9L642.4 133.0Q642.7 133.0 643 133.0Q643.3 133.0 643.4 132.8Q643.6 132.6 643.6 132.3L643.6 132.3L643.6 132.0L641.4 126.0L643.1 126.0L644.1 129.1Q644.3 129.7 644.4 130.3L644.4 130.3Q644.4 130.5 644.5 130.7L644.5 130.7Q644.5 130.5 644.6 130.3L644.6 130.3Q644.7 129.7 644.9 129.1L644.9 129.1L646.0 126.0L647.7 126.0L645.1 132.7Q644.9 133.2 644.6 133.5Q644.4 133.9 643.9 134.1Q643.5 134.3 642.9 134.3L642.9 134.3Q642.6 134.3 642.3 134.2Q642.0 134.2 641.9 134.1ZM650.4 126.0L651.5 126.0L651.5 127.2L650.4 127.2L650.4 130.2Q650.4 130.5 650.5 130.7Q650.6 130.8 650.9 130.8L650.9 130.8Q651.0 130.8 651.2 130.8Q651.4 130.8 651.4 130.7L651.4 130.7L651.7 131.9Q651.4 132.0 651.1 132.1Q650.9 132.1 650.6 132.1L650.6 132.1Q649.7 132.1 649.2 131.6Q648.8 131.2 648.8 130.4L648.8 130.4L648.8 127.2L647.9 127.2L647.9 126.0L648.8 126.0L648.8 124.6L650.4 124.6L650.4 126.0ZM655.3 132.1L655.3 132.1Q654.3 132.1 653.7 131.7Q653.0 131.4 652.7 130.7Q652.3 130.0 652.3 129.0L652.3 129.0Q652.3 128.1 652.7 127.4Q653.0 126.7 653.7 126.3Q654.3 125.9 655.2 125.9L655.2 125.9Q655.8 125.9 656.3 126.1Q656.8 126.3 657.2 126.7Q657.6 127.1 657.8 127.6Q658.0 128.2 658.0 129.0L658.0 129.0L658.0 129.4L653.9 129.4Q653.9 129.9 654.1 130.2L654.1 130.2Q654.2 130.5 654.6 130.7Q654.9 130.9 655.3 130.9L655.3 130.9Q655.6 130.9 655.8 130.8Q656.0 130.7 656.2 130.6Q656.4 130.4 656.4 130.2L656.4 130.2L657.9 130.5Q657.8 131.0 657.4 131.3Q657.0 131.7 656.5 131.9Q656.0 132.1 655.3 132.1ZM653.9 128.4L653.9 128.4L656.4 128.4Q656.4 128.1 656.3 127.9L656.3 127.9Q656.2 127.5 655.9 127.3Q655.6 127.1 655.2 127.1L655.2 127.1Q654.8 127.1 654.5 127.3Q654.2 127.5 654.0 127.8L654.0 127.8Q653.9 128.1 653.9 128.4ZM660.7 132L659.1 132L659.1 126.0L660.7 126.0L660.7 127.0L660.7 127.0Q660.9 126.5 661.3 126.2Q661.7 125.9 662.2 125.9L662.2 125.9Q662.3 125.9 662.4 125.9Q662.6 125.9 662.7 126.0L662.7 126.0L662.7 127.4Q662.6 127.4 662.4 127.3Q662.2 127.3 662.0 127.3L662.0 127.3Q661.6 127.3 661.3 127.5Q661.0 127.6 660.9 127.9Q660.7 128.2 660.7 128.6L660.7 128.6L660.7 132Z M667.9 132L666.2 132L666.2 124.0L668.1 124.0L670.6 128.0Q670.8 128.4 671.0 128.7Q671.2 129.1 671.4 129.5L671.4 129.5Q671.5 129.8 671.6 130.0L671.6 130.0Q671.6 129.8 671.6 129.6L671.6 129.6Q671.5 129.1 671.5 128.6Q671.5 128.2 671.5 127.8L671.5 127.8L671.5 124.0L673.2 124.0L673.2 132L671.3 132L669.0 128.3Q668.8 127.9 668.6 127.5Q668.3 127.1 668.1 126.7L668.1 126.7Q668.0 126.4 667.8 126.0L667.8 126.0Q667.8 126.3 667.8 126.7L667.8 126.7Q667.9 127.2 667.9 127.6Q667.9 128.0 667.9 128.3L667.9 128.3L667.9 132ZM677.3 132.1L677.3 132.1Q676.4 132.1 675.7 131.7Q675.0 131.3 674.7 130.6Q674.3 129.9 674.3 129.0L674.3 129.0Q674.3 128.1 674.7 127.4Q675.0 126.7 675.7 126.3Q676.4 125.9 677.3 125.9L677.3 125.9Q678.2 125.9 678.8 126.3Q679.5 126.7 679.8 127.4Q680.2 128.1 680.2 129.0L680.2 129.0Q680.2 129.9 679.8 130.6Q679.5 131.3 678.8 131.7Q678.2 132.1 677.3 132.1ZM677.3 130.9L677.3 130.9Q677.7 130.9 678.0 130.6Q678.3 130.4 678.4 130.0Q678.6 129.5 678.6 129.0L678.6 129.0Q678.6 128.5 678.4 128.1Q678.3 127.7 678.0 127.4Q677.7 127.2 677.3 127.2L677.3 127.2Q676.8 127.2 676.5 127.4Q676.3 127.7 676.1 128.1Q676.0 128.5 676.0 129.0L676.0 129.0Q676.0 129.5 676.1 130.0Q676.3 130.4 676.5 130.6Q676.8 130.9 677.3 130.9ZM683.2 126.0L684.3 126.0L684.3 127.2L683.2 127.2L683.2 130.2Q683.2 130.5 683.3 130.7Q683.4 130.8 683.7 130.8L683.7 130.8Q683.8 130.8 684.0 130.8Q684.1 130.8 684.2 130.7L684.2 130.7L684.5 131.9Q684.2 132.0 683.9 132.1Q683.7 132.1 683.4 132.1L683.4 132.1Q682.5 132.1 682.0 131.6Q681.6 131.2 681.6 130.4L681.6 130.4L681.6 127.2L680.7 127.2L680.7 126.0L681.6 126.0L681.6 124.6L683.2 124.6L683.2 126.0ZM688.1 132.1L688.1 132.1Q687.1 132.1 686.5 131.7Q685.8 131.4 685.5 130.7Q685.1 130.0 685.1 129.0L685.1 129.0Q685.1 128.1 685.4 127.4Q685.8 126.7 686.5 126.3Q687.1 125.9 688.0 125.9L688.0 125.9Q688.6 125.9 689.1 126.1Q689.6 126.3 690.0 126.7Q690.4 127.1 690.6 127.6Q690.8 128.2 690.8 129.0L690.8 129.0L690.8 129.4L686.7 129.4Q686.7 129.9 686.9 130.2L686.9 130.2Q687.0 130.5 687.4 130.7Q687.7 130.9 688.1 130.9L688.1 130.9Q688.4 130.9 688.6 130.8Q688.8 130.7 689.0 130.6Q689.2 130.4 689.2 130.2L689.2 130.2L690.7 130.5Q690.6 131.0 690.2 131.3Q689.8 131.7 689.3 131.9Q688.8 132.1 688.1 132.1ZM686.7 128.4L686.7 128.4L689.2 128.4Q689.2 128.1 689.1 127.9L689.1 127.9Q689.0 127.5 688.7 127.3Q688.4 127.1 688.0 127.1L688.0 127.1Q687.6 127.1 687.3 127.3Q687.0 127.5 686.8 127.8L686.8 127.8Q686.7 128.1 686.7 128.4ZM695.3 132.1L695.3 132.1Q694.8 132.1 694.4 131.9Q694.1 131.8 693.9 131.5Q693.7 131.3 693.6 131.0L693.6 131.0L693.5 131.0L693.5 132L691.9 132L691.9 124.0L693.5 124.0L693.5 127.0L693.6 127.0Q693.7 126.8 693.9 126.5Q694.1 126.3 694.4 126.1Q694.8 125.9 695.3 125.9L695.3 125.9Q695.9 125.9 696.5 126.3Q697.0 126.6 697.4 127.3Q697.7 128.0 697.7 129.0L697.7 129.0Q697.7 130.0 697.4 130.7Q697.1 131.4 696.5 131.7Q696.0 132.1 695.3 132.1ZM694.8 130.8L694.8 130.8Q695.2 130.8 695.5 130.6Q695.8 130.3 695.9 129.9Q696.1 129.5 696.1 129.0L696.1 129.0Q696.1 128.5 695.9 128.1Q695.8 127.7 695.5 127.4Q695.2 127.2 694.8 127.2L694.8 127.2Q694.4 127.2 694.1 127.4Q693.8 127.7 693.6 128.1Q693.5 128.5 693.5 129.0L693.5 129.0Q693.5 129.5 693.6 130.0Q693.8 130.4 694.1 130.6Q694.4 130.8 694.8 130.8ZM701.5 132.1L701.5 132.1Q700.6 132.1 700.0 131.7Q699.3 131.3 698.9 130.6Q698.6 129.9 698.6 129.0L698.6 129.0Q698.6 128.1 698.9 127.4Q699.3 126.7 700.0 126.3Q700.6 125.9 701.5 125.9L701.5 125.9Q702.4 125.9 703.1 126.3Q703.7 126.7 704.1 127.4Q704.5 128.1 704.5 129.0L704.5 129.0Q704.5 129.9 704.1 130.6Q703.7 131.3 703.1 131.7Q702.4 132.1 701.5 132.1ZM701.5 130.9L701.5 130.9Q701.9 130.9 702.2 130.6Q702.5 130.4 702.7 130.0Q702.8 129.5 702.8 129.0L702.8 129.0Q702.8 128.5 702.7 128.1Q702.5 127.7 702.2 127.4Q701.9 127.2 701.5 127.2L701.5 127.2Q701.1 127.2 700.8 127.4Q700.5 127.7 700.4 128.1Q700.2 128.5 700.2 129.0L700.2 129.0Q700.2 129.5 700.4 130.0Q700.5 130.4 700.8 130.6Q701.1 130.9 701.5 130.9ZM708.3 132.1L708.3 132.1Q707.4 132.1 706.7 131.7Q706.0 131.3 705.7 130.6Q705.3 129.9 705.3 129.0L705.3 129.0Q705.3 128.1 705.7 127.4Q706.0 126.7 706.7 126.3Q707.4 125.9 708.3 125.9L708.3 125.9Q709.2 125.9 709.8 126.3Q710.5 126.7 710.8 127.4Q711.2 128.1 711.2 129.0L711.2 129.0Q711.2 129.9 710.8 130.6Q710.5 131.3 709.8 131.7Q709.2 132.1 708.3 132.1ZM708.3 130.9L708.3 130.9Q708.7 130.9 709.0 130.6Q709.3 130.4 709.4 130.0Q709.6 129.5 709.6 129.0L709.6 129.0Q709.6 128.5 709.4 128.1Q709.3 127.7 709.0 127.4Q708.7 127.2 708.3 127.2L708.3 127.2Q707.8 127.2 707.5 127.4Q707.3 127.7 707.1 128.1Q707.0 128.5 707.0 129.0L707.0 129.0Q707.0 129.5 707.1 130.0Q707.3 130.4 707.5 130.6Q707.8 130.9 708.3 130.9ZM713.9 132L712.3 132L712.3 124.0L713.9 124.0L713.9 128.3L714.0 128.3L716.0 126.0L717.9 126.0L715.6 128.6L718.0 132L716.1 132L714.4 129.6L713.9 130.1L713.9 132Z "/></g><mask id="satori_om-id-1-2-2-2"><rect x="725" y="121" width="23" height="13" fill="#fff"/></mask><g  ><path fill="#94a3b8" d="M727.3 124.0L728.5 124.0L728.5 132L727.5 132L727.5 124.9L727.4 124.9L725.5 126.4L725.5 125.3L727.3 124.0ZM732.9 132.1L732.9 132.1Q732.1 132.1 731.4 131.6Q730.8 131.1 730.5 130.2Q730.1 129.3 730.1 128.0L730.1 128.0Q730.1 126.7 730.5 125.8Q730.8 124.9 731.4 124.4Q732.1 123.9 732.9 123.9L732.9 123.9Q733.8 123.9 734.5 124.4Q735.1 124.9 735.4 125.8Q735.8 126.7 735.8 128.0L735.8 128.0Q735.8 129.3 735.4 130.2Q735.1 131.1 734.5 131.6Q733.8 132.1 732.9 132.1ZM732.9 131.2L732.9 131.2Q733.5 131.2 733.9 130.8Q734.3 130.5 734.6 129.7Q734.8 129.0 734.8 128.0L734.8 128.0Q734.8 127.0 734.6 126.3Q734.3 125.5 733.9 125.2Q733.5 124.8 732.9 124.8L732.9 124.8Q732.4 124.8 732.0 125.2Q731.5 125.5 731.3 126.3Q731.1 127.0 731.1 128.0L731.1 128.0Q731.1 129.0 731.3 129.7Q731.5 130.5 732.0 130.8Q732.4 131.2 732.9 131.2ZM739.2 127.5L739.2 127.5Q738.7 127.5 738.4 127.3Q738.0 127.1 737.8 126.7Q737.6 126.3 737.6 125.9L737.6 125.9L737.6 125.5Q737.6 125.0 737.8 124.7Q738.0 124.3 738.4 124.1Q738.7 123.9 739.2 123.9L739.2 123.9Q739.7 123.9 740.1 124.1Q740.4 124.3 740.6 124.7Q740.8 125.0 740.8 125.5L740.8 125.5L740.8 125.9Q740.8 126.3 740.6 126.7Q740.4 127.1 740.1 127.3Q739.7 127.5 739.2 127.5ZM739.2 126.8L739.2 126.8Q739.6 126.8 739.8 126.6Q740.0 126.3 740.0 125.9L740.0 125.9L740.0 125.5Q740.0 125.1 739.8 124.9Q739.6 124.6 739.2 124.6L739.2 124.6Q738.8 124.6 738.6 124.9Q738.5 125.1 738.5 125.5L738.5 125.5L738.5 125.9Q738.5 126.3 738.6 126.6Q738.8 126.8 739.2 126.8ZM744.4 132.2L744.4 132.2Q743.9 132.2 743.6 131.9Q743.2 131.7 743.0 131.3Q742.8 131.0 742.8 130.5L742.8 130.5L742.8 130.1Q742.8 129.7 743.0 129.3Q743.2 128.9 743.6 128.7Q743.9 128.5 744.4 128.5L744.4 128.5Q744.9 128.5 745.3 128.7Q745.6 128.9 745.8 129.3Q746.0 129.7 746.0 130.1L746.0 130.1L746.0 130.5Q746.0 131.0 745.8 131.3Q745.6 131.7 745.3 131.9Q744.9 132.2 744.4 132.2ZM744.4 131.5L744.4 131.5Q744.8 131.5 745.0 131.2Q745.2 130.9 745.2 130.5L745.2 130.5L745.2 130.1Q745.2 129.8 745.0 129.5Q744.8 129.2 744.4 129.2L744.4 129.2Q744.0 129.2 743.8 129.5Q743.7 129.8 743.7 130.1L743.7 130.1L743.7 130.5Q743.7 130.9 743.8 131.2Q744.0 131.5 744.4 131.5ZM739.5 132L738.6 132L744.1 124.0L745.0 124.0L739.5 132Z "/></g><mask id="satori_om-id-1-2-3"><rect x="756" y="121" width="66" height="13" fill="#fff"/></mask><mask id="satori_om-id-1-2-3-0"><rect x="756" y="124" width="8" height="8" fill="#fff"/></mask><path x="756" y="124" width="8" height="8" fill="#663399" d="M760,124 h0 a4,4 0 0 1 4,4 v0 a4,4 0 0 1 -4,4 h0 a4,4 0 0 1 -4,-4 v0 a4,4 0 0 1 4,-4"/><mask id="satori_om-id-1-2-3-1"><rect x="770" y="121" width="23" height="13" fill="#fff"/></mask><g  ><path fill="#cbd5e1" d="M774.2 132.1L774.2 132.1Q773.2 132.1 772.3 131.6Q771.5 131.1 771.0 130.2Q770.5 129.3 770.5 128.0L770.5 128.0Q770.5 126.7 771.0 125.8Q771.5 124.9 772.3 124.4Q773.2 123.9 774.2 123.9L774.2 123.9Q774.9 123.9 775.5 124.1Q776.1 124.3 776.5 124.6Q777.0 125.0 777.3 125.5Q777.6 126.1 777.7 126.7L777.7 126.7L776.0 126.7Q776.0 126.4 775.8 126.1Q775.6 125.9 775.4 125.7Q775.2 125.5 774.9 125.4Q774.6 125.3 774.3 125.3L774.3 125.3Q773.6 125.3 773.2 125.7Q772.7 126.0 772.4 126.6Q772.2 127.2 772.2 128.0L772.2 128.0Q772.2 128.9 772.4 129.5Q772.7 130.1 773.2 130.4Q773.6 130.7 774.2 130.7L774.2 130.7Q774.6 130.7 774.9 130.6Q775.2 130.5 775.4 130.3Q775.6 130.1 775.8 129.8Q776.0 129.6 776.0 129.3L776.0 129.3L777.7 129.3Q777.6 129.8 777.3 130.3Q777.1 130.8 776.6 131.2Q776.2 131.6 775.6 131.9Q775.0 132.1 774.2 132.1ZM781.8 132.1L781.8 132.1Q780.8 132.1 780.1 131.8Q779.4 131.5 779.0 130.9Q778.6 130.4 778.6 129.5L778.6 129.5L780.2 129.5Q780.2 129.9 780.4 130.2Q780.6 130.5 781.0 130.6Q781.3 130.7 781.8 130.7L781.8 130.7Q782.2 130.7 782.5 130.6Q782.9 130.5 783.1 130.2Q783.2 130.0 783.2 129.7L783.2 129.7Q783.2 129.4 783.1 129.3Q782.9 129.1 782.6 128.9Q782.3 128.8 781.9 128.7L781.9 128.7L781.0 128.5Q780.0 128.2 779.4 127.7Q778.8 127.2 778.8 126.3L778.8 126.3Q778.8 125.6 779.2 125.0Q779.6 124.5 780.3 124.2Q780.9 123.9 781.8 123.9L781.8 123.9Q782.7 123.9 783.4 124.2Q784.0 124.5 784.4 125.0Q784.8 125.6 784.8 126.3L784.8 126.3L783.2 126.3Q783.1 125.8 782.8 125.5Q782.4 125.3 781.8 125.3L781.8 125.3Q781.4 125.3 781.1 125.4Q780.8 125.5 780.6 125.7Q780.5 125.9 780.5 126.2L780.5 126.2Q780.5 126.5 780.7 126.7Q780.8 126.9 781.1 127.0Q781.4 127.1 781.8 127.2L781.8 127.2L782.5 127.4Q783.0 127.5 783.4 127.7Q783.9 127.9 784.2 128.2Q784.5 128.4 784.7 128.8Q784.9 129.2 784.9 129.7L784.9 129.7Q784.9 130.4 784.5 131.0Q784.2 131.5 783.5 131.8Q782.8 132.1 781.8 132.1ZM789.0 132.1L789.0 132.1Q788.0 132.1 787.3 131.8Q786.6 131.5 786.2 130.9Q785.8 130.4 785.8 129.5L785.8 129.5L787.4 129.5Q787.4 129.9 787.6 130.2Q787.8 130.5 788.2 130.6Q788.5 130.7 789.0 130.7L789.0 130.7Q789.4 130.7 789.7 130.6Q790.1 130.5 790.3 130.2Q790.4 130.0 790.4 129.7L790.4 129.7Q790.4 129.4 790.3 129.3Q790.1 129.1 789.8 128.9Q789.5 128.8 789.1 128.7L789.1 128.7L788.2 128.5Q787.2 128.2 786.6 127.7Q786.0 127.2 786.0 126.3L786.0 126.3Q786.0 125.6 786.4 125.0Q786.8 124.5 787.5 124.2Q788.1 123.9 789.0 123.9L789.0 123.9Q789.9 123.9 790.6 124.2Q791.2 124.5 791.6 125.0Q792.0 125.6 792.0 126.3L792.0 126.3L790.4 126.3Q790.4 125.8 790.0 125.5Q789.6 125.3 789.0 125.3L789.0 125.3Q788.6 125.3 788.3 125.4Q788.0 125.5 787.8 125.7Q787.7 125.9 787.7 126.2L787.7 126.2Q787.7 126.5 787.9 126.7Q788.0 126.9 788.3 127.0Q788.6 127.1 789.0 127.2L789.0 127.2L789.7 127.4Q790.2 127.5 790.6 127.7Q791.1 127.9 791.4 128.2Q791.7 128.4 791.9 128.8Q792.1 129.2 792.1 129.7L792.1 129.7Q792.1 130.4 791.7 131.0Q791.4 131.5 790.7 131.8Q790.0 132.1 789.0 132.1Z "/></g><mask id="satori_om-id-1-2-3-2"><rect x="799" y="121" width="23" height="13" fill="#fff"/></mask><g  ><path fill="#94a3b8" d="M801.3 124.0L802.5 124.0L802.5 132L801.5 132L801.5 124.9L801.4 124.9L799.5 126.4L799.5 125.3L801.3 124.0ZM806.9 132.1L806.9 132.1Q806.1 132.1 805.4 131.6Q804.8 131.1 804.5 130.2Q804.1 129.3 804.1 128.0L804.1 128.0Q804.1 126.7 804.5 125.8Q804.8 124.9 805.4 124.4Q806.1 123.9 806.9 123.9L806.9 123.9Q807.8 123.9 808.5 124.4Q809.1 124.9 809.4 125.8Q809.8 126.7 809.8 128.0L809.8 128.0Q809.8 129.3 809.4 130.2Q809.1 131.1 808.5 131.6Q807.8 132.1 806.9 132.1ZM806.9 131.2L806.9 131.2Q807.5 131.2 807.9 130.8Q808.3 130.5 808.6 129.7Q808.8 129.0 808.8 128.0L808.8 128.0Q808.8 127.0 808.6 126.3Q808.3 125.5 807.9 125.2Q807.5 124.8 806.9 124.8L806.9 124.8Q806.4 124.8 806.0 125.2Q805.5 125.5 805.3 126.3Q805.1 127.0 805.1 128.0L805.1 128.0Q805.1 129.0 805.3 129.7Q805.5 130.5 806.0 130.8Q806.4 131.2 806.9 131.2ZM813.2 127.5L813.2 127.5Q812.7 127.5 812.4 127.3Q812.0 127.1 811.8 126.7Q811.6 126.3 811.6 125.9L811.6 125.9L811.6 125.5Q811.6 125.0 811.8 124.7Q812.0 124.3 812.4 124.1Q812.7 123.9 813.2 123.9L813.2 123.9Q813.7 123.9 814.1 124.1Q814.4 124.3 814.6 124.7Q814.8 125.0 814.8 125.5L814.8 125.5L814.8 125.9Q814.8 126.3 814.6 126.7Q814.4 127.1 814.1 127.3Q813.7 127.5 813.2 127.5ZM813.2 126.8L813.2 126.8Q813.6 126.8 813.8 126.6Q814.0 126.3 814.0 125.9L814.0 125.9L814.0 125.5Q814.0 125.1 813.8 124.9Q813.6 124.6 813.2 124.6L813.2 124.6Q812.8 124.6 812.6 124.9Q812.5 125.1 812.5 125.5L812.5 125.5L812.5 125.9Q812.5 126.3 812.6 126.6Q812.8 126.8 813.2 126.8ZM818.4 132.2L818.4 132.2Q817.9 132.2 817.6 131.9Q817.2 131.7 817.0 131.3Q816.8 131.0 816.8 130.5L816.8 130.5L816.8 130.1Q816.8 129.7 817.0 129.3Q817.2 128.9 817.6 128.7Q817.9 128.5 818.4 128.5L818.4 128.5Q818.9 128.5 819.3 128.7Q819.6 128.9 819.8 129.3Q820.0 129.7 820.0 130.1L820.0 130.1L820.0 130.5Q820.0 131.0 819.8 131.3Q819.6 131.7 819.3 131.9Q818.9 132.2 818.4 132.2ZM818.4 131.5L818.4 131.5Q818.8 131.5 819.0 131.2Q819.2 130.9 819.2 130.5L819.2 130.5L819.2 130.1Q819.2 129.8 819.0 129.5Q818.8 129.2 818.4 129.2L818.4 129.2Q818.0 129.2 817.8 129.5Q817.7 129.8 817.7 130.1L817.7 130.1L817.7 130.5Q817.7 130.9 817.8 131.2Q818.0 131.5 818.4 131.5ZM813.5 132L812.6 132L818.1 124.0L819.0 124.0L813.5 132Z "/></g><mask id="satori_om-id-1-2-4"><rect x="409" y="142" width="98" height="13" fill="#fff"/></mask><mask id="satori_om-id-1-2-4-0"><rect x="409" y="145" width="8" height="8" fill="#fff"/></mask><path x="409" y="145" width="8" height="8" fill="#3178c6" d="M413,145 h0 a4,4 0 0 1 4,4 v0 a4,4 0 0 1 -4,4 h0 a4,4 0 0 1 -4,-4 v0 a4,4 0 0 1 4,-4"/><mask id="satori_om-id-1-2-4-1"><rect x="423" y="142" width="60" height="13" fill="#fff"/></mask><g  ><path fill="#cbd5e1" d="M425.9 146.4L423.4 146.4L423.4 145.0L429.9 145.0L429.9 146.4L427.5 146.4L427.5 153L425.9 153L425.9 146.4ZM431.0 155.1L431.0 155.1L431.4 153.9L431.6 154.0Q431.9 154.0 432.1 154.0Q432.4 154.0 432.5 153.8Q432.7 153.6 432.7 153.3L432.7 153.3L432.8 153.0L430.5 147.0L432.2 147.0L433.2 150.1Q433.4 150.7 433.5 151.3L433.5 151.3Q433.6 151.5 433.6 151.7L433.6 151.7Q433.7 151.5 433.7 151.3L433.7 151.3Q433.9 150.7 434.0 150.1L434.0 150.1L435.1 147.0L436.8 147.0L434.2 153.7Q434.1 154.2 433.8 154.5Q433.5 154.9 433.1 155.1Q432.6 155.3 432.0 155.3L432.0 155.3Q431.7 155.3 431.4 155.2Q431.2 155.2 431.0 155.1ZM439.3 155.2L437.7 155.2L437.7 147.0L439.2 147.0L439.2 148.0L439.3 148.0Q439.4 147.8 439.6 147.5Q439.8 147.3 440.2 147.1Q440.5 146.9 441.0 146.9L441.0 146.9Q441.7 146.9 442.2 147.3Q442.8 147.6 443.1 148.3Q443.5 149.0 443.5 150.0L443.5 150.0Q443.5 151.0 443.1 151.7Q442.8 152.4 442.3 152.7Q441.7 153.1 441.0 153.1L441.0 153.1Q440.5 153.1 440.2 152.9Q439.8 152.8 439.6 152.5Q439.4 152.3 439.3 152.0L439.3 152.0L439.3 152.0L439.3 155.2ZM440.5 151.8L440.5 151.8Q440.9 151.8 441.2 151.6Q441.5 151.3 441.7 150.9Q441.8 150.5 441.8 150.0L441.8 150.0Q441.8 149.5 441.7 149.1Q441.5 148.7 441.2 148.4Q440.9 148.2 440.5 148.2L440.5 148.2Q440.1 148.2 439.8 148.4Q439.5 148.7 439.4 149.1Q439.2 149.5 439.2 150.0L439.2 150.0Q439.2 150.5 439.4 151.0Q439.5 151.4 439.8 151.6Q440.1 151.8 440.5 151.8ZM447.3 153.1L447.3 153.1Q446.4 153.1 445.7 152.7Q445.0 152.4 444.7 151.7Q444.3 151.0 444.3 150.0L444.3 150.0Q444.3 149.1 444.7 148.4Q445.0 147.7 445.7 147.3Q446.3 146.9 447.2 146.9L447.2 146.9Q447.8 146.9 448.3 147.1Q448.8 147.3 449.2 147.7Q449.6 148.1 449.8 148.6Q450.0 149.2 450.0 150.0L450.0 150.0L450.0 150.4L445.9 150.4Q445.9 150.9 446.1 151.2L446.1 151.2Q446.3 151.5 446.6 151.7Q446.9 151.9 447.3 151.9L447.3 151.9Q447.6 151.9 447.8 151.8Q448.1 151.7 448.2 151.6Q448.4 151.4 448.5 151.2L448.5 151.2L449.9 151.5Q449.8 152.0 449.4 152.3Q449.1 152.7 448.5 152.9Q448.0 153.1 447.3 153.1ZM445.9 149.4L445.9 149.4L448.5 149.4Q448.5 149.1 448.4 148.9L448.4 148.9Q448.2 148.5 447.9 148.3Q447.6 148.1 447.2 148.1L447.2 148.1Q446.8 148.1 446.5 148.3Q446.2 148.5 446.1 148.8L446.1 148.8Q446.0 149.1 445.9 149.4ZM454.1 153.1L454.1 153.1Q453.1 153.1 452.4 152.8Q451.7 152.5 451.3 151.9Q450.9 151.4 450.9 150.5L450.9 150.5L452.5 150.5Q452.5 150.9 452.7 151.2Q453.0 151.5 453.3 151.6Q453.7 151.7 454.1 151.7L454.1 151.7Q454.5 151.7 454.9 151.6Q455.2 151.5 455.4 151.2Q455.5 151.0 455.5 150.7L455.5 150.7Q455.5 150.4 455.4 150.3Q455.2 150.1 454.9 149.9Q454.6 149.8 454.2 149.7L454.2 149.7L453.3 149.5Q452.3 149.2 451.7 148.7Q451.1 148.2 451.1 147.3L451.1 147.3Q451.1 146.6 451.5 146.0Q451.9 145.5 452.6 145.2Q453.3 144.9 454.1 144.9L454.1 144.9Q455.0 144.9 455.7 145.2Q456.3 145.5 456.7 146.0Q457.1 146.6 457.1 147.3L457.1 147.3L455.5 147.3Q455.5 146.8 455.1 146.5Q454.7 146.3 454.1 146.3L454.1 146.3Q453.7 146.3 453.4 146.4Q453.1 146.5 453.0 146.7Q452.8 146.9 452.8 147.2L452.8 147.2Q452.8 147.5 453.0 147.7Q453.2 147.9 453.5 148.0Q453.7 148.1 454.1 148.2L454.1 148.2L454.8 148.4Q455.3 148.5 455.7 148.7Q456.2 148.9 456.5 149.2Q456.8 149.4 457.0 149.8Q457.2 150.2 457.2 150.7L457.2 150.7Q457.2 151.4 456.8 152.0Q456.5 152.5 455.8 152.8Q455.1 153.1 454.1 153.1ZM461.0 153.1L461.0 153.1Q460.1 153.1 459.5 152.7Q458.8 152.3 458.4 151.6Q458.1 150.9 458.1 150.0L458.1 150.0Q458.1 149.1 458.4 148.4Q458.8 147.7 459.5 147.3Q460.1 146.9 461.0 146.9L461.0 146.9Q461.6 146.9 462.0 147.1Q462.5 147.2 462.8 147.5Q463.2 147.7 463.4 148.1Q463.6 148.5 463.7 148.9L463.7 148.9L462.2 149.2Q462.1 149.0 462.0 148.8Q461.9 148.6 461.8 148.5Q461.7 148.3 461.5 148.3Q461.3 148.2 461.0 148.2L461.0 148.2Q460.6 148.2 460.3 148.4Q460.0 148.6 459.9 149.1Q459.7 149.5 459.7 150.0L459.7 150.0Q459.7 150.6 459.9 151.0Q460.0 151.4 460.3 151.6Q460.6 151.9 461.0 151.9L461.0 151.9Q461.3 151.9 461.5 151.8Q461.7 151.7 461.8 151.6Q462.0 151.4 462.1 151.2Q462.2 151.0 462.2 150.8L462.2 150.8L463.7 151.1Q463.6 151.6 463.4 151.9Q463.2 152.3 462.8 152.6Q462.5 152.8 462.0 153.0Q461.6 153.1 461.0 153.1ZM466.4 153L464.8 153L464.8 147.0L466.4 147.0L466.4 148.0L466.4 148.0Q466.6 147.5 467.0 147.2Q467.4 146.9 467.9 146.9L467.9 146.9Q468.0 146.9 468.2 146.9Q468.3 146.9 468.4 147.0L468.4 147.0L468.4 148.4Q468.3 148.4 468.1 148.3Q467.9 148.3 467.7 148.3L467.7 148.3Q467.3 148.3 467.0 148.5Q466.8 148.6 466.6 148.9Q466.4 149.2 466.4 149.6L466.4 149.6L466.4 153ZM470.9 153L469.3 153L469.3 147.0L470.9 147.0L470.9 153ZM470.1 146.2L470.1 146.2Q469.7 146.2 469.5 146.0Q469.2 145.7 469.2 145.4L469.2 145.4Q469.2 145.0 469.5 144.8Q469.7 144.6 470.1 144.6L470.1 144.6Q470.5 144.6 470.7 144.8Q471.0 145.0 471.0 145.4L471.0 145.4Q471.0 145.7 470.7 146.0Q470.5 146.2 470.1 146.2ZM473.9 155.2L472.3 155.2L472.3 147.0L473.9 147.0L473.9 148.0L473.9 148.0Q474.0 147.8 474.3 147.5Q474.5 147.3 474.8 147.1Q475.1 146.9 475.6 146.9L475.6 146.9Q476.3 146.9 476.9 147.3Q477.4 147.6 477.8 148.3Q478.1 149.0 478.1 150.0L478.1 150.0Q478.1 151.0 477.8 151.7Q477.4 152.4 476.9 152.7Q476.3 153.1 475.6 153.1L475.6 153.1Q475.1 153.1 474.8 152.9Q474.5 152.8 474.3 152.5Q474.0 152.3 473.9 152.0L473.9 152.0L473.9 152.0L473.9 155.2ZM475.1 151.8L475.1 151.8Q475.6 151.8 475.8 151.6Q476.1 151.3 476.3 150.9Q476.4 150.5 476.4 150.0L476.4 150.0Q476.4 149.5 476.3 149.1Q476.1 148.7 475.9 148.4Q475.6 148.2 475.1 148.2L475.1 148.2Q474.7 148.2 474.4 148.4Q474.1 148.7 474.0 149.1Q473.8 149.5 473.8 150.0L473.8 150.0Q473.8 150.5 474.0 151.0Q474.2 151.4 474.4 151.6Q474.7 151.8 475.1 151.8ZM481.1 147.0L482.2 147.0L482.2 148.2L481.1 148.2L481.1 151.2Q481.1 151.5 481.2 151.7Q481.3 151.8 481.6 151.8L481.6 151.8Q481.7 151.8 481.9 151.8Q482.0 151.8 482.1 151.7L482.1 151.7L482.4 152.9Q482.1 153.0 481.8 153.1Q481.6 153.1 481.3 153.1L481.3 153.1Q480.4 153.1 479.9 152.6Q479.5 152.2 479.5 151.4L479.5 151.4L479.5 148.2L478.6 148.2L478.6 147.0L479.5 147.0L479.5 145.6L481.1 145.6L481.1 147.0Z "/></g><mask id="satori_om-id-1-2-4-2"><rect x="489" y="142" width="18" height="13" fill="#fff"/></mask><g  ><path fill="#94a3b8" d="M492.4 153.1L492.4 153.1Q491.6 153.1 491.0 152.8Q490.3 152.5 490.0 152.0Q489.7 151.5 489.7 150.9L489.7 150.9Q489.7 150.4 489.9 149.9Q490.1 149.5 490.4 149.2Q490.8 148.9 491.2 148.8L491.2 148.8L491.2 148.8Q490.6 148.6 490.3 148.1Q489.9 147.7 489.9 147.0L489.9 147.0Q489.9 146.4 490.3 145.9Q490.6 145.4 491.1 145.2Q491.7 144.9 492.4 144.9L492.4 144.9Q493.1 144.9 493.7 145.2Q494.2 145.4 494.5 145.9Q494.8 146.4 494.8 147.0L494.8 147.0Q494.8 147.7 494.5 148.1Q494.2 148.6 493.6 148.8L493.6 148.8L493.6 148.8Q494.0 148.9 494.4 149.2Q494.7 149.5 494.9 149.9Q495.1 150.4 495.1 150.9L495.1 150.9Q495.1 151.5 494.8 152.0Q494.4 152.5 493.8 152.8Q493.2 153.1 492.4 153.1ZM492.4 152.2L492.4 152.2Q492.9 152.2 493.3 152.0Q493.7 151.9 493.9 151.6Q494.1 151.2 494.1 150.8L494.1 150.8Q494.1 150.4 493.9 150.0Q493.7 149.7 493.3 149.5Q492.9 149.3 492.4 149.3L492.4 149.3Q491.9 149.3 491.5 149.5Q491.1 149.7 490.9 150.0Q490.7 150.4 490.7 150.8L490.7 150.8Q490.7 151.2 490.9 151.6Q491.1 151.9 491.5 152.0Q491.9 152.2 492.4 152.2ZM492.4 148.4L492.4 148.4Q492.8 148.4 493.2 148.3Q493.5 148.1 493.7 147.8Q493.9 147.5 493.9 147.1L493.9 147.1Q493.9 146.7 493.7 146.4Q493.5 146.1 493.2 145.9Q492.8 145.8 492.4 145.8L492.4 145.8Q492.0 145.8 491.6 145.9Q491.3 146.1 491.1 146.4Q490.9 146.7 490.9 147.1L490.9 147.1Q490.9 147.5 491.1 147.8Q491.3 148.1 491.6 148.3Q492.0 148.4 492.4 148.4ZM498.6 148.5L498.6 148.5Q498.1 148.5 497.8 148.3Q497.4 148.1 497.2 147.7Q497.0 147.3 497.0 146.9L497.0 146.9L497.0 146.5Q497.0 146.0 497.2 145.7Q497.4 145.3 497.8 145.1Q498.1 144.9 498.6 144.9L498.6 144.9Q499.1 144.9 499.5 145.1Q499.8 145.3 500 145.7Q500.2 146.0 500.2 146.5L500.2 146.5L500.2 146.9Q500.2 147.3 500.0 147.7Q499.8 148.1 499.5 148.3Q499.1 148.5 498.6 148.5ZM498.6 147.8L498.6 147.8Q499.0 147.8 499.2 147.6Q499.4 147.3 499.4 146.9L499.4 146.9L499.4 146.5Q499.4 146.1 499.2 145.9Q499.0 145.6 498.6 145.6L498.6 145.6Q498.2 145.6 498.0 145.9Q497.9 146.1 497.9 146.5L497.9 146.5L497.9 146.9Q497.9 147.3 498.0 147.6Q498.2 147.8 498.6 147.8ZM503.8 153.2L503.8 153.2Q503.3 153.2 502.9 152.9Q502.6 152.7 502.4 152.3Q502.2 152.0 502.2 151.5L502.2 151.5L502.2 151.1Q502.2 150.7 502.4 150.3Q502.6 149.9 503.0 149.7Q503.3 149.5 503.8 149.5L503.8 149.5Q504.3 149.5 504.7 149.7Q505.0 149.9 505.2 150.3Q505.4 150.7 505.4 151.1L505.4 151.1L505.4 151.5Q505.4 152.0 505.2 152.3Q505.0 152.7 504.7 152.9Q504.3 153.2 503.8 153.2ZM503.8 152.5L503.8 152.5Q504.2 152.5 504.4 152.2Q504.5 151.9 504.5 151.5L504.5 151.5L504.5 151.1Q504.5 150.8 504.4 150.5Q504.2 150.2 503.8 150.2L503.8 150.2Q503.4 150.2 503.2 150.5Q503.1 150.8 503.1 151.1L503.1 151.1L503.1 151.5Q503.1 151.9 503.2 152.2Q503.4 152.5 503.8 152.5ZM498.9 153L498.0 153L503.5 145.0L504.4 145.0L498.9 153Z "/></g></svg>